<svg width="20" height="20" viewBox="0 0 20 20" fill="none" xmlns="http://www.w3.org/2000/svg">
<g clip-path="url(#clip0_411_4603)">
<path d="M19.2344 6.02502C18.2969 5.1594 17 3.83752 15.9438 2.90002L15.8813 2.85627C15.7773 2.77276 15.66 2.70727 15.5344 2.66252C12.9875 2.18752 1.13438 -0.0281037 0.903125 2.12549e-05C0.838328 0.00909627 0.776391 0.0325896 0.721875 0.0687713L0.6625 0.115646C0.589389 0.189896 0.53386 0.279597 0.5 0.378146L0.484375 0.418771V0.640646V0.675021C1.81875 4.39065 7.0875 16.5625 8.125 19.4188C8.1875 19.6125 8.30625 19.9813 8.52813 20H8.57812C8.69688 20 9.20312 19.3313 9.20312 19.3313C9.20312 19.3313 18.2531 8.35627 19.1688 7.18752C19.2873 7.04356 19.3919 6.8887 19.4813 6.72502C19.5041 6.59696 19.4933 6.46517 19.45 6.3425C19.4068 6.21982 19.3325 6.11045 19.2344 6.02502ZM11.525 7.30315L15.3875 4.10002L17.6531 6.18752L11.525 7.30315ZM10.025 7.09377L3.375 1.64377L14.1344 3.62815L10.025 7.09377ZM10.625 8.5219L17.4312 7.42502L9.65 16.8L10.625 8.5219ZM2.47187 2.18752L9.46875 8.12502L8.45625 16.8063L2.47187 2.18752Z" fill="#FF060A"/>
</g>
<defs>
<clipPath id="clip0_411_4603">
<rect width="20" height="20" fill="white"/>
</clipPath>
</defs>
</svg>
