<svg width="20" height="20" viewBox="0 0 20 20" fill="none" xmlns="http://www.w3.org/2000/svg">
<path d="M19.6995 12.419C18.364 17.7762 12.938 21.0365 7.58017 19.7006C2.22459 18.365 -1.0357 12.9387 0.300462 7.58197C1.63545 2.22419 7.06142 -1.03634 12.4176 0.299234C17.775 1.63481 21.0351 7.0617 19.6994 12.4191L19.6995 12.419H19.6995Z" fill="#F7931A"/>
<path d="M14.4099 8.57528C14.6089 7.2445 13.5957 6.52915 12.2103 6.05194L12.6597 4.24928L11.5624 3.97585L11.1249 5.73105C10.8364 5.6591 10.5401 5.59131 10.2457 5.5241L10.6864 3.75732L9.58974 3.48389L9.14005 5.28596C8.90133 5.23161 8.66685 5.17789 8.43937 5.12129L8.44064 5.11562L6.92739 4.73773L6.63549 5.90976C6.63549 5.90976 7.44962 6.09638 7.43246 6.10786C7.87682 6.21877 7.95718 6.51292 7.94383 6.74608L7.43187 8.79973C7.46247 8.8075 7.50216 8.81875 7.54596 8.83634C7.50935 8.82725 7.47039 8.81733 7.42997 8.80765L6.71237 11.6845C6.65807 11.8195 6.52023 12.0221 6.20955 11.9452C6.22055 11.9611 5.41199 11.7462 5.41199 11.7462L4.86719 13.0023L6.29519 13.3582C6.56085 13.4249 6.82118 13.4946 7.07755 13.5601L6.62346 15.3834L7.71953 15.6569L8.16921 13.8529C8.46865 13.9342 8.75923 14.0092 9.04371 14.0798L8.59554 15.8753L9.69292 16.1487L10.147 14.3288C12.0181 14.683 13.4251 14.5402 14.0174 12.8477C14.4946 11.485 13.9936 10.6991 13.0092 10.1865C13.7262 10.0212 14.2662 9.54958 14.4102 8.57542L14.4099 8.57518L14.4099 8.57528ZM11.9027 12.091C11.5636 13.4536 9.26929 12.717 8.52544 12.5323L9.12803 10.1167C9.87182 10.3024 12.2571 10.6698 11.9027 12.091H11.9027ZM12.2421 8.55553C11.9327 9.79501 10.0231 9.1653 9.4037 9.01089L9.95003 6.82008C10.5695 6.97449 12.5643 7.26268 12.2422 8.55553H12.2421Z" fill="white"/>
</svg>
