<svg width="23" height="20" viewBox="0 0 23 20" fill="none" xmlns="http://www.w3.org/2000/svg">
<path fill-rule="evenodd" clip-rule="evenodd" d="M4.21031 0.0982283L0.0182112 8.90373C0.00225908 8.93648 -0.00279605 8.97348 0.00378508 9.00931C0.0103662 9.04514 0.0282384 9.07792 0.0547879 9.10287L11.3766 19.9519C11.4088 19.9828 11.4516 20 11.4962 20C11.5407 20 11.5836 19.9828 11.6157 19.9519L22.9376 9.10355C22.9641 9.0786 22.982 9.04581 22.9886 9.00998C22.9952 8.97415 22.9901 8.93716 22.9741 8.90441L18.7821 0.0989056C18.7685 0.069333 18.7468 0.0442813 18.7194 0.0267445C18.692 0.00920761 18.6601 -7.25429e-05 18.6276 1.31083e-05H4.3661C4.33342 -0.000393409 4.30133 0.0086632 4.27368 0.0260904C4.24604 0.0435177 4.22403 0.068571 4.21031 0.0982283Z" fill="#50AF95"/>
<path fill-rule="evenodd" clip-rule="evenodd" d="M12.9505 9.80798C12.8692 9.81408 12.4493 9.83914 11.5125 9.83914C10.7674 9.83914 10.2384 9.81679 10.0528 9.80798C7.1734 9.68132 5.02418 9.18008 5.02418 8.57996C5.02418 7.97983 7.1734 7.47927 10.0528 7.35057V9.30878C10.2411 9.32233 10.7803 9.35416 11.5254 9.35416C12.4194 9.35416 12.8672 9.31691 12.9478 9.30946V7.35193C15.8211 7.47995 17.9656 7.98118 17.9656 8.57996C17.9656 9.17873 15.8218 9.67997 12.9478 9.80731L12.9505 9.80798ZM12.9505 7.1494V5.39711H16.9604V2.72498H6.04291V5.39711H10.0521V7.14872C6.79341 7.29842 4.34277 7.94393 4.34277 8.71746C4.34277 9.49099 6.79341 10.1358 10.0521 10.2862V15.9014H12.9498V10.2842C16.2011 10.1345 18.6476 9.48963 18.6476 8.71678C18.6476 7.94393 16.2031 7.29909 12.9498 7.14872L12.9505 7.1494Z" fill="white"/>
</svg>
