<svg width="623" height="500" viewBox="0 0 623 500" fill="none" xmlns="http://www.w3.org/2000/svg">
<g clip-path="url(#clip0_144_17304)">
<rect width="623" height="500" rx="16" fill="#FBFBFB"/>
<path d="M148.795 189.525L219.409 189.163L222.466 197.404C222.466 197.404 203.321 205.275 189.508 208.034C164.649 212.998 148.795 189.525 148.795 189.525Z" fill="#F37453"/>
<path d="M220.025 197.117L218.354 196.358C212.552 193.726 209.983 186.889 212.62 181.089L215.854 173.952C216.782 171.912 219.185 171.009 221.226 171.935L222.896 172.694C228.699 175.326 231.268 182.163 228.63 187.963L225.397 195.1C224.469 197.14 222.066 198.042 220.025 197.117Z" fill="#F37453"/>
<path d="M203.555 343.163C195.497 358.968 196.122 365.532 196.122 365.532L192.859 400.023L192.722 401.43L190.564 424.238L153.875 424.189C153.875 424.189 150.69 413.435 148.287 401.43C148.189 400.971 148.092 400.492 148.004 400.023C146.431 391.935 145.278 383.437 145.738 377.41C146.9 362.035 160.321 340.715 160.321 340.715C160.321 340.715 155.613 331.285 151.677 300.533C151.677 300.519 151.677 300.512 151.667 300.505V300.497C148.717 277.411 149.567 252.335 150.172 241.272C150.368 237.594 150.543 235.464 150.543 235.464H194.862C194.862 235.464 208.85 261.567 210.94 290.047C212.513 311.468 208.85 332.748 203.555 343.163Z" fill="#FAE2D7"/>
<path d="M154.803 400.805C154.783 400.638 152.947 383.955 155.633 371.676C158.153 360.189 165.205 343.456 166.124 341.307C165.723 339.857 163.604 332.095 161.611 321.795C159.403 310.408 157.352 290.582 157.332 290.399L158.729 290.263C158.749 290.446 160.79 310.206 162.988 321.527C165.186 332.852 167.521 341.072 167.55 341.16L167.618 341.395L167.511 341.629C167.433 341.815 159.657 359.876 157.01 371.979C154.363 384.023 156.18 400.482 156.199 400.648L154.803 400.805Z" fill="#CF837E"/>
<path d="M175.746 231.076C175.746 231.076 168.595 261.88 159.492 291.791V291.798C152.605 314.393 144.605 336.489 137.747 344.383C131.076 352.081 113.933 373.043 100.57 389.473C100.267 389.844 99.9742 390.216 99.6714 390.587C90.2158 402.221 82.8702 411.305 82.8702 411.305L53.5852 392.453C53.5852 392.453 58.3912 381.542 63.1385 369.859C63.3046 369.419 63.4901 368.98 63.6561 368.54C66.1079 362.455 68.4914 356.252 70.1031 351.368C74.9481 336.73 101.498 326.698 101.498 326.698C101.498 326.698 94.9046 323.322 95.8521 292.329C96.8289 260.276 113.542 237.77 113.542 237.77L144.751 234.409L175.746 231.076Z" fill="#FAE2D7"/>
<path d="M58.8014 380.311L92.0717 399.955L83.2218 412.184L53.5754 392.453L58.8014 380.311Z" fill="#F37453"/>
<path d="M150.368 410.914L191.785 411.354L190.417 426.075L153.875 424.199C153.875 424.199 150.807 413.669 150.368 410.914Z" fill="#F37453"/>
<path d="M94.963 455.008C94.7676 455.428 94.5723 455.877 94.3671 456.278C93.1461 458.7 91.9739 460.224 91.9739 460.224L34 422.861L36.4811 419.003L37.2529 417.821L45.3213 405.269L46.6986 403.12L53.5754 392.453V392.433L84.433 412.312C82.7529 414.959 81.9909 417.205 81.9616 419.237C81.9323 419.862 81.9909 420.478 82.1178 421.083C82.362 422.461 82.9384 423.76 83.7687 425.069C84.052 425.538 84.394 426.036 84.7652 426.505C85.5955 427.618 86.582 428.751 87.6662 429.914C88.0765 430.363 88.4868 430.822 88.9361 431.272C90.079 432.502 91.3293 433.811 92.5991 435.228C92.648 435.267 92.6676 435.286 92.6871 435.325C93.0974 435.775 93.4685 436.253 93.8299 436.722C98.587 443.208 97.0045 450.319 94.963 455.008Z" fill="#332938"/>
<path d="M88.7995 436.468C88.7995 436.468 80.1253 425.498 78.9434 416.756C77.7614 408.013 78.289 408.355 78.289 408.355L87.1292 408.13C87.1292 408.13 84.6091 419.559 86.8655 424.814C89.1219 430.07 92.6873 435.315 92.6873 435.315L88.7995 436.468Z" fill="#332938"/>
<path d="M94.3577 456.288L36.4814 418.993L37.2434 417.811L94.9632 454.998C94.7679 455.447 94.5628 455.877 94.3577 456.288Z" fill="#CF837E"/>
<path d="M50.8403 426.837L49.1212 427.13L48.7987 425.264L45.3311 405.269L46.6986 403.12L50.7818 426.544L50.8403 426.837Z" fill="#CF837E"/>
<path d="M93.8298 436.722L74.1958 441.606L72.76 441.967L72.379 440.463L72.3496 440.287L92.6088 435.227C92.6381 435.257 92.6577 435.286 92.687 435.315C93.107 435.774 93.4684 436.243 93.8298 436.722Z" fill="#CF837E"/>
<path d="M79.7447 422.128L79.0413 420.546L86.4456 418.123L87.1587 419.716L79.7447 422.128Z" fill="#CF837E"/>
<path d="M82.196 427.647L81.4928 426.065L87.1484 423.711L87.8518 425.303L82.196 427.647Z" fill="#CF837E"/>
<path d="M84.6573 433.176L83.9443 431.584L90.108 428.829L90.8211 430.421L84.6573 433.176Z" fill="#CF837E"/>
<path d="M222.828 460.224H153.826L153.865 424.199L190.564 424.219V424.238C190.564 427.823 191.336 430.344 192.762 432.19C193.143 432.668 193.563 433.127 194.041 433.528C195.096 434.427 196.327 435.12 197.753 435.687C198.281 435.921 198.828 436.107 199.414 436.292C200.693 436.732 202.09 437.113 203.604 437.513C204.171 437.64 204.737 437.787 205.324 437.933C206.789 438.285 208.342 438.666 209.934 439.125C211.653 439.584 213.148 440.258 214.466 441.079C214.994 441.391 215.473 441.723 215.932 442.104C220.191 445.504 221.871 450.495 222.496 454.432C222.584 454.91 222.642 455.399 222.681 455.838C222.916 458.017 222.857 459.658 222.828 460.224Z" fill="#332938"/>
<path d="M211.527 443.569C211.527 443.569 209.759 442.368 207.766 441.577C204.289 440.189 197.197 438.675 189.109 433.469C181.695 428.692 182.408 424.219 182.408 424.219L191.238 421.337C191.238 421.337 187.692 430.607 199.58 434.924C212.435 439.584 214.457 441.078 214.457 441.078L211.527 443.569Z" fill="#332938"/>
<path d="M222.691 455.838L153.836 455.78V454.363L222.506 454.432C222.584 454.92 222.643 455.389 222.691 455.838Z" fill="#CF837E"/>
<path d="M170.354 454.5L169.084 455.682L167.873 454.373L153.855 439.301V436.771L170.246 454.373L170.354 454.5Z" fill="#CF837E"/>
<path d="M215.932 442.104L201.387 454.402L199.775 455.77L198.662 454.451L198.721 454.402L214.457 441.079C214.984 441.391 215.463 441.733 215.932 442.104Z" fill="#CF837E"/>
<path d="M192.518 436.263L190.945 435.501L193.748 430.138L195.311 430.9L192.518 436.263Z" fill="#CF837E"/>
<path d="M198.203 439.418L196.64 438.666L199.004 433.147L200.576 433.909L198.203 439.418Z" fill="#CF837E"/>
<path d="M203.448 442.143L201.885 441.381L204.444 435.784L206.007 436.546L203.448 442.143Z" fill="#CF837E"/>
<path d="M141.919 68.1629C141.919 75.8475 135.687 82.0776 128.009 82.0776C120.321 82.0776 114.089 75.8475 114.089 68.1629C114.089 60.4783 120.321 54.2482 128.009 54.2482C135.687 54.2482 141.919 60.4783 141.919 68.1629Z" fill="#332938"/>
<path d="M167.111 89.7672C167.091 99.8597 158.505 108.029 147.936 108.012C137.357 107.997 128.8 99.802 128.81 89.7096C128.829 79.6172 137.415 71.4481 147.985 71.4637C158.563 71.4803 167.12 79.6748 167.111 89.7672Z" fill="#332938"/>
<path d="M153.523 122.724L135.638 119.429L139.477 98.6092L157.362 101.904L153.523 122.724Z" fill="#F37453"/>
<path d="M155.008 114.668L144.253 111.277L154.022 120.024L155.008 114.668Z" fill="#332938"/>
<path d="M157.342 114.905L139.496 112.871L139.525 91.3838C139.545 84.4279 145.454 78.7975 152.741 78.8082C160.038 78.819 165.938 84.4669 165.928 91.4238L165.899 105.593C165.899 110.8 162.207 115.84 157.342 114.905Z" fill="#F37453"/>
<path d="M165.919 97.271L165.909 104.151C165.665 104.226 165.391 104.269 165.127 104.268C163.398 104.265 161.982 102.667 161.992 100.704C161.992 98.7313 163.408 97.1489 165.137 97.1508C165.401 97.1518 165.674 97.1948 165.919 97.271Z" fill="#C75450"/>
<path d="M141.215 94.4658L137.22 94.4599L137.249 75.8302L159.872 75.8644C159.853 86.1531 151.501 94.4814 141.215 94.4658Z" fill="#332938"/>
<path d="M153.25 100.799C153.25 102.882 151.56 104.568 149.47 104.565C147.389 104.562 145.709 102.871 145.709 100.789C145.709 98.7061 147.399 97.0201 149.489 97.024C151.57 97.027 153.25 98.7179 153.25 100.799Z" fill="#C75450"/>
<path d="M154.168 108.724C153.162 108.724 151.814 108.372 150.505 106.958L151.208 106.31C153.318 108.584 155.379 107.544 155.408 107.533L155.848 108.378C155.828 108.385 155.155 108.724 154.168 108.724Z" fill="#332938"/>
<path d="M153.259 97.482C153.249 98.1394 152.722 98.6728 152.058 98.6708C151.403 98.6708 150.876 98.1365 150.876 97.4781C150.876 96.8207 151.403 96.2883 152.067 96.2893C152.722 96.2903 153.259 96.8246 153.259 97.482Z" fill="#332938"/>
<path d="M163.672 97.4978C163.672 98.1562 163.144 98.6885 162.48 98.6876C161.826 98.6866 161.289 98.1522 161.298 97.4939C161.298 96.8365 161.826 96.3041 162.49 96.3051C163.144 96.3061 163.672 96.8404 163.672 97.4978Z" fill="#332938"/>
<path d="M158.661 103.065C158.622 103.065 158.573 103.062 158.524 103.055L155.867 102.619L156.024 101.679L158.661 102.112C158.788 102.06 158.954 101.548 158.973 101.047L159.921 101.082C159.911 101.292 159.852 102.361 159.286 102.832C159.11 102.985 158.895 103.065 158.661 103.065Z" fill="#332938"/>
<path d="M124.824 226.034C126.846 220.767 128.878 214.395 128.809 210.119C128.79 207.286 126.7 194.747 125.098 185.563C124.091 179.903 123.3 175.522 123.3 175.522L123.427 134.172L129.581 126.746L134.309 121.056L135.647 119.432L153.533 122.724C153.533 122.724 169.611 136.401 179.575 153.187C183.062 159.087 185.807 165.374 186.832 171.576C187.545 175.999 187.77 180.676 187.878 185.563C188.044 192.652 187.966 200.134 188.845 207.75C189.577 214.121 191.023 220.809 192.302 226.034C193.66 231.589 194.862 235.464 194.862 235.464H120.78C120.78 235.464 122.812 231.294 124.824 226.034Z" fill="#95C58C"/>
<path d="M123.662 177.505L128.048 171.507L134.612 177.111L123.662 177.505Z" fill="#3E543A"/>
<path d="M159.022 154.681L152.663 158.12L129.581 126.747L134.309 121.057L159.022 154.681Z" fill="#3E543A"/>
<path d="M136.937 226.032H192.293V226.024C192.019 224.862 191.716 223.628 191.433 222.338C190.954 220.209 190.476 217.94 190.046 215.614C189.958 215.141 189.87 214.676 189.792 214.205C189.411 212.061 189.079 209.891 188.844 207.748C187.965 200.135 188.043 192.651 187.877 185.56C187.809 182.712 187.711 179.936 187.487 177.243C187.457 176.771 187.418 176.298 187.369 175.84C187.233 174.395 187.057 172.972 186.822 171.576C186.549 169.842 186.119 168.094 185.582 166.353C185.445 165.881 185.289 165.416 185.133 164.944C183.765 160.948 181.821 156.987 179.574 153.187H149.772C148.062 153.187 146.607 154.456 146.373 156.148L145.191 164.944L145.005 166.353L136.937 226.032Z" fill="#A35A5F"/>
<path d="M144.868 98.6375C144.868 101.962 142.172 104.652 138.842 104.647C135.52 104.642 132.834 101.943 132.834 98.619C132.844 95.2949 135.54 92.6047 138.861 92.6096C142.182 92.6145 144.878 95.3134 144.868 98.6375Z" fill="#F37453"/>
<path d="M145.708 93.9704C145.708 102.581 144.614 109.561 143.266 109.561C141.908 109.561 140.814 102.581 140.814 93.9704C140.814 85.3598 141.908 78.3795 143.266 78.3795C144.614 78.3795 145.708 85.3598 145.708 93.9704Z" fill="#332938"/>
<path d="M206.681 266.179C206.681 266.179 190.671 284.543 158.3 291.886C157.362 283.837 123.33 267.157 108.853 260.404C108.404 260.194 107.974 259.996 107.574 259.814C104.389 258.334 102.983 258.014 102.983 258.014C102.983 258.014 105.864 246.255 113.913 236.163C114.216 235.797 114.519 235.424 114.831 235.057C114.9 234.956 114.988 234.861 115.076 234.759C117.82 231.535 121.054 228.488 124.815 226.032C124.815 226.025 124.815 226.025 124.815 226.025H192.312C193.866 228.292 195.389 231.346 196.825 234.759C197.021 235.227 197.216 235.688 197.411 236.163C199.424 241.131 201.25 246.716 202.754 251.704C202.891 252.2 203.048 252.688 203.184 253.17C205.333 260.479 206.681 266.179 206.681 266.179Z" fill="#FAE2D7"/>
<path d="M168.976 275.131H167.57V235.465H168.976V275.131Z" fill="#007275"/>
<path d="M83.622 195.334C90.5672 196.572 97.4538 195.447 103.813 192.708C108.951 190.531 113.757 187.304 117.996 183.42C121.894 179.893 125.293 175.803 128.048 171.507C137.493 156.703 139.086 139.217 125.479 131.694C125.479 131.694 114.265 142.669 102.953 155.521C99.5148 159.424 96.0862 163.477 92.9506 167.473C89.4439 171.901 86.3279 176.216 84.003 180.08C79.158 188.167 77.7514 194.302 83.622 195.334Z" fill="#95C58C"/>
<path d="M92.9506 167.473L117.996 183.42C121.894 179.893 125.293 175.803 128.048 171.507L102.953 155.521C99.5148 159.424 96.0861 163.477 92.9506 167.473Z" fill="#3D77FF"/>
<path d="M84.0034 180.08L103.813 192.708C108.951 190.531 113.757 187.304 117.997 183.42L92.951 167.473C89.4442 171.901 86.3282 176.216 84.0034 180.08Z" fill="#FFDA21"/>
<path d="M84.3156 179.566L136.937 211.019C136.937 211.019 113.835 221.429 91.2413 211.236C67.9833 200.741 84.3156 179.566 84.3156 179.566Z" fill="#F37453"/>
<path d="M72.7211 374.499L71.5001 373.786C71.5294 373.747 74.2157 369.097 81.0632 354.552C87.5395 340.787 105.327 330.864 108.492 329.18C107.886 325.41 104.204 301.305 105.679 275.715C106.597 259.709 111.11 245.754 116.121 233.565L117.899 232.941C112.927 245.03 107.984 259.983 107.076 275.795C105.493 303.357 109.918 329.189 109.967 329.447L110.055 329.958L109.596 330.194C109.391 330.298 89.0926 340.777 82.333 355.148C75.4465 369.781 72.8286 374.313 72.7211 374.499Z" fill="#CF837E"/>
<path d="M100.57 389.473C100.267 389.845 99.9739 390.216 99.671 390.587L63.1382 369.859C63.3042 369.419 63.4897 368.98 63.6558 368.54L100.57 389.473Z" fill="#CF837E"/>
<path d="M155.526 294.256L164.336 275.131H180.278L155.526 294.256Z" fill="#332938"/>
<path d="M192.859 400.023L192.723 401.43H148.287C148.19 400.971 148.092 400.492 148.004 400.023H192.859Z" fill="#CF837E"/>
<path d="M111.52 258.03C110.153 258.344 109.254 258.497 109.108 258.522L108.873 257.134C109.029 257.106 124.717 254.441 129.201 246.74C133.03 240.157 131.789 231.468 131.779 231.381L133.167 231.173C133.225 231.548 134.495 240.441 130.422 247.446C126.68 253.877 116.287 256.934 111.52 258.03Z" fill="#CF837E"/>
<path d="M203.184 253.171C200.342 252.96 196.386 252.01 193.582 248.734C189.343 243.769 188.483 237.496 188.347 236.167C188.327 236.033 188.317 235.949 188.317 235.921L189.724 235.816C189.724 235.822 189.734 235.949 189.763 236.167C189.939 237.636 190.867 243.382 194.657 247.82C196.952 250.506 200.215 251.427 202.745 251.701C202.901 252.201 203.048 252.686 203.184 253.171Z" fill="#007275"/>
<path d="M170.207 266.107H168.273V264.7H170.207C174.378 264.7 177.768 261.308 177.768 257.14V235.465H179.174V257.14C179.174 262.084 175.16 266.107 170.207 266.107Z" fill="#007275"/>
<path d="M119.51 347.05L119.041 345.732L133.039 340.703L133.508 342.03L119.51 347.05Z" fill="#CF837E"/>
<path d="M187.106 359.905L186.012 359.016L196.093 346.532L197.187 347.421L187.106 359.905Z" fill="#CF837E"/>
<path d="M149.342 226.032V235.057H114.832C114.9 234.956 114.988 234.861 115.076 234.759C117.821 231.535 121.054 228.488 124.815 226.032H149.342Z" fill="#332938"/>
<path d="M136.937 226.032V329.852H211.311C211.311 329.852 211.311 296.45 211.311 272.183C211.311 269.893 211.145 267.63 210.842 265.396C207.951 243.984 192.615 226.024 192.615 226.024H192.293L160.693 226.032H136.937Z" fill="#A35A5F"/>
<path d="M160.693 222.338V248.311C160.693 258.44 168.898 266.651 179.028 266.651H204.181C206.535 266.651 208.772 266.206 210.843 265.396C207.951 243.984 192.615 226.024 192.615 226.024H192.293C192.019 224.861 191.717 223.628 191.433 222.338H160.693Z" fill="#332938"/>
<path d="M217.993 238.777H142.563V163.345H217.993V238.777Z" fill="#EBBDB3"/>
<path d="M175.042 216.598H183.463V186.636H175.042V216.598Z" fill="white"/>
<path d="M194.237 205.829V197.404H164.268V205.829H194.237Z" fill="white"/>
<path d="M173.479 177.173H187.067V163.345H173.479V177.173Z" fill="#FAE2D7"/>
<path d="M144.292 215.388L123.173 214.851L124.736 206.944C124.736 201.318 129.298 196.759 134.924 196.759H154.471V205.203C154.471 210.829 149.909 215.388 144.292 215.388Z" fill="#F37453"/>
<path d="M280.206 241.456V241.466C280.47 242.583 280.646 243.183 280.646 243.183L281.271 242.038L289.007 227.863L291.03 217.76L292.309 211.391L305.643 144.939L305.926 143.512L306.141 142.44C305.887 142.685 305.633 142.93 305.379 143.194C305.105 143.457 304.842 143.73 304.578 144.012C304.578 144.02 304.568 144.02 304.568 144.029C304.5 144.094 304.431 144.157 304.392 144.221C294.175 154.969 282.062 175.903 278.624 195.019C278.565 195.31 278.517 195.6 278.477 195.891C274.902 216.752 278.81 235.759 280.206 241.456Z" fill="#638CFF"/>
<path d="M280.206 241.456V241.466L281.271 242.038L290.824 227.904V199.171L278.477 195.891C274.902 216.752 278.81 235.759 280.206 241.456Z" fill="#F37453"/>
<path d="M285.1 239.441L281.857 255.532C281.857 255.532 272.86 252.05 271.668 247.854C270.32 243.144 279.161 236.596 279.161 236.596L285.1 239.441Z" fill="#F37453"/>
<path d="M269.363 336.552L286.174 371.275L305.867 411.96L313.457 427.647L315.85 411.96L322.053 371.275L338.404 264.051L330.141 254.48L299.547 219.066L269.363 336.552Z" fill="#F37453"/>
<path d="M313.457 427.637L348.749 427.325L348.759 427.286C348.759 427.276 348.778 427.276 348.788 427.266C349.14 426.69 352.412 421.366 356.661 411.959C360.969 402.387 367.211 388.594 371.47 371.285C372.75 366.108 373.912 360.628 374.918 354.845C375.514 351.436 376.051 347.92 376.52 344.305C376.579 343.846 376.637 343.377 376.696 342.918C380.965 308.772 379.275 265.978 363.157 217.76L362.903 217.751L333.784 216.716L333.677 217.751L330.141 254.476L321.613 342.918L321.477 344.305L320.461 354.845L318.878 371.285L314.961 411.959L313.457 427.637Z" fill="#F37453"/>
<path d="M266.345 342.918V344.306C266.355 350.987 266.57 354.845 266.57 354.845H374.918C375.514 351.436 376.051 347.92 376.52 344.306C376.579 343.846 376.638 343.378 376.696 342.918C380.965 308.772 379.275 265.979 363.158 217.76V217.751H333.677L290.219 217.76C269.1 264.616 266.414 319.257 266.345 342.918Z" fill="#638CFF"/>
<path d="M290.218 217.76H363.157L364.27 145.62L362.659 143.902L361.643 142.84L352.422 133.045L342.165 122.169H327.2L314.482 134.408L306.14 142.44L305.359 143.184L304.753 143.775C304.685 143.839 304.646 143.921 304.577 144.012C304.577 144.021 304.567 144.021 304.567 144.029C304.528 144.094 304.489 144.166 304.44 144.248C300.719 151.39 290.218 217.76 290.218 217.76Z" fill="#638CFF"/>
<path d="M291.498 217.753L291.654 171.765L290.287 171.76L290.14 217.749L291.498 217.753Z" fill="#466DD1"/>
<path d="M338.17 83.4461C338.17 88.8996 342.595 93.3217 348.046 93.3217C353.496 93.3217 357.921 88.8996 357.921 83.4461C357.921 77.9915 353.496 73.5705 348.046 73.5705C342.595 73.5705 338.17 77.9915 338.17 83.4461Z" fill="#332938"/>
<path d="M320.031 95.5127C320.031 103.237 326.595 109.499 334.683 109.499C342.781 109.499 349.335 103.237 349.335 95.5127C349.335 87.789 342.781 81.5276 334.683 81.5276C326.595 81.5276 320.031 87.789 320.031 95.5127Z" fill="#332938"/>
<path d="M327.201 122.173H342.165V104.755H327.201V122.173Z" fill="#F37453"/>
<path d="M342.166 122.173C342.166 122.173 335.855 131.87 330.317 131.87C324.778 131.87 327.201 122.173 327.201 122.173L334.683 119.915L342.166 122.173Z" fill="#F37453"/>
<path d="M327.201 115.434L336.412 114.294L327.201 119.914V115.434Z" fill="#332938"/>
<path d="M341.618 115.337V97.3335C341.618 91.1396 336.754 86.1178 330.756 86.1178C324.768 86.1178 319.904 91.1396 319.904 97.3335V108.197C319.904 121.437 341.618 115.337 341.618 115.337Z" fill="#F37453"/>
<path d="M325.804 109.698H328.695V109.052H325.804V109.698Z" fill="#332938"/>
<path d="M319.904 101.293V106.953C320.099 107.016 320.324 107.051 320.539 107.051C321.965 107.051 323.127 105.738 323.127 104.123C323.127 102.499 321.965 101.195 320.539 101.195C320.324 101.195 320.099 101.231 319.904 101.293Z" fill="#C74E4A"/>
<path d="M337.213 102.443C337.213 105.178 339.43 107.395 342.165 107.395C344.9 107.395 347.118 105.178 347.118 102.443C347.118 99.7082 344.9 97.4909 342.165 97.4909C339.43 97.4909 337.213 99.7082 337.213 102.443Z" fill="#F37453"/>
<path d="M330.317 104.212C330.317 105.926 331.704 107.315 333.423 107.315C335.132 107.315 336.529 105.926 336.529 104.212C336.529 102.498 335.132 101.11 333.423 101.11C331.704 101.11 330.317 102.498 330.317 104.212Z" fill="#C74E4A"/>
<path d="M330.317 101.482C330.317 102.023 330.756 102.462 331.303 102.462C331.84 102.462 332.28 102.023 332.28 101.482C332.28 100.941 331.84 100.502 331.303 100.502C330.756 100.502 330.317 100.941 330.317 101.482Z" fill="#332938"/>
<path d="M321.75 101.482C321.75 102.023 322.18 102.462 322.727 102.462C323.264 102.462 323.704 102.023 323.704 101.482C323.704 100.941 323.264 100.502 322.727 100.502C322.18 100.502 321.75 100.941 321.75 101.482Z" fill="#332938"/>
<path d="M325.843 106.07C325.892 106.07 325.941 106.067 325.99 106.06L328.158 105.705L328.031 104.931L325.863 105.286L325.755 105.181L326.263 100.897L325.492 100.803L324.974 105.088C324.945 105.364 325.042 105.634 325.238 105.826C325.404 105.985 325.619 106.07 325.843 106.07Z" fill="#332938"/>
<path d="M306.736 460.224H360.754C360.754 460.224 361.272 458.515 361.477 456.053C361.496 455.848 361.506 455.653 361.516 455.428C361.535 455.213 361.545 454.998 361.555 454.774C361.643 451.579 361.096 447.565 358.468 444.351C358.292 444.107 358.077 443.882 357.863 443.648C357.745 443.521 357.618 443.384 357.492 443.247C357.423 443.189 357.365 443.13 357.296 443.071C356.944 442.749 356.583 442.437 356.173 442.143C350.156 437.699 347.03 435.667 348.739 427.325L341.784 427.394L313.457 427.648L307.859 454.774L307.733 455.418L307.596 456.053L306.736 460.224Z" fill="#332938"/>
<path d="M361.545 454.773C361.536 455.223 361.506 455.653 361.477 456.053H307.586L307.85 454.773H361.545Z" fill="#665B6B"/>
<path d="M314.482 455.184L315.489 455.76C315.225 456.053 325.833 444.351 334.556 444.351H358.488C358.146 443.901 357.755 443.472 357.316 443.061H335.025C325.462 443.061 314.58 455.076 314.482 455.184Z" fill="#665B6B"/>
<path d="M330.756 83.4461H342.351V84.3858C342.351 91.0848 336.92 96.5149 330.219 96.5149H319.171V95.0389C319.171 88.6359 324.358 83.4461 330.756 83.4461Z" fill="#332938"/>
<path d="M339.489 105.93L343.826 90.4091H339.489V105.93Z" fill="#332938"/>
<path d="M313.457 427.647L320.47 354.845H310.937L313.457 427.647Z" fill="#332938"/>
<path d="M374.058 354.845L282.58 363.852L278.223 354.845H374.058Z" fill="#332938"/>
<path d="M266.345 342.918V344.306H376.52C376.579 343.846 376.638 343.378 376.696 342.918H266.345Z" fill="#466DD1"/>
<path d="M347.323 217.76L376.266 198.708C377.018 183.801 377.018 168.431 364.271 145.616L347.323 217.76Z" fill="#638CFF"/>
<path d="M353.145 197.66L361.926 160.297L360.813 160.035L352.031 197.398L353.145 197.66Z" fill="#466DD1"/>
<path d="M359.133 168.074L360.002 167.633L359.074 161.56L358.205 162.002L359.133 168.074Z" fill="#466DD1"/>
<path d="M328.89 202.06C328.89 202.06 355.919 222.468 368.383 215.355C373.277 212.567 376.256 206.076 376.266 198.707V198.584L332.993 193.257L328.89 202.06Z" fill="#F37453"/>
<path d="M332.388 204.168L333.345 193.3L317.403 190.837C317.403 190.837 318.683 206.909 332.388 204.168Z" fill="#F37453"/>
<path d="M316.388 326.584L324.759 287.368L323.411 287.081L315.04 326.297L316.388 326.584Z" fill="#466DD1"/>
<path d="M319.787 291.622L324.71 271.841L323.381 271.512L318.458 291.294L319.787 291.622Z" fill="#466DD1"/>
<path d="M335.308 427.325C335.308 427.325 325.159 426.084 322.522 434.036C320.265 440.854 310.438 442.27 310.438 442.27L313.926 422.832L335.308 427.325Z" fill="#F37453"/>
<path d="M541.807 460.224H494.783L494.978 457.011L495.037 456.014L497.215 419.813H527.877L526.989 434.651C526.598 441.137 529.587 442.72 535.419 446.168C535.565 446.246 535.702 446.334 535.838 446.422C536.327 446.734 536.786 447.067 537.206 447.408C540.283 449.978 541.406 453.338 541.778 455.975V456.014C541.817 456.356 541.856 456.669 541.885 456.981V457.011C542.022 458.906 541.807 460.224 541.807 460.224Z" fill="#332938"/>
<path d="M541.884 456.981V457.01H494.978L495.036 456.014H541.777C541.816 456.356 541.855 456.668 541.884 456.981Z" fill="#665B6B"/>
<path d="M526.988 434.651H496.316L496.951 424.219H527.614L526.988 434.651Z" fill="#F37453"/>
<path d="M510.002 434.563C510.002 434.563 504.639 434.944 504.649 440.444C504.649 445.933 495.711 444.732 495.711 444.732L496.493 431.418L510.002 434.563Z" fill="#F37453"/>
<path d="M467.207 419.735L464.15 455.897L464.062 456.903L463.798 460.107H416.774C416.774 460.107 416.755 458.798 417.155 456.903C417.165 456.893 417.155 456.874 417.165 456.874C417.243 456.561 417.321 456.248 417.409 455.897C417.419 455.897 417.419 455.877 417.419 455.867C418.298 452.781 420.359 448.698 425.194 446.06C431.524 442.622 434.748 441.049 435.295 434.563L436.545 419.735H467.207Z" fill="#332938"/>
<path d="M464.15 455.897L464.063 456.903H417.156C417.166 456.893 417.156 456.874 417.165 456.874C417.244 456.561 417.322 456.248 417.41 455.897H464.15Z" fill="#665B6B"/>
<path d="M435.285 434.563H465.957L466.836 424.14H436.164L435.285 434.563Z" fill="#F37453"/>
<path d="M444.653 434.563C444.653 434.563 450.377 435.491 451.549 440.717C452.712 445.933 457.488 447.262 459.52 447.506C461.542 447.76 464.961 446.324 464.961 446.324L466.055 433.342L444.653 434.563Z" fill="#F37453"/>
<path d="M433.185 162.92L433.449 234.639L409.79 221.993L433.185 162.92Z" fill="#FFDA21"/>
<path d="M526.891 154.325L514.105 224.788L553.412 222.162L526.891 154.325Z" fill="#FFDA21"/>
<path d="M405.766 290.749L409.517 223.08C412.349 210.798 420.75 204.119 432.853 208.498C444.233 212.613 446.264 225.305 442.572 236.527L424.97 290.208L405.766 290.749Z" fill="#F37453"/>
<path d="M414.801 311.007C414.352 310.607 413.893 310.191 413.453 309.757C407.358 303.901 402.083 295.326 405.746 288.521L424.384 290.209C424.384 290.209 430.137 316.652 424.423 316.524C423.446 316.502 422.088 316.012 420.526 315.15C420.213 314.978 419.891 314.785 419.558 314.58C418.054 313.652 416.423 312.434 414.801 311.007Z" fill="#F37453"/>
<path d="M419.559 314.58L418.807 306.435L419.715 306.384L420.526 315.149C420.213 314.977 419.891 314.785 419.559 314.58Z" fill="#332938"/>
<path d="M414.802 311.007C414.352 310.607 413.893 310.191 413.454 309.757L411.48 303.637L412.35 303.392L414.802 311.007Z" fill="#332938"/>
<path d="M532.82 276.095L534.236 432.912H480.053L478.246 276.094L532.82 276.095Z" fill="#665B6B"/>
<path d="M508.185 296.672H456.414L455.564 273.953H507.335L508.185 296.672Z" fill="#665B6B"/>
<path d="M514.955 432.912H513.695L509.289 271.359L510.471 271.447L514.955 432.912Z" fill="#332938"/>
<path d="M478.44 274.124V274.235L478.401 274.558L478.382 274.676L478.245 276.094L477.64 281.982L477.229 285.718V285.749L476.233 432.824H413.629L425.048 276.094L425.439 274.124H478.44Z" fill="#665B6B"/>
<path d="M468.458 285.441L466.836 285.109L468.722 273.887L470.343 274.217L468.458 285.441Z" fill="#332938"/>
<path d="M425.205 432.824H424.032L436.995 269.116L438.157 269.365L425.205 432.824Z" fill="#332938"/>
<path d="M476.722 286.703L472.638 432.824H471.437L475.549 286.505L476.722 286.703Z" fill="#332938"/>
<path d="M532.82 276.097H425.048L433.185 162.927L458.768 137.295L459.5 136.55L460.36 135.696L461.093 134.974L466.035 130L470.734 129.431L471.799 129.308L483.471 127.893L489.44 131.53L490.417 132.13L491.765 132.944L492.8 133.582L526.891 154.324L529.45 206.846L530.271 223.79L532.82 276.097Z" fill="#FFDA21"/>
<path d="M455.33 105.466L459.784 102.776L459.471 102.294L455.027 104.984L455.33 105.466Z" fill="#F2D59D"/>
<path d="M458.377 84.38C457.293 90.0915 458.318 95.5216 460.673 96.5101C463.017 97.4977 465.801 93.6676 466.885 87.9561C467.969 82.2447 466.944 76.8146 464.59 75.827C462.245 74.8395 459.461 78.6686 458.377 84.38Z" fill="#FAE2D7"/>
<path d="M477.288 77.1788C472.775 80.1366 470.07 84.5147 471.252 86.9577C472.424 89.4007 477.034 88.9846 481.547 86.0278C486.06 83.07 488.756 78.6919 487.584 76.2489C486.402 73.8059 481.801 74.222 477.288 77.1788Z" fill="#FAE2D7"/>
<path d="M484.565 83.2019C478.509 83.7352 473.762 85.8413 473.957 87.9062C474.152 89.9712 479.222 91.2137 485.278 90.6804C491.335 90.147 496.092 88.0411 495.896 85.9761C495.701 83.9111 490.631 82.6685 484.565 83.2019Z" fill="#FAE2D7"/>
<path d="M485.493 88.5931C479.603 86.7948 474.338 86.9237 473.742 88.8813C473.146 90.8388 477.444 93.8835 483.344 95.6819C489.234 97.4802 494.499 97.3512 495.095 95.3937C495.691 93.4361 491.393 90.3914 485.493 88.5931Z" fill="#FAE2D7"/>
<path d="M468.839 135.164L473.908 139.557L464.863 144.185L462.9 136.894L468.839 135.164Z" fill="#575159"/>
<path d="M466.797 129.392L468.839 135.164L485.445 129.392L484.634 107.687H465.986L466.797 129.392Z" fill="#F37453"/>
<path d="M466.484 120.994L477.903 119.573L466.69 126.576L466.484 120.994Z" fill="#332938"/>
<path d="M466.201 122.587L484.39 119.408L483.657 99.891C483.383 92.7583 477.112 86.9765 469.64 86.9765C462.167 86.9765 456.326 92.7583 456.589 99.891L457.166 115.271C457.371 120.608 461.249 123.539 466.201 122.587Z" fill="#F37453"/>
<path d="M477.444 103.608C477.444 103.608 478.05 109.991 475.784 112.793C473.508 115.594 466.66 114.287 466.66 114.287C466.66 114.287 465.127 116.172 462.821 116.686C460.135 117.283 459.578 114.45 459.578 114.45L458.328 113.262C458.328 113.262 452.018 119.658 457.869 123.344C465.723 128.297 476.839 123.262 479.623 119.831C482.407 116.399 480.297 103.608 480.297 103.608H477.444Z" fill="#FAE2D7"/>
<path d="M462.724 110.11C462.099 111.347 463.837 113.65 466.611 115.255C469.376 116.861 472.131 117.16 472.756 115.924C473.381 114.687 471.632 112.384 468.868 110.779C466.094 109.173 463.339 108.874 462.724 110.11Z" fill="#FAE2D7"/>
<path d="M464.042 110.117C464.736 111.282 463.261 113.425 460.76 114.903C458.26 116.381 455.681 116.634 454.987 115.468C454.294 114.303 455.769 112.161 458.27 110.683C460.77 109.205 463.359 108.952 464.042 110.117Z" fill="#FAE2D7"/>
<path d="M477.454 103.938H487.418L486.812 87.8145H476.858L477.454 103.938Z" fill="#FAE2D7"/>
<path d="M456.717 103.372L456.98 110.426C457.244 110.503 457.518 110.547 457.791 110.547C459.569 110.547 460.956 108.911 460.878 106.899C460.8 104.876 459.295 103.25 457.518 103.25C457.244 103.25 456.971 103.295 456.717 103.372Z" fill="#C75450"/>
<path d="M469.581 107.01C469.659 109.145 471.457 110.875 473.586 110.875C475.725 110.875 477.396 109.145 477.308 107.01C477.23 104.875 475.432 103.144 473.303 103.144C471.164 103.144 469.503 104.875 469.581 107.01Z" fill="#C75450"/>
<path d="M469.718 103.608C469.737 104.283 470.304 104.829 470.978 104.829C471.652 104.829 472.18 104.283 472.16 103.608C472.131 102.934 471.564 102.387 470.89 102.387C470.216 102.387 469.689 102.934 469.718 103.608Z" fill="#332938"/>
<path d="M459.032 103.608C459.051 104.283 459.618 104.829 460.292 104.829C460.966 104.829 461.493 104.283 461.474 103.608C461.444 102.934 460.878 102.387 460.204 102.387C459.53 102.387 459.002 102.934 459.032 103.608Z" fill="#332938"/>
<path d="M463.232 109.325C463.291 109.325 463.349 109.321 463.408 109.311L465.626 109.325L465.596 108.348L463.115 108.317V108.286L463.076 108.158L463.027 106.897L462.05 106.902L462.099 108.162C462.07 108.447 462.207 108.781 462.47 109.021C462.685 109.22 462.949 109.325 463.232 109.325Z" fill="#332938"/>
<path d="M465.655 79.2926C462.392 84.0341 461.21 89.3519 463.017 91.1697C464.834 92.9876 468.937 90.6178 472.199 85.8773C475.462 81.1359 476.634 75.8181 474.827 74.0003C473.02 72.1814 468.917 74.5512 465.655 79.2926Z" fill="#FAE2D7"/>
<path d="M470.754 109.682C470.451 109.779 470.128 109.832 469.787 109.832C468.399 109.832 467.169 108.936 466.68 107.687C466.553 107.354 466.475 107 466.465 106.627C466.397 104.86 467.784 103.422 469.552 103.422C469.601 103.422 469.669 103.422 469.718 103.426C470.226 103.454 470.705 103.599 471.134 103.831C471.408 103.985 471.662 104.177 471.887 104.402C472.463 104.98 472.834 105.763 472.873 106.627C472.883 107 472.834 107.354 472.727 107.687C472.434 108.634 471.701 109.378 470.754 109.682ZM473.02 105.048C472.932 104.872 472.834 104.704 472.727 104.542C472.551 104.302 472.356 104.08 472.141 103.884C471.994 103.751 471.838 103.627 471.662 103.515C471.154 103.173 470.558 102.948 469.923 102.884C469.796 102.872 469.66 102.864 469.533 102.864C467.911 102.864 466.573 103.884 466.094 105.314C466.026 105.49 465.987 105.671 465.957 105.86C465.908 106.109 465.889 106.366 465.899 106.627C465.918 106.996 465.977 107.35 466.094 107.687C466.612 109.249 468.106 110.39 469.806 110.39C470.324 110.39 470.802 110.289 471.242 110.1C472.268 109.667 473.039 108.779 473.323 107.687C473.41 107.35 473.449 106.996 473.43 106.627C473.41 106.06 473.264 105.526 473.02 105.048Z" fill="#F2D59D"/>
<path d="M459.041 103.671C458.973 103.635 458.905 103.595 458.836 103.563C458.768 103.531 458.699 103.498 458.631 103.471L458.26 103.696C458.533 103.703 458.807 103.744 459.061 103.82C459.051 103.772 459.041 103.724 459.041 103.671ZM459.041 103.671C458.973 103.635 458.905 103.595 458.836 103.563C458.768 103.531 458.699 103.498 458.631 103.471L458.26 103.696C458.533 103.703 458.807 103.744 459.061 103.82C459.051 103.772 459.041 103.724 459.041 103.671ZM459.041 103.671C458.973 103.635 458.905 103.595 458.836 103.563C458.768 103.531 458.699 103.498 458.631 103.471L458.26 103.696C458.533 103.703 458.807 103.744 459.061 103.82C459.051 103.772 459.041 103.724 459.041 103.671ZM459.041 103.671C458.973 103.635 458.905 103.595 458.836 103.563C458.768 103.531 458.699 103.498 458.631 103.471L458.26 103.696C458.533 103.703 458.807 103.744 459.061 103.82C459.051 103.772 459.041 103.724 459.041 103.671ZM459.667 109.84C459.286 110.008 458.865 110.101 458.416 110.101C457.898 110.101 457.41 109.976 456.961 109.755C455.896 109.225 455.144 108.145 455.095 106.9C455.075 106.366 455.183 105.864 455.407 105.423C455.691 104.828 456.16 104.342 456.746 104.04C457.176 103.82 457.664 103.696 458.172 103.696H458.26C458.533 103.703 458.807 103.744 459.061 103.82C459.188 103.856 459.325 103.905 459.451 103.96H459.461C459.901 104.149 460.292 104.43 460.614 104.784C461.141 105.35 461.464 106.089 461.503 106.9C461.552 108.217 460.79 109.349 459.667 109.84ZM461.864 105.824C461.806 105.643 461.728 105.467 461.64 105.298C461.493 105.012 461.317 104.748 461.112 104.506C460.585 103.896 459.871 103.447 459.071 103.245C459.061 103.241 459.041 103.238 459.022 103.234C458.738 103.169 458.445 103.133 458.152 103.133H458.084C457.752 103.141 457.439 103.19 457.137 103.278L457.127 103.281C457.127 103.281 457.117 103.281 457.107 103.281C456.98 103.323 456.853 103.366 456.726 103.422C455.378 103.989 454.47 105.334 454.528 106.9C454.587 108.466 455.603 109.808 456.98 110.373H456.99C457.117 110.43 457.244 110.474 457.381 110.514H457.39H457.4L457.41 110.519C457.693 110.599 457.996 110.651 458.309 110.658C458.358 110.662 458.387 110.662 458.436 110.662C459.491 110.662 460.419 110.23 461.073 109.534L461.083 109.53C461.669 108.916 462.03 108.092 462.06 107.177V107.089C462.06 107.085 462.06 107.085 462.06 107.08C462.06 107.076 462.06 107.076 462.06 107.072C462.06 107.017 462.06 106.956 462.06 106.9C462.05 106.526 461.982 106.165 461.864 105.824ZM459.041 103.671C458.973 103.635 458.905 103.595 458.836 103.563C458.768 103.531 458.699 103.498 458.631 103.471L458.26 103.696C458.533 103.703 458.807 103.744 459.061 103.82C459.051 103.772 459.041 103.724 459.041 103.671ZM459.041 103.671C458.973 103.635 458.905 103.595 458.836 103.563C458.768 103.531 458.699 103.498 458.631 103.471L458.26 103.696C458.533 103.703 458.807 103.744 459.061 103.82C459.051 103.772 459.041 103.724 459.041 103.671ZM459.041 103.671C458.973 103.635 458.905 103.595 458.836 103.563C458.768 103.531 458.699 103.498 458.631 103.471L458.26 103.696C458.533 103.703 458.807 103.744 459.061 103.82C459.051 103.772 459.041 103.724 459.041 103.671ZM459.041 103.671C458.973 103.635 458.905 103.595 458.836 103.563C458.768 103.531 458.699 103.498 458.631 103.471L458.26 103.696C458.533 103.703 458.807 103.744 459.061 103.82C459.051 103.772 459.041 103.724 459.041 103.671ZM459.041 103.671C458.973 103.635 458.905 103.595 458.836 103.563C458.768 103.531 458.699 103.498 458.631 103.471L458.26 103.696C458.533 103.703 458.807 103.744 459.061 103.82C459.051 103.772 459.041 103.724 459.041 103.671Z" fill="#F2D59D"/>
<path d="M461.581 105.956L463.456 105.083C463.691 104.968 463.974 104.967 464.228 105.083L466.172 105.956L466.387 105.445L464.443 104.572C464.042 104.392 463.583 104.392 463.202 104.572L461.327 105.445L461.581 105.956Z" fill="#F2D59D"/>
<path d="M472.688 105.141L483.452 102.155L483.286 101.614L472.522 104.599L472.688 105.141Z" fill="#F2D59D"/>
<path d="M480.15 105.224C480.277 108.632 483.139 111.396 486.548 111.396C489.957 111.396 492.614 108.632 492.487 105.224C492.36 101.816 489.498 99.0538 486.089 99.0538C482.68 99.0538 480.023 101.816 480.15 105.224Z" fill="#F37453"/>
<path d="M485.161 124.635L468.839 135.164L473.059 143.39L490.739 131.863L485.161 124.635Z" fill="#68616B"/>
<path d="M468.838 135.164L466.689 126.576L461.835 132.55L460.428 141.054L468.838 135.164Z" fill="#68616B"/>
<path d="M525.797 276.095L514.496 222.643L516.029 276.096L525.797 276.095Z" fill="#F18D4F"/>
<path d="M551.253 292.419L554.134 225.399C552.288 212.758 543.184 204.019 530.817 206.518C519.184 208.866 513.587 220.271 516.38 231.989L530.183 296.672L551.253 292.419Z" fill="#F37453"/>
<path d="M540.674 311.171C541.152 310.843 541.641 310.5 542.12 310.137C548.625 305.248 554.545 297.533 551.448 290.209L528.884 291.206C528.884 291.206 524.986 314.433 530.671 315.182C531.648 315.31 533.035 315.029 534.657 314.412C534.979 314.288 535.321 314.146 535.663 313.994C537.226 313.302 538.945 312.341 540.674 311.171Z" fill="#F37453"/>
<path d="M535.662 313.994L537.049 306.013L536.151 305.824L534.656 314.412C534.979 314.288 535.321 314.146 535.662 313.994Z" fill="#332938"/>
<path d="M540.674 311.171C541.152 310.843 541.641 310.5 542.119 310.136L544.562 304.356L543.712 303.978L540.674 311.171Z" fill="#332938"/>
<path d="M492.722 244.235L491.823 243.645L504.043 224.493L504.942 225.083L492.722 244.235Z" fill="#F18D4F"/>
<path d="M494.578 251.66L493.66 251.103L506.085 229.973L506.993 230.531L494.578 251.66Z" fill="#F18D4F"/>
<path d="M476.829 296.672L455.955 284.295H487.418L476.829 296.672Z" fill="#332938"/>
<path d="M514.7 230.055L506.612 184.121L507.775 183.958L515.863 229.893L514.7 230.055Z" fill="#F18D4F"/>
<path d="M508.097 191.513L501.708 187.085L502.353 186.121L508.751 190.549L508.097 191.513Z" fill="#F18D4F"/>
<path d="M561.558 423.516C562.916 422.646 564.557 423.428 565.944 425.596C567.175 427.52 567.145 430.695 567.057 432.141C565.709 431.613 562.818 430.295 561.597 428.37C560.21 426.202 560.2 424.385 561.558 423.516ZM568.093 433.772L568.181 433.049C568.21 432.844 568.806 427.853 566.95 424.951C564.85 421.66 562.457 421.533 560.913 422.509C559.38 423.496 558.481 425.713 560.591 429.015C562.437 431.916 567.204 433.479 567.409 433.547L568.093 433.772Z" fill="#CF837E"/>
<path d="M566.266 433.938C565.788 434.348 565.036 434.954 564.147 435.52C562.74 436.419 561.47 436.927 560.386 437.015C557.817 437.23 556.205 436.39 556.068 434.778C555.942 433.186 557.407 432.082 559.956 431.867C562.232 431.681 565.036 433.186 566.266 433.938ZM564.792 436.536C566.433 435.481 567.624 434.329 567.673 434.28L568.191 433.772L567.595 433.362C567.419 433.235 563.287 430.392 559.859 430.675C556.586 430.949 554.691 432.619 554.877 434.885C555.033 436.702 556.586 438.529 560.484 438.207C561.763 438.099 563.219 437.533 564.792 436.536Z" fill="#CF837E"/>
<path d="M556.831 460.224L603.718 451.433L594.79 403.803L564.215 409.528L567.488 427.022C568.924 434.671 566.198 437.103 560.933 442.3C556.919 446.266 556.108 451.404 556.176 455.164C556.186 455.594 556.206 455.995 556.225 456.376C556.391 458.681 556.831 460.224 556.831 460.224Z" fill="#FAE2D7"/>
<path d="M567.487 427.022L598.071 421.298L592.2 389.981L561.626 395.705L567.487 427.022Z" fill="#F37453"/>
<path d="M596.235 411.481L565.348 415.594L561.626 395.706L596.235 411.481Z" fill="#332938"/>
<path d="M556.176 455.164C556.186 455.594 556.205 455.995 556.225 456.376L602.995 447.613L602.78 446.441L556.176 455.164Z" fill="#CF837E"/>
<path d="M590.335 449.382L591.507 449.157L591.097 446.949C589.915 440.678 594.066 434.612 600.347 433.44L600.122 432.258C593.197 433.557 588.625 440.248 589.914 447.174L590.335 449.382Z" fill="#CF837E"/>
<path d="M534.276 388.028C534.276 388.028 573.212 422.304 631.498 408.423C662.121 401.127 698.957 375.368 698.957 375.368L695.079 369.048L694.376 367.905L657.139 311.345L654.219 219.56L585.334 219.559C585.334 219.559 542.52 267.722 538.613 300.467C534.715 333.212 534.471 378.709 534.471 378.709L534.422 380.75L534.276 388.028Z" fill="#332938"/>
<path d="M585.334 219.559L655.088 238.454V219.559H585.334Z" fill="#332938"/>
<path d="M534.422 380.75C538.007 383.505 548.967 389.63 561.743 394.758C572.273 398.988 587.062 403.08 604.85 403.08C613.436 403.08 622.716 402.123 632.562 399.779C657.461 393.85 685.633 375.593 695.079 369.048L694.375 367.905C685.281 374.216 657.266 392.668 632.289 398.616C602.34 405.747 577.636 399.847 562.193 393.644C549.084 388.389 537.723 381.258 534.471 378.709L534.422 380.75Z" fill="#D69CA6"/>
<path d="M623.722 119.116C623.722 119.116 608.728 118.228 607.751 129.677C606.774 141.125 597.104 136.459 597.104 136.459L623.722 119.116Z" fill="#FAE2D7"/>
<path d="M622.883 114.864C622.883 123.74 630.082 130.935 638.961 130.935C647.831 130.935 655.03 123.74 655.03 114.864C655.03 105.987 647.831 98.791 638.961 98.791C630.082 98.791 622.883 105.987 622.883 114.864Z" fill="#FAE2D7"/>
<path d="M610.409 130.935C610.409 138.14 616.533 143.982 624.084 143.982C631.635 143.982 637.75 138.14 637.75 130.935C637.75 123.73 631.635 117.889 624.084 117.889C616.533 117.889 610.409 123.73 610.409 130.935Z" fill="#FAE2D7"/>
<path d="M617.1 155.806H631.058V139.557H617.1V155.806Z" fill="#F37453"/>
<path d="M617.1 149.519L625.696 148.455L617.1 153.698V149.519Z" fill="#332938"/>
<path d="M630.55 149.429V132.634C630.55 126.855 626.018 122.171 620.421 122.171C614.823 122.171 610.291 126.855 610.291 132.634V142.767C610.291 155.119 630.55 149.429 630.55 149.429Z" fill="#F37453"/>
<path d="M619.249 144.939H617.324V144.341H619.249V144.939Z" fill="#332938"/>
<path d="M610.291 136.327V141.607C610.477 141.665 610.682 141.699 610.887 141.699C612.215 141.699 613.299 140.474 613.299 138.967C613.299 137.452 612.215 136.236 610.887 136.236C610.682 136.236 610.477 136.269 610.291 136.327Z" fill="#C75450"/>
<path d="M629.925 134.2H631.058V119.902H617.1V121.379C617.1 128.46 622.843 134.2 629.925 134.2Z" fill="#FAE2D7"/>
<path d="M620.011 139.05C620.011 140.648 621.31 141.944 622.902 141.944C624.504 141.944 625.803 140.648 625.803 139.05C625.803 137.451 624.504 136.156 622.902 136.156C621.31 136.156 620.011 137.451 620.011 139.05Z" fill="#C75450"/>
<path d="M620.011 136.504C620.011 137.008 620.421 137.417 620.929 137.417C621.427 137.417 621.837 137.008 621.837 136.504C621.837 135.999 621.427 135.59 620.929 135.59C620.421 135.59 620.011 135.999 620.011 136.504Z" fill="#332938"/>
<path d="M612.011 136.504C612.011 137.008 612.421 137.417 612.929 137.417C613.427 137.417 613.837 137.008 613.837 136.504C613.837 135.999 613.427 135.59 612.929 135.59C612.421 135.59 612.011 135.999 612.011 136.504Z" fill="#332938"/>
<path d="M615.84 140.784C615.879 140.784 615.928 140.78 615.967 140.773L617.998 140.442L617.881 139.721L615.849 140.051L615.859 140.029L615.752 139.91V138.165L615.019 138.166V139.911C615 140.126 615.088 140.377 615.273 140.556C615.43 140.704 615.625 140.784 615.84 140.784Z" fill="#332938"/>
<path d="M574.442 219.559H654.219V180.933L651.191 176.566L649.051 182.812C649.051 182.812 631.312 176.572 609.109 174.579C598.159 173.598 590.462 174.43 585.383 175.59L585.344 175.632C584.552 176.488 583.839 177.445 583.234 178.468C582.96 178.911 582.706 179.371 582.481 179.838C581.153 182.555 580.43 185.683 580.43 188.909L574.442 219.559Z" fill="#FAE2D7"/>
<path d="M585.383 175.59C586.857 175.255 588.547 174.944 590.481 174.699C591.654 174.549 592.904 174.424 594.252 174.328C598.335 174.047 603.258 174.052 609.109 174.579C613.866 175.004 618.409 175.626 622.619 176.338C623.722 176.524 624.807 176.715 625.862 176.913C630.013 177.69 633.764 178.534 636.987 179.335C644.441 181.19 649.051 182.812 649.051 182.812L651.19 176.566L640.934 161.823C640.172 160.729 639.381 159.765 638.521 158.958C637.828 158.282 637.105 157.719 636.343 157.258C636.274 157.216 636.206 157.18 636.147 157.145C634.624 156.271 632.953 155.805 631.058 155.805H617.1L598.696 167.28V167.286L592.865 170.924L585.383 175.59Z" fill="#FAE2D7"/>
<path d="M547.648 189.391H625.803V248.409H547.648V189.391Z" fill="#A35A5F"/>
<path d="M597.3 248.409H547.648V189.391H597.3V248.409Z" fill="#BA968D"/>
<path d="M586.701 218.156H556.156V207.858H586.701V218.156Z" fill="#3D77FF"/>
<path d="M586.701 228.453H556.156V218.156H586.701V228.453Z" fill="#FFDA21"/>
<path d="M575.536 200.164H565.563V189.391H575.536V200.164Z" fill="#FAE2D7"/>
<path d="M620.567 194.778H623.635V191.708H620.567V194.778Z" fill="#332938"/>
<path d="M613.593 194.778H616.67V191.708H613.593V194.778Z" fill="#332938"/>
<path d="M683.631 215.892H617.989C617.989 215.892 629.652 254.345 664.27 245.694C688.437 239.655 683.631 215.892 683.631 215.892Z" fill="#F37453"/>
<path d="M622.882 211.98C622.882 211.98 609.862 221.839 611.805 223.452C613.739 225.065 624.973 216.317 624.973 216.317L622.882 211.98Z" fill="#F37453"/>
<path d="M618.135 215.88L633.608 225.114L639.625 217.143C639.625 217.143 631.527 202.754 618.057 202.932L618.135 215.88Z" fill="#F37453"/>
<path d="M624.23 205.7C624.23 205.7 603.17 216.091 605.446 218.389C607.732 220.688 626.369 211.499 626.369 211.499L624.23 205.7Z" fill="#F37453"/>
<path d="M618.057 202.932C612.968 203.194 598.501 211.793 600.533 213.839C602.565 215.885 621.183 207.566 621.183 207.566L618.057 202.932Z" fill="#A35A5F"/>
<path d="M618.057 202.932C612.968 203.194 598.501 211.793 600.533 213.839C602.565 215.885 621.183 207.566 621.183 207.566L618.057 202.932Z" fill="#F37453"/>
<path d="M613.28 361.175L614.189 360.403L570.643 309.358L569.734 310.134L613.28 361.175Z" fill="#D69CA6"/>
<path d="M580.997 335.33L581.885 334.531L551.526 300.682L550.637 301.481L580.997 335.33Z" fill="#D69CA6"/>
<path d="M572.713 361.116L573.719 360.462L549.485 323.757L548.488 324.417L572.713 361.116Z" fill="#D69CA6"/>
<path d="M626.38 224.464C628.392 224.464 629.496 223.895 629.564 223.862L629.056 222.906C629.037 222.914 627.249 223.809 624.035 223.122C620.939 222.459 620.167 220.097 620.138 219.996L619.102 220.308C619.141 220.433 620.06 223.377 623.811 224.179C624.787 224.387 625.647 224.464 626.38 224.464Z" fill="#332938"/>
<path d="M331.079 300.758L366.713 286.398C373.56 285.84 379.411 291.276 379.353 298.143C379.304 304.599 374.029 309.79 367.572 309.737L330.024 309.94L331.079 300.758Z" fill="#F37453"/>
<path d="M328.636 303.456C328.636 305.319 330.844 306.829 333.569 306.829C336.295 306.829 338.502 305.319 338.502 303.456C338.502 301.593 336.295 300.083 333.569 300.083C330.844 300.083 328.636 301.593 328.636 303.456Z" fill="#F37453"/>
<path d="M329.985 301.163C329.985 301.163 316.104 311.268 317.901 312.396C319.709 313.523 332.221 304.55 332.221 304.55L329.985 301.163Z" fill="#F37453"/>
<path d="M330.414 301.485C330.414 301.485 323.098 317.021 325.218 317.142C327.347 317.264 333.999 303.379 333.999 303.379L330.414 301.485Z" fill="#F37453"/>
<path d="M333.052 301.779C333.052 301.779 333.443 313.289 335.416 312.494C337.379 311.699 337.106 301.96 337.106 301.96L333.052 301.779Z" fill="#F37453"/>
<path d="M328.49 302.657C328.49 302.657 317.95 316.212 319.992 316.796C322.043 317.381 331.577 305.292 331.577 305.292L328.49 302.657Z" fill="#F37453"/>
<path d="M328.451 305.577L329.047 303.389L328.471 303.23L327.875 305.418L328.451 305.577Z" fill="#332938"/>
<path d="M335.475 312.802C335.582 312.802 335.719 312.77 335.856 312.664C336.979 311.811 337.36 305.797 337.419 304.599L336.813 304.567C336.608 308.566 335.983 312.061 335.475 312.2C334.82 312.057 334.117 308.661 333.814 307.21C333.453 305.465 333.394 305.197 333.052 305.197C332.837 305.197 332.554 305.197 330.532 309.456L331.079 309.713C331.753 308.288 332.544 306.744 332.954 306.078C333.033 306.407 333.13 306.889 333.228 307.333C333.843 310.296 334.39 312.579 335.348 312.789C335.387 312.796 335.426 312.802 335.475 312.802Z" fill="#332938"/>
<path d="M326.321 311.94L327.591 308.651L327.035 308.433L325.755 311.723L326.321 311.94Z" fill="#332938"/>
<path d="M323.059 310.656L324.856 308.06L324.358 307.717L322.561 310.313L323.059 310.656Z" fill="#332938"/>
<path d="M358.928 434.573C359.465 436.429 361.487 438.187 362.444 438.949C362.864 437.796 363.655 435.227 363.128 433.371C362.532 431.281 361.389 430.255 360.07 430.626C358.762 431.007 358.332 432.473 358.928 434.573ZM359.797 429.65C361.282 429.23 363.196 429.913 364.105 433.098C364.124 433.156 364.134 433.225 364.144 433.293C364.232 433.615 364.271 433.948 364.3 434.28C364.476 436.878 363.206 439.808 363.138 439.955L362.913 440.482L362.893 440.522L362.405 440.18L362.386 440.17C362.278 440.092 360.295 438.714 358.967 436.849C358.527 436.224 358.156 435.55 357.961 434.846C357.052 431.672 358.312 430.079 359.797 429.65Z" fill="#CF837E"/>
<path d="M355.86 441.284C356.759 441.469 357.912 441.372 359.27 440.981C360.119 440.747 360.881 440.424 361.37 440.209C360.549 439.301 358.654 437.406 356.759 437.015C354.64 436.566 353.184 437.103 352.911 438.432C352.627 439.77 353.731 440.835 355.86 441.284ZM351.914 438.226C352.305 436.341 354.239 435.452 356.964 436.019C357.658 436.165 358.332 436.468 358.967 436.849C360.823 437.953 362.298 439.701 362.552 440.014C362.571 440.043 362.581 440.063 362.591 440.063L362.913 440.483L362.972 440.541L362.425 440.825C362.386 440.844 361.8 441.157 360.92 441.499H360.911C360.51 441.655 360.041 441.811 359.543 441.958C358.029 442.388 356.72 442.495 355.655 442.28C352.412 441.596 351.592 439.731 351.914 438.226Z" fill="#CF837E"/>
<path d="M341.003 460.224H390.459V383.085H364.144V434.28C364.144 442.661 358.263 442.739 350.243 444.947C343.894 446.695 341.862 452.039 341.228 455.917C341.169 456.268 341.13 456.61 341.091 456.932C340.876 458.857 341.003 460.224 341.003 460.224Z" fill="#FAE2D7"/>
<path d="M364.144 434.28H390.46V351.416H364.144V434.28Z" fill="#F37453"/>
<path d="M341.091 456.932H390.459V455.916H341.228C341.169 456.268 341.13 456.61 341.091 456.932Z" fill="#CF837E"/>
<path d="M406.01 239.357C406.01 243.151 402.933 246.226 399.143 246.226C395.353 246.226 392.276 243.151 392.276 239.357C392.276 235.563 395.353 232.488 399.143 232.488C402.933 232.488 406.01 235.563 406.01 239.357Z" fill="#332938"/>
<path d="M386.327 239.442C386.327 243.235 383.25 246.31 379.46 246.31C375.67 246.31 372.593 243.235 372.593 239.442C372.593 235.648 375.67 232.573 379.46 232.573C383.25 232.573 386.327 235.648 386.327 239.442Z" fill="#332938"/>
<path d="M378.229 231.275C378.229 236.865 382.977 241.397 388.838 241.397C394.689 241.397 399.436 236.865 399.436 231.275C399.436 225.685 394.689 221.154 388.838 221.154C382.977 221.154 378.229 225.685 378.229 231.275Z" fill="#332938"/>
<path d="M384.217 252.525H396.379V238.374H384.217V252.525Z" fill="#F37453"/>
<path d="M384.217 247.05L391.7 246.124L384.217 250.69V247.05Z" fill="#332938"/>
<path d="M384.002 247.358L395.929 246.015V233.115C395.929 228.465 391.983 224.695 387.109 224.695C382.234 224.695 378.288 228.465 378.288 233.115V241.855C378.288 245.336 380.349 247.588 384.002 247.358Z" fill="#F37453"/>
<path d="M383.436 242.213H385.36V241.615H383.436V242.213Z" fill="#332938"/>
<path d="M394.083 229.045H392.032C390.635 229.045 389.502 227.912 389.502 226.515V223.194H394.083V229.045Z" fill="#332938"/>
<path d="M378.278 235.561V240.159C378.444 240.21 378.63 240.24 378.806 240.24C379.968 240.24 380.906 239.172 380.906 237.86C380.906 236.541 379.968 235.481 378.806 235.481C378.63 235.481 378.444 235.511 378.278 235.561Z" fill="#C75450"/>
<path d="M395.929 234.919H392.823V226.7H395.929V234.919Z" fill="#332938"/>
<path d="M393.311 236.511C393.311 238.733 395.108 240.535 397.335 240.535C399.553 240.535 401.36 238.733 401.36 236.511C401.36 234.289 399.553 232.488 397.335 232.488C395.108 232.488 393.311 234.289 393.311 236.511Z" fill="#F37453"/>
<path d="M386.747 237.932C386.747 239.324 387.88 240.454 389.267 240.454C390.664 240.454 391.788 239.324 391.788 237.932C391.788 236.54 390.664 235.412 389.267 235.412C387.88 235.412 386.747 236.54 386.747 237.932Z" fill="#C75450"/>
<path d="M386.747 235.715C386.747 236.154 387.109 236.511 387.548 236.511C387.988 236.511 388.339 236.154 388.339 235.715C388.339 235.275 387.988 234.919 387.548 234.919C387.109 234.919 386.747 235.275 386.747 235.715Z" fill="#332938"/>
<path d="M379.783 235.715C379.783 236.154 380.144 236.511 380.584 236.511C381.023 236.511 381.375 236.154 381.375 235.715C381.375 235.275 381.023 234.919 380.584 234.919C380.144 234.919 379.783 235.275 379.783 235.715Z" fill="#332938"/>
<path d="M383.114 239.442C382.928 239.442 382.762 239.373 382.625 239.243C382.459 239.087 382.381 238.869 382.41 238.644L382.625 236.823L383.26 236.898L383.045 238.72L383.182 239.118L382.899 238.827L384.892 238.517L384.999 239.145L383.231 239.433C383.192 239.439 383.153 239.442 383.114 239.442Z" fill="#332938"/>
<path d="M399.143 240.931C399.143 241.929 398.332 242.738 397.336 242.738C396.34 242.738 395.529 241.929 395.529 240.931C395.529 239.933 396.34 239.124 397.336 239.124C398.332 239.124 399.143 239.933 399.143 240.931Z" fill="white"/>
<path d="M424.228 430.441C422.967 429.933 421.717 430.832 420.906 432.854C420.183 434.641 420.701 437.279 421.004 438.47C422.039 437.816 424.237 436.273 424.96 434.485C425.771 432.463 425.497 430.949 424.228 430.441ZM420.389 439.984L420.203 439.398C420.154 439.232 418.884 435.179 419.969 432.483C421.209 429.406 423.173 428.927 424.608 429.503C426.044 430.08 427.129 431.789 425.898 434.866C424.814 437.562 421.092 439.604 420.926 439.691L420.389 439.984Z" fill="#CF837E"/>
<path d="M421.932 439.838C422.401 440.102 423.124 440.492 423.954 440.825C425.263 441.352 426.386 441.577 427.305 441.479C429.473 441.254 430.684 440.317 430.548 438.949C430.411 437.601 429.014 436.917 426.865 437.142C424.941 437.337 422.85 439.017 421.932 439.838ZM423.573 441.762C422.04 441.147 420.877 440.375 420.828 440.346L420.32 440.004L420.75 439.564C420.867 439.437 423.866 436.429 426.758 436.126C429.522 435.843 431.358 436.947 431.554 438.851C431.71 440.385 430.704 442.153 427.412 442.485C426.328 442.602 425.039 442.358 423.573 441.762Z" fill="#CF837E"/>
<path d="M433.879 460.224H393.527V383.085H419.842V434.28C419.842 440.864 422.489 442.466 427.676 445.963C431.632 448.63 433.107 452.781 433.635 455.917C433.693 456.268 433.742 456.61 433.781 456.932C434.006 458.867 433.879 460.224 433.879 460.224Z" fill="#FAE2D7"/>
<path d="M419.842 434.28H393.527V351.416H419.842V434.28Z" fill="#F37453"/>
<path d="M433.635 455.916C433.693 456.268 433.742 456.61 433.781 456.932H393.527V455.916H433.635Z" fill="#CF837E"/>
<path d="M424.306 286.298L409.683 295.532L370.943 295.401L363.568 276.082C363.568 274.509 363.187 271.609 364.163 269.774C365.355 267.55 367.065 264.822 368.247 263.557C368.247 263.557 372.505 259.505 377.106 256.155C380.339 253.8 383.387 251.796 384.354 251.796H395.998C396.115 251.796 396.242 251.796 396.369 251.803C396.389 251.803 396.398 251.811 396.428 251.811H396.447C397.043 251.84 397.639 251.943 398.215 252.118C399.016 252.344 399.778 252.696 400.491 253.157C400.511 253.164 400.521 253.178 400.54 253.186C401.585 253.873 402.533 254.787 403.314 255.914L424.306 286.298Z" fill="#665B6B"/>
<path d="M406.694 294.183L400.247 274.166L400.823 273.982L407.27 293.999L406.694 294.183Z" fill="#332938"/>
<path d="M423.769 372.887H355.782C355.782 372.887 356.7 352.667 358.214 324.933C358.224 324.656 358.244 324.385 358.253 324.115C358.576 318.3 358.918 312.493 359.279 306.935C359.299 306.664 359.318 306.387 359.338 306.116C360.021 295.943 360.764 286.676 361.565 279.874C361.604 279.596 361.633 279.325 361.672 279.054C361.799 278.001 361.936 277.007 362.063 276.093C362.102 275.814 362.141 275.537 362.18 275.273C362.639 272.312 363.098 270.191 363.567 269.152H389.639C391.172 269.152 392.491 270.235 392.794 271.741L393.516 275.273L393.683 276.093L397.639 295.488L406.909 295.525L409.683 295.532C409.683 295.532 410.288 297.369 411.265 301.01C412.525 305.714 414.42 313.436 416.432 324.115C416.491 324.385 416.54 324.656 416.589 324.933C419.148 338.662 421.883 357.131 423.769 372.887Z" fill="#FAE2D7"/>
<path d="M400.54 253.186L389.345 269.151H384.217L396.427 251.811H396.447C397.043 251.84 397.638 251.943 398.215 252.118C399.016 252.344 399.778 252.696 400.491 253.157C400.51 253.164 400.52 253.178 400.54 253.186Z" fill="#FAE2D7"/>
<path d="M377.106 256.155L366.596 269.151H363.568C364.759 266.928 367.065 264.822 368.246 263.557C368.246 263.557 372.505 259.505 377.106 256.155Z" fill="#FAE2D7"/>
<path d="M390.46 377.712L364.144 372.887L390.46 372.877V377.712Z" fill="#332938"/>
<path d="M393.527 377.712L419.402 372.877H393.527V377.712Z" fill="#332938"/>
<path d="M393.682 276.092H362.063C362.102 275.814 362.141 275.537 362.18 275.273H393.516L393.682 276.092Z" fill="#CF837E"/>
<path d="M416.589 324.933H358.214C358.224 324.656 358.244 324.385 358.253 324.115H416.432C416.491 324.385 416.54 324.656 416.589 324.933Z" fill="#CF837E"/>
<path d="M361.673 279.054C361.634 279.325 361.604 279.595 361.565 279.874H386.279V287.136C386.279 290.113 385.595 292.936 384.364 295.445C381.277 301.756 374.781 306.116 367.299 306.116H359.338C359.318 306.387 359.299 306.664 359.279 306.935H367.299C375.241 306.935 382.117 302.224 385.263 295.452C386.445 292.921 387.099 290.106 387.099 287.136V279.054H361.673Z" fill="#CF837E"/>
<path d="M386.767 273.255C386.19 273.255 385.722 272.787 385.722 272.209C385.722 271.632 386.19 271.156 386.767 271.156C387.353 271.156 387.812 271.632 387.812 272.209C387.812 272.787 387.353 273.255 386.767 273.255ZM386.767 270.336C385.741 270.336 384.901 271.177 384.901 272.209C384.901 273.233 385.741 274.074 386.767 274.074C387.802 274.074 388.632 273.233 388.632 272.209C388.632 271.177 387.802 270.336 386.767 270.336Z" fill="#CF837E"/>
<path d="M364.955 272.802C364.378 272.802 363.909 272.333 363.909 271.755C363.909 271.177 364.378 270.709 364.955 270.709C365.531 270.709 366 271.177 366 271.755C366 272.333 365.531 272.802 364.955 272.802ZM364.955 269.891C364.593 269.891 364.271 269.993 363.988 270.168H363.978V270.176C363.44 270.497 363.089 271.082 363.089 271.755C363.089 272.194 363.245 272.604 363.509 272.926C363.841 273.35 364.368 273.62 364.955 273.62C365.99 273.62 366.82 272.787 366.82 271.755C366.82 270.724 365.99 269.891 364.955 269.891Z" fill="#CF837E"/>
<path d="M379.089 302.396L417.507 303.079C424.101 301.156 427.617 293.989 425.117 287.595C422.762 281.583 415.983 278.62 409.966 280.975L376.794 293.971L379.089 302.396Z" fill="#F37453"/>
<path d="M305.769 296.249H377.555V350.459H305.769V296.249Z" fill="#A35A5F"/>
<path d="M351.376 350.459H305.769V296.249H351.376V350.459Z" fill="#DBB1A7"/>
<path d="M341.638 322.672H313.584V313.212H341.638V322.672Z" fill="#3D77FF"/>
<path d="M341.638 332.13H313.584V322.672H341.638V332.13Z" fill="#FFDA21"/>
<path d="M331.381 306.145H322.219V296.249H331.381V306.145Z" fill="#FAE2D7"/>
<path d="M372.74 301.197H375.563V298.378H372.74V301.197Z" fill="#332938"/>
<path d="M366.342 301.197H369.165V298.378H366.342V301.197Z" fill="#332938"/>
<path d="M380.408 291.503C379.47 291.386 378.288 291.286 376.882 291.265C373.023 291.207 367.709 292.52 367.377 293.583C367.241 294.012 369.272 294.5 371.744 294.93C367.309 296.633 361.135 299.242 362.015 300.286C362.884 301.332 368.979 299.723 373.15 298.466C373.15 298.488 373.15 298.512 373.15 298.534C368.588 300.252 361.399 303.214 362.249 304.515C363.118 305.84 370.278 303.911 374.489 302.641C374.596 302.784 374.703 302.921 374.821 303.056C370.435 304.094 365.336 305.546 365.98 306.579C367.084 308.36 381.326 305.741 381.326 305.741L381.316 305.712C385.028 305.333 387.529 302.011 387.529 298.293C387.529 294.44 384.354 291.418 380.408 291.503Z" fill="#F37453"/>
<path d="M380.212 456.2L380.789 456.649L390.459 444.409V443.228L380.212 456.2Z" fill="#CF837E"/>
<path d="M403.832 456.209L393.527 442.778V443.98L403.246 456.639L403.832 456.209Z" fill="#CF837E"/>
<path d="M317.53 174.588C317.53 174.588 321.77 174.494 323.137 178.323C324.505 182.151 331.382 196.504 331.382 196.504H317.384L317.53 174.588Z" fill="#B08376"/>
<path d="M308.758 242.859H264.362C257.417 217.547 272.577 178.818 272.577 178.818C272.773 176.429 274.765 174.588 277.158 174.588H317.53L308.758 242.859Z" fill="#EDBDB2"/>
<path d="M307.293 242.859H317.442V174.588C316.661 174.588 316.006 175.175 315.918 175.951C315.918 175.951 299.097 225.055 307.293 242.859Z" fill="#B08376"/>
<path d="M317.442 242.859H326.419C333.267 231.061 318.976 175.95 318.976 175.95C318.888 175.173 318.224 174.588 317.442 174.588V242.859Z" fill="#9C7064"/>
<path d="M326.419 242.859L317.442 234.565L307.293 242.859H326.419Z" fill="#EDBDB2"/>
<path d="M-24.5259 393.075H82.5725V304.194H-24.5259V393.075Z" fill="#E6E6E6"/>
<path d="M-28.5081 304.182H86.5543V288H-28.5081V304.182Z" fill="#E6E6E6"/>
<path d="M-24.5259 314.587V304.191H82.5725L-24.5259 314.587Z" fill="#DEDEDE"/>
<path d="M42.2211 326.812H15.8256C14.2641 326.812 12.9868 325.534 12.9868 323.973V319.764C12.9868 318.202 14.2641 316.925 15.8256 316.925H42.2211C43.7825 316.925 45.0599 318.202 45.0599 319.764V323.973C45.0599 325.534 43.7825 326.812 42.2211 326.812Z" fill="#D0D0D0"/>
<path d="M-39 502.662H92V391.222H-39V502.662Z" fill="#DBDBDB"/>
<path d="M9.57788 429.559H43.422V391.222H9.57788V429.559Z" fill="#FBFBFB"/>
<path d="M39.6179 495.074H19.4866V492.467H39.6179V495.074Z" fill="#001737"/>
<path d="M24.841 492.467H23.6685V481.35H24.841V492.467Z" fill="#001737"/>
<path d="M24.255 474.004L19.4866 481.35H29.0234L24.255 474.004Z" fill="#001737"/>
<path d="M35.4357 492.467H34.2632V481.35H35.4357V492.467Z" fill="#001737"/>
<path d="M34.8497 474.004L30.0813 481.35H39.6181L34.8497 474.004Z" fill="#001737"/>
<path d="M11.3346 481.35H-4.72461C-4.72461 477.292 -1.12968 474.004 3.30514 474.004C7.73971 474.004 11.3346 477.292 11.3346 481.35Z" fill="#001737"/>
<path d="M-0.0233941 495.517C-0.974708 495.517 -1.85623 495.23 -2.50519 494.712C-3.24665 494.121 -3.63867 493.271 -3.63867 492.257H-2.64738C-2.64738 493.014 -2.36939 493.636 -1.84346 494.057C-1.37644 494.428 -0.730078 494.634 -0.0233941 494.634C1.38429 494.634 2.80949 493.818 2.80949 492.257V476.438H3.80055V492.257C3.80055 494.374 1.8305 495.517 -0.0233941 495.517Z" fill="#001737"/>
<path d="M573.16 283.556H569.394C570.927 283.3 572.512 283.012 574.134 282.697V283.371C573.809 283.434 573.483 283.495 573.16 283.556Z" fill="url(#paint0_linear_144_17304)"/>
<path d="M549.587 283.511L550.157 283.396L598.234 273.801L598.804 273.686L598.936 274.345H598.931L598.944 274.38C599.3 276.168 588.57 279.815 574.979 282.529C561.388 285.243 550.083 285.993 549.724 284.205L549.722 284.169H549.717L549.587 283.511Z" fill="#667487"/>
<path d="M595.068 254.971L598.786 273.6C599.145 275.385 588.415 279.035 574.824 281.746C561.232 284.459 549.925 285.21 549.569 283.424L545.851 264.795L595.068 254.971Z" fill="#337777"/>
<path d="M545.851 264.795L546.421 264.681L594.498 255.085L595.068 254.971L595.2 255.629H595.197L595.208 255.665C595.564 257.453 584.834 261.1 571.243 263.813C557.652 266.524 546.347 267.277 545.988 265.489L545.986 265.451L545.983 265.454L545.851 264.795Z" fill="#667487"/>
<path d="M545.851 264.795C546.207 266.581 557.514 265.83 571.105 263.119C584.696 260.406 595.424 256.759 595.068 254.971C594.712 253.183 583.405 253.936 569.813 256.647C556.222 259.36 545.495 263.007 545.851 264.795Z" fill="#99A2AF"/>
<path d="M551.507 263.666L551.258 263.714C551.281 263.828 551.337 263.93 551.408 264.012C551.535 264.159 551.71 264.258 551.919 264.34C552.237 264.462 552.649 264.543 553.158 264.599C553.666 264.655 554.271 264.68 554.961 264.68C558.587 264.68 564.628 263.948 571.393 262.598C576.652 261.547 581.365 260.321 584.775 259.174C586.479 258.6 587.858 258.048 588.821 257.539C589.305 257.285 589.686 257.046 589.958 256.807C590.096 256.687 590.205 256.567 590.286 256.44C590.368 256.313 590.424 256.171 590.424 256.018C590.424 255.98 590.419 255.939 590.411 255.901V255.899C590.391 255.787 590.335 255.685 590.261 255.604C590.134 255.456 589.961 255.357 589.75 255.276C589.432 255.153 589.022 255.072 588.514 255.016C588.005 254.96 587.4 254.932 586.708 254.932C583.084 254.935 577.044 255.667 570.279 257.018C565.019 258.068 560.304 259.294 556.896 260.441C555.19 261.016 553.814 261.567 552.847 262.074C552.364 262.328 551.985 262.57 551.713 262.809C551.576 262.928 551.464 263.048 551.382 263.175C551.301 263.302 551.248 263.444 551.248 263.597C551.248 263.635 551.25 263.676 551.258 263.717V263.714L551.507 263.666L551.756 263.615V263.597C551.756 263.569 551.766 263.521 551.812 263.45C551.896 263.315 552.1 263.124 552.412 262.918C552.959 262.554 553.824 262.135 554.943 261.692C558.297 260.359 563.928 258.803 570.378 257.516C577.117 256.171 583.147 255.441 586.708 255.441C587.741 255.441 588.567 255.504 589.127 255.624C589.404 255.682 589.617 255.759 589.745 255.833C589.811 255.871 589.854 255.906 589.877 255.934C589.902 255.965 589.91 255.983 589.912 256V255.998L589.915 256.018C589.915 256.046 589.905 256.094 589.859 256.166C589.775 256.3 589.569 256.491 589.256 256.697C588.712 257.061 587.845 257.481 586.728 257.923C583.371 259.253 577.741 260.812 571.293 262.099C564.554 263.444 558.524 264.174 554.961 264.172C553.928 264.174 553.104 264.111 552.545 263.991C552.265 263.933 552.054 263.856 551.924 263.783C551.86 263.745 551.817 263.709 551.792 263.681C551.769 263.65 551.761 263.633 551.759 263.615H551.756L551.507 263.666Z" fill="#667487"/>
<path d="M558.463 262.277L558.214 262.328C558.229 262.414 558.272 262.493 558.328 262.557C558.422 262.664 558.544 262.73 558.684 262.786C558.893 262.867 559.155 262.918 559.475 262.954C559.795 262.989 560.174 263.004 560.607 263.004C562.868 263.004 566.619 262.547 570.823 261.71C574.094 261.056 577.021 260.293 579.142 259.581C580.205 259.223 581.062 258.879 581.67 258.561C581.972 258.401 582.214 258.249 582.395 258.091C582.484 258.012 582.557 257.933 582.616 257.844C582.672 257.755 582.715 257.648 582.715 257.531C582.715 257.498 582.713 257.468 582.705 257.44V257.432V257.437C582.69 257.351 582.646 257.272 582.591 257.208C582.496 257.102 582.374 257.033 582.234 256.98C582.026 256.898 581.764 256.847 581.443 256.812C581.123 256.776 580.744 256.761 580.312 256.761C578.051 256.761 574.3 257.216 570.096 258.055C566.827 258.709 563.898 259.472 561.777 260.184C560.714 260.543 559.856 260.886 559.249 261.204C558.946 261.364 558.704 261.517 558.526 261.674C558.435 261.751 558.361 261.832 558.303 261.921C558.247 262.01 558.203 262.117 558.203 262.234C558.203 262.264 558.206 262.297 558.214 262.328L558.463 262.277L558.712 262.226L558.671 262.234H558.712V262.226L558.671 262.234H558.712H558.702L558.712 262.236V262.234H558.702L558.712 262.236C558.712 262.234 558.72 262.208 558.75 262.17C558.806 262.094 558.941 261.977 559.142 261.852C559.49 261.631 560.034 261.374 560.729 261.102C562.812 260.288 566.258 259.34 570.195 258.554C574.373 257.72 578.114 257.269 580.312 257.269C580.95 257.269 581.459 257.308 581.794 257.381C581.96 257.414 582.084 257.46 582.151 257.498C582.184 257.519 582.201 257.534 582.206 257.542L582.209 257.547L582.234 257.531L582.206 257.537L582.209 257.547L582.234 257.531L582.206 257.537L582.234 257.531H582.206V257.537L582.234 257.531H582.206H582.217L582.206 257.529V257.531H582.217L582.206 257.529C582.206 257.529 582.199 257.554 582.168 257.595C582.112 257.671 581.978 257.788 581.777 257.913C581.428 258.134 580.884 258.391 580.19 258.661C578.107 259.477 574.661 260.426 570.724 261.212C566.545 262.046 562.804 262.496 560.607 262.496C559.968 262.496 559.46 262.458 559.127 262.384C558.959 262.351 558.834 262.305 558.768 262.267C558.735 262.247 558.717 262.231 558.712 262.224L558.709 262.219L558.684 262.234L558.712 262.226L558.709 262.219L558.684 262.234L558.712 262.226L558.463 262.277Z" fill="#667487"/>
<path d="M549.142 281.283C565.413 281.553 581.82 278.279 598.359 271.458L595.854 258.9C580.063 265.248 563.664 268.567 546.634 268.724L549.142 281.283Z" fill="#EAB400"/>
<path d="M557.199 277.994C567.852 277.356 578.221 275.286 588.303 271.786L587.262 266.575C577.143 269.884 566.774 271.954 556.159 272.781L557.199 277.994Z" fill="#BF5A62"/>
<path d="M585.019 262.748C584.984 262.397 585.192 262.061 585.53 261.939L588.313 260.95C588.399 260.919 588.486 260.904 588.572 260.904C588.872 260.904 589.152 261.079 589.277 261.357C587.863 261.845 586.443 262.308 585.019 262.748Z" fill="#71A0A0"/>
<path d="M591.098 270.373H588.021L587.263 266.575C586.797 266.726 586.334 266.876 585.869 267.021L585.03 262.822C585.025 262.799 585.022 262.773 585.02 262.748C586.444 262.308 587.863 261.845 589.277 261.357C589.302 261.41 589.32 261.466 589.333 261.527L591.098 270.373Z" fill="#F0CB4D"/>
<path d="M588.02 270.373H586.538L585.869 267.021C586.334 266.876 586.797 266.726 587.262 266.575L588.02 270.373Z" fill="#D28C91"/>
<path d="M624.323 271.329V290.754C624.323 292.618 613.087 294.129 599.228 294.129C585.368 294.129 574.134 292.618 574.134 290.754V271.329H624.323Z" fill="url(#paint1_linear_144_17304)"/>
<path d="M574.134 289.457H624.323V290.128H624.317L624.323 290.166C624.323 291.987 613.087 293.465 599.228 293.465C585.368 293.465 574.134 291.987 574.134 290.166L574.137 290.128H574.134V289.457Z" fill="#667487"/>
<path d="M624.323 270.372V289.368C624.323 291.189 613.087 292.666 599.228 292.666C585.368 292.666 574.134 291.189 574.134 289.368V270.372H624.323Z" fill="#BF5A62"/>
<path d="M574.134 270.372H624.323V271.044H624.317L624.323 271.079C624.323 272.903 613.087 274.378 599.228 274.378C585.368 274.378 574.134 272.903 574.134 271.079L574.137 271.044H574.134V270.372Z" fill="#667487"/>
<path d="M574.134 270.372C574.134 272.193 585.368 273.671 599.228 273.671C613.087 273.671 624.323 272.193 624.323 270.372C624.323 268.549 613.087 267.071 599.228 267.071C585.368 267.071 574.134 268.549 574.134 270.372Z" fill="#99A2AF"/>
<path d="M579.902 270.372H579.648C579.648 270.527 579.711 270.675 579.803 270.792C579.978 271.013 580.251 271.181 580.614 271.344C581.253 271.626 582.191 271.875 583.389 272.102C586.98 272.778 592.903 273.216 599.61 273.218C605.062 273.218 609.996 272.926 613.58 272.455C615.373 272.221 616.825 271.941 617.845 271.624C618.356 271.463 618.76 271.298 619.055 271.107C619.203 271.013 619.325 270.911 619.419 270.792C619.511 270.675 619.574 270.527 619.574 270.372C619.574 270.215 619.511 270.07 619.419 269.95C619.244 269.729 618.971 269.563 618.605 269.398C617.967 269.118 617.031 268.867 615.833 268.64C612.242 267.964 606.319 267.526 599.61 267.526C594.16 267.526 589.223 267.816 585.642 268.287C583.849 268.523 582.397 268.803 581.375 269.121C580.863 269.279 580.462 269.447 580.167 269.635C580.019 269.731 579.897 269.831 579.803 269.95C579.711 270.07 579.648 270.215 579.648 270.372H579.902H580.156C580.156 270.349 580.164 270.319 580.205 270.263C580.284 270.159 580.495 270.006 580.82 269.864C581.392 269.609 582.308 269.363 583.483 269.141C587.016 268.475 592.926 268.035 599.61 268.035C605.045 268.035 609.963 268.325 613.514 268.79C615.289 269.024 616.721 269.304 617.695 269.607C618.18 269.757 618.552 269.914 618.781 270.065C618.895 270.136 618.974 270.207 619.017 270.263C619.058 270.319 619.063 270.349 619.065 270.372C619.063 270.395 619.058 270.426 619.017 270.482C618.938 270.586 618.727 270.736 618.402 270.878C617.829 271.133 616.914 271.382 615.739 271.603C612.204 272.269 606.296 272.709 599.61 272.709C594.177 272.709 589.259 272.42 585.708 271.952C583.933 271.718 582.499 271.44 581.527 271.138C581.042 270.988 580.67 270.827 580.441 270.68C580.324 270.606 580.248 270.535 580.205 270.482C580.164 270.426 580.156 270.395 580.156 270.372H579.902Z" fill="#667487"/>
<path d="M586.993 270.372H586.738C586.738 270.495 586.789 270.606 586.855 270.693C586.983 270.853 587.163 270.957 587.397 271.064C587.807 271.245 588.392 271.4 589.139 271.54C591.38 271.962 595.057 272.234 599.228 272.234C602.616 272.234 605.68 272.054 607.911 271.761C609.027 271.614 609.933 271.441 610.576 271.242C610.897 271.141 611.153 271.036 611.349 270.909C611.449 270.848 611.532 270.779 611.599 270.693C611.667 270.606 611.716 270.495 611.716 270.372C611.716 270.25 611.667 270.136 611.599 270.052C611.471 269.892 611.291 269.785 611.057 269.681C610.65 269.5 610.062 269.345 609.315 269.203C607.077 268.78 603.397 268.508 599.228 268.508C595.841 268.508 592.774 268.689 590.543 268.981C589.429 269.129 588.524 269.304 587.88 269.503C587.557 269.604 587.3 269.709 587.105 269.833C587.008 269.897 586.924 269.966 586.855 270.052C586.789 270.136 586.738 270.25 586.738 270.372H586.993H587.247H587.224L587.247 270.38V270.372H587.224L587.247 270.38C587.247 270.38 587.26 270.357 587.298 270.324C587.367 270.261 587.522 270.172 587.74 270.088C588.127 269.94 588.709 269.795 589.442 269.665C591.647 269.274 595.212 269.017 599.228 269.017C602.595 269.017 605.647 269.197 607.845 269.487C608.943 269.63 609.829 269.803 610.424 269.988C610.721 270.08 610.945 270.177 611.075 270.263C611.141 270.304 611.181 270.342 611.197 270.362L611.207 270.38L611.23 270.372H611.207V270.38L611.23 270.372H611.207H611.23L611.207 270.362V270.372H611.23L611.207 270.362C611.209 270.365 611.197 270.388 611.159 270.421C611.087 270.484 610.932 270.573 610.714 270.655C610.329 270.805 609.745 270.95 609.012 271.079C606.807 271.471 603.244 271.725 599.228 271.725C595.858 271.725 592.809 271.547 590.609 271.258C589.513 271.113 588.625 270.94 588.03 270.754C587.733 270.662 587.509 270.566 587.379 270.482C587.316 270.441 587.275 270.403 587.257 270.38L587.247 270.362L587.224 270.372H587.247V270.362L587.224 270.372H587.247H586.993Z" fill="#667487"/>
<path d="M574.134 287.185C590.037 290.634 606.767 290.634 624.323 287.185V274.378C607.593 277.511 590.864 277.557 574.134 274.378V287.185Z" fill="#F29A2E"/>
<path d="M582.68 285.538C593.252 286.995 603.824 286.995 614.396 285.538V280.223C603.824 281.489 593.252 281.489 582.68 280.223V285.538Z" fill="#0D3F84"/>
<path d="M610.943 276.224C611.034 275.955 611.271 275.749 611.566 275.706L614.488 275.278C614.526 275.273 614.562 275.271 614.6 275.271C614.925 275.271 615.21 275.474 615.322 275.767C613.862 275.942 612.402 276.095 610.943 276.224Z" fill="#D28C91"/>
<path d="M615.373 283.556H614.396V280.222C613.231 280.362 612.067 280.487 610.902 280.594V276.473C610.902 276.387 610.915 276.303 610.943 276.224C612.402 276.095 613.862 275.942 615.322 275.766C615.355 275.853 615.373 275.947 615.373 276.046V283.556Z" fill="#F6B86D"/>
<path d="M614.396 283.556H610.902V280.594C612.067 280.487 613.231 280.362 614.396 280.222V283.556Z" fill="#5679A9"/>
<path d="M557.471 271.448V290.873C557.471 292.735 546.235 294.246 532.377 294.246C518.516 294.246 507.283 292.735 507.283 290.873V271.448H557.471Z" fill="url(#paint2_linear_144_17304)"/>
<path d="M507.283 289.577H557.471V290.248H557.468L557.471 290.284C557.471 292.107 546.235 293.585 532.377 293.585C518.516 293.585 507.283 292.107 507.283 290.284L507.285 290.248H507.283V289.577Z" fill="#667487"/>
<path d="M557.471 270.492V289.487C557.471 291.308 546.235 292.786 532.377 292.786C518.516 292.786 507.283 291.308 507.283 289.487V270.492H557.471Z" fill="#0D3F84"/>
<path d="M507.283 270.492H557.471V271.161H557.468L557.471 271.199C557.471 273.02 546.235 274.497 532.377 274.497C518.516 274.497 507.283 273.02 507.283 271.199L507.285 271.161H507.283V270.492Z" fill="#667487"/>
<path d="M507.283 270.492C507.283 272.313 518.516 273.79 532.377 273.79C546.235 273.79 557.471 272.313 557.471 270.492C557.471 268.668 546.235 267.191 532.377 267.191C518.516 267.191 507.283 268.668 507.283 270.492Z" fill="#99A2AF"/>
<path d="M513.051 270.492H512.796C512.796 270.647 512.86 270.792 512.951 270.911C513.127 271.133 513.399 271.301 513.765 271.463C514.404 271.746 515.34 271.995 516.537 272.221C520.128 272.898 526.052 273.335 532.761 273.335C538.211 273.335 543.147 273.045 546.728 272.575C548.521 272.338 549.973 272.058 550.996 271.743C551.507 271.583 551.909 271.415 552.204 271.227C552.351 271.13 552.473 271.031 552.567 270.911C552.659 270.792 552.723 270.647 552.723 270.492C552.723 270.334 552.659 270.189 552.567 270.07C552.392 269.848 552.12 269.681 551.756 269.518C551.118 269.235 550.179 268.986 548.982 268.76C545.39 268.083 539.467 267.646 532.761 267.646C527.308 267.646 522.374 267.936 518.791 268.406C516.998 268.643 515.546 268.923 514.526 269.238C514.014 269.398 513.61 269.566 513.315 269.754C513.168 269.848 513.046 269.95 512.951 270.07C512.86 270.189 512.796 270.334 512.796 270.492H513.051H513.305C513.307 270.469 513.313 270.436 513.353 270.38C513.432 270.276 513.643 270.126 513.969 269.983C514.541 269.729 515.457 269.48 516.631 269.258C520.167 268.592 526.075 268.152 532.761 268.155C538.193 268.155 543.112 268.445 546.662 268.91C548.437 269.144 549.872 269.421 550.843 269.724C551.329 269.876 551.7 270.034 551.929 270.182C552.046 270.255 552.122 270.327 552.166 270.38C552.206 270.436 552.214 270.469 552.214 270.492C552.214 270.512 552.206 270.543 552.166 270.601C552.087 270.705 551.876 270.856 551.55 270.998C550.978 271.252 550.062 271.501 548.887 271.72C545.355 272.387 539.444 272.827 532.761 272.827C527.326 272.827 522.407 272.537 518.857 272.071C517.082 271.837 515.65 271.56 514.676 271.257C514.19 271.105 513.819 270.947 513.59 270.8C513.475 270.726 513.396 270.655 513.353 270.601C513.313 270.543 513.307 270.512 513.305 270.492H513.051Z" fill="#667487"/>
<path d="M520.144 270.492H519.889C519.887 270.614 519.938 270.726 520.004 270.81C520.131 270.97 520.312 271.077 520.546 271.184C520.955 271.362 521.543 271.519 522.29 271.659C524.528 272.081 528.208 272.354 532.377 272.354C535.764 272.354 538.832 272.173 541.059 271.88C542.176 271.733 543.081 271.56 543.725 271.359C544.048 271.26 544.305 271.153 544.5 271.028C544.597 270.965 544.681 270.896 544.75 270.81C544.816 270.726 544.864 270.614 544.864 270.492C544.864 270.367 544.816 270.255 544.75 270.171C544.62 270.011 544.442 269.904 544.208 269.798C543.799 269.62 543.211 269.462 542.463 269.322C540.225 268.9 536.545 268.628 532.377 268.628C528.989 268.628 525.922 268.808 523.692 269.101C522.578 269.248 521.672 269.421 521.029 269.622C520.706 269.721 520.449 269.828 520.253 269.953C520.157 270.016 520.073 270.085 520.004 270.171C519.938 270.255 519.887 270.367 519.889 270.492H520.144H520.398H520.373L520.396 270.5L520.398 270.492H520.373L520.396 270.5C520.396 270.497 520.408 270.474 520.446 270.441C520.518 270.377 520.67 270.291 520.892 270.207C521.276 270.06 521.858 269.912 522.593 269.782C524.795 269.393 528.361 269.136 532.377 269.136C535.747 269.136 538.796 269.317 540.993 269.604C542.092 269.749 542.98 269.922 543.575 270.108C543.87 270.199 544.094 270.296 544.223 270.38C544.289 270.421 544.33 270.459 544.345 270.482L544.358 270.5L544.381 270.492H544.355L544.358 270.5L544.381 270.492H544.355H544.381L544.358 270.482L544.355 270.492H544.381L544.358 270.482C544.358 270.482 544.345 270.507 544.307 270.54C544.236 270.604 544.083 270.69 543.862 270.774C543.478 270.922 542.896 271.069 542.161 271.199C539.958 271.588 536.393 271.845 532.377 271.845C529.007 271.845 525.958 271.664 523.76 271.377C522.662 271.232 521.774 271.059 521.179 270.873C520.884 270.782 520.66 270.685 520.528 270.601C520.464 270.558 520.424 270.522 520.408 270.5L520.396 270.482L520.373 270.492H520.398L520.396 270.482L520.373 270.492H520.398H520.144Z" fill="#667487"/>
<path d="M507.283 287.305C523.185 290.754 539.915 290.754 557.471 287.305V274.497C540.741 277.631 524.012 277.676 507.283 274.497V287.305Z" fill="#6EA665"/>
<path d="M515.828 285.655C526.4 287.114 536.973 287.114 547.545 285.655V280.342C536.973 281.606 526.4 281.606 515.828 280.342V285.655Z" fill="#F29A2E"/>
<path d="M545.999 276.161V275.894C545.999 275.507 546.281 275.182 546.662 275.126L549.585 274.698C549.623 274.693 549.661 274.691 549.696 274.691C550.116 274.691 550.472 275.032 550.472 275.466V275.629C548.979 275.83 547.489 276.008 545.999 276.161Z" fill="#5679A9"/>
<path d="M550.472 283.556H547.545V280.342C547.029 280.403 546.515 280.461 545.999 280.517V276.161C547.489 276.008 548.979 275.83 550.472 275.629V283.556Z" fill="#9AC194"/>
<path d="M547.545 283.556H545.999V280.517C546.515 280.461 547.029 280.403 547.545 280.342V283.556Z" fill="#F6B86D"/>
<path d="M503 387.303H628.865V283.559H503V387.303Z" fill="#E6E6E6"/>
<path d="M581.726 309.96H550.139C548.46 309.96 547.087 308.587 547.087 306.908V301.471C547.087 299.792 548.46 298.419 550.139 298.419H581.726C583.404 298.419 584.778 299.792 584.778 301.471V306.908C584.778 308.587 583.404 309.96 581.726 309.96Z" fill="#D0D0D0"/>
<path d="M616.861 377.023H593.115C591.437 377.023 590.063 375.65 590.063 373.972V354.221C590.063 352.542 591.437 351.169 593.115 351.169H616.861C618.54 351.169 619.913 352.542 619.913 354.221V373.972C619.913 375.65 618.54 377.023 616.861 377.023Z" fill="white"/>
<path d="M598.174 359.078H616.976V357.807H598.174V359.078Z" fill="#001737"/>
<path d="M593.003 365.902H616.976V364.63H593.003V365.902Z" fill="#001737"/>
<path d="M593.003 372.723H616.976V371.451H593.003V372.723Z" fill="#001737"/>
<path d="M513.981 503.598H640.022V403.516H513.981V503.598Z" fill="#DBDBDB"/>
<path d="M509.295 403.503H640.022V385.282H509.295V403.503Z" fill="#DBDBDB"/>
<path d="M513.981 415.22V403.516H640.022L513.981 415.22Z" fill="#D0D0D0"/>
<path d="M592.822 428.987H561.181C559.503 428.987 558.13 427.613 558.13 425.935V420.907C558.13 419.228 559.503 417.855 561.181 417.855H592.822C594.5 417.855 595.874 419.228 595.874 420.907V425.935C595.874 427.613 594.5 428.987 592.822 428.987Z" fill="#D0D0D0"/>
</g>
<defs>
<linearGradient id="paint0_linear_144_17304" x1="597.486" y1="267.089" x2="548.268" y2="276.913" gradientUnits="userSpaceOnUse">
<stop stop-color="#C2C7CF"/>
<stop offset="0.273546" stop-color="#C2C7CF"/>
<stop offset="1" stop-color="#667487"/>
</linearGradient>
<linearGradient id="paint1_linear_144_17304" x1="624.323" y1="282.728" x2="574.134" y2="282.728" gradientUnits="userSpaceOnUse">
<stop stop-color="#C2C7CF"/>
<stop offset="0.273546" stop-color="#C2C7CF"/>
<stop offset="1" stop-color="#667487"/>
</linearGradient>
<linearGradient id="paint2_linear_144_17304" x1="557.471" y1="282.847" x2="507.282" y2="282.847" gradientUnits="userSpaceOnUse">
<stop stop-color="#C2C7CF"/>
<stop offset="0.273546" stop-color="#C2C7CF"/>
<stop offset="1" stop-color="#667487"/>
</linearGradient>
<clipPath id="clip0_144_17304">
<rect width="623" height="500" rx="16" fill="white"/>
</clipPath>
</defs>
</svg>
