<svg width="728" height="347" viewBox="0 0 728 347" fill="none" xmlns="http://www.w3.org/2000/svg">
<g clip-path="url(#clip0_155_9579)">
<rect width="728" height="347" rx="16" fill="#FBFBFB"/>
<path d="M248.511 235.268C248.511 243.438 241.888 250.06 233.719 250.06C225.55 250.06 218.927 243.438 218.927 235.268C218.927 227.1 225.55 220.477 233.719 220.477C241.888 220.477 248.511 227.1 248.511 235.268Z" fill="#BA968D"/>
<path d="M241.596 235.268C241.596 239.618 238.069 243.145 233.719 243.145C229.368 243.145 225.842 239.618 225.842 235.268C225.842 230.918 229.368 227.392 233.719 227.392C238.069 227.392 241.596 230.918 241.596 235.268Z" fill="#DBB1A7"/>
<path d="M408.41 235.268C408.41 249.257 397.07 260.599 383.079 260.599C369.09 260.599 357.751 249.257 357.751 235.268C357.751 221.279 369.09 209.939 383.079 209.939C397.07 209.939 408.41 221.279 408.41 235.268Z" fill="#504359"/>
<path d="M397.871 235.268C397.871 243.438 391.249 250.06 383.079 250.06C374.911 250.06 368.287 243.438 368.287 235.268C368.287 227.1 374.911 220.477 383.079 220.477C391.249 220.477 397.871 227.1 397.871 235.268Z" fill="#BA968D"/>
<path d="M390.956 235.268C390.956 239.618 387.431 243.145 383.079 243.145C378.729 243.145 375.202 239.618 375.202 235.268C375.202 230.918 378.729 227.392 383.079 227.392C387.431 227.392 390.956 230.918 390.956 235.268Z" fill="#DBB1A7"/>
<path d="M350.06 235.268C350.06 249.257 338.721 260.599 324.732 260.599C310.742 260.599 299.401 249.257 299.401 235.268C299.401 221.279 310.742 209.939 324.732 209.939C338.721 209.939 350.06 221.279 350.06 235.268Z" fill="#504359"/>
<path d="M339.524 235.268C339.524 243.438 332.901 250.06 324.732 250.06C316.562 250.06 309.94 243.438 309.94 235.268C309.94 227.1 316.562 220.477 324.732 220.477C332.901 220.477 339.524 227.1 339.524 235.268Z" fill="#BA968D"/>
<path d="M332.608 235.268C332.608 239.618 329.082 243.145 324.731 243.145C320.381 243.145 316.854 239.618 316.854 235.268C316.854 230.918 320.381 227.392 324.731 227.392C329.082 227.392 332.608 230.918 332.608 235.268Z" fill="#DBB1A7"/>
<path d="M407.858 131.001C407.756 130.279 406.347 122.518 393.914 123.009C388.831 123.212 385.821 126.455 382.547 126.881C378.431 127.414 377.173 124.564 378.182 119.573L381.167 103.625L383.954 88.7337C385.144 88.2823 386.28 87.904 387.367 87.5883C388.671 87.2077 389.899 86.9199 391.06 86.7151C407.813 83.7503 409.911 97.9423 409.911 97.9423C409.911 97.9423 405.337 102.632 404.077 107.823C403.993 108.165 403.923 108.51 403.871 108.859C403.811 109.258 403.772 109.663 403.762 110.064L403.764 110.065C403.729 111.152 403.888 112.234 404.308 113.275C405.487 116.2 406.294 119.664 406.836 122.755C406.923 123.245 407.003 123.728 407.077 124.195C407.637 127.775 407.833 130.59 407.858 131.001Z" fill="#FFDA21"/>
<path d="M403.762 110.064C401.714 107.686 398.371 104.796 393.191 102.755C387.421 100.483 383.507 101.912 381.168 103.625L383.954 88.7336C385.145 88.2822 386.281 87.9039 387.367 87.5882C388.672 87.2077 389.9 86.9199 391.06 86.715C407.813 83.7502 409.911 97.9423 409.911 97.9423C409.911 97.9423 403.938 104.069 403.762 110.064Z" fill="#3D77FF"/>
<path d="M391.06 86.7151L385.378 96.7567L387.367 87.5883C388.672 87.2077 389.9 86.9199 391.06 86.7151Z" fill="#3161CF"/>
<path d="M380.936 95.1524L377.854 122.381C377.854 122.381 378.587 118.612 380.904 117.591C383.732 116.343 384.038 113.161 384.468 111.548C386.728 103.027 380.936 95.1524 380.936 95.1524Z" fill="#FFAA21"/>
<path d="M384.473 112.357C384.612 110.364 383.81 105.884 373.646 106.288C368.56 106.49 365.55 109.734 362.277 110.159C358.161 110.693 356.903 107.842 357.915 102.852L360.731 87.8035L363.684 72.0127C365.521 71.3183 367.226 70.7913 368.814 70.4095C370.452 70.0136 371.966 69.7705 373.358 69.6616C387.764 68.5093 389.643 81.2189 389.643 81.2189L387.744 92.6552L384.473 112.357Z" fill="#FFDA21"/>
<path d="M387.744 92.6552C386.596 91.2458 385.122 89.9172 383.241 88.7647C374.561 83.4544 364.425 86.4143 360.731 87.8035L363.684 72.0127C365.521 71.3182 367.226 70.7913 368.814 70.4095C370.452 70.0136 371.966 69.7705 373.358 69.6616C379.758 69.1503 383.685 71.3724 386.074 74.002C386.248 74.1956 386.412 74.3882 386.571 74.5838C387.041 75.162 387.441 75.7518 387.782 76.3292C387.923 76.5649 388.05 76.7987 388.172 77.0299C389.36 79.3055 389.643 81.2189 389.643 81.2189L387.744 92.6552Z" fill="#3D77FF"/>
<path d="M373.358 69.6616L368.021 84.4512L368.814 70.4095C370.452 70.0136 371.966 69.7705 373.358 69.6616Z" fill="#3161CF"/>
<path d="M362.327 100.482C359.734 101.948 357.616 104.929 357.616 104.929L359.289 88.3986L360.547 75.9666C360.547 75.9666 363.415 79.172 365.481 83.7656C366.691 86.4568 367.628 89.6287 367.544 92.9112C367.445 96.9055 365.635 98.6131 362.327 100.482Z" fill="#FFAA21"/>
<path d="M365.481 83.7656C362.212 88.3491 359.289 88.3986 359.289 88.3986L360.547 75.9666C360.547 75.9666 363.415 79.172 365.481 83.7656Z" fill="#3161CF"/>
<path d="M367.544 92.9112C367.544 92.9112 368.682 82.4946 350.376 85.745C335.392 88.4053 327.147 95.4736 327.147 95.4736L326.534 58.2351L326.127 33.4798C366.729 32.4085 369.654 55.4724 369.654 55.4724L368.715 72.1525L367.544 92.9112Z" fill="#FFDA21"/>
<path d="M368.715 72.1525C366.741 69.1481 367.129 62.6433 351.343 58.9977C338.249 55.9769 330.57 56.9687 326.534 58.2351L326.127 33.4798C366.729 32.4085 369.654 55.4723 369.654 55.4723L368.715 72.1525Z" fill="#3D77FF"/>
<path d="M327.503 185.893L324.976 33.0149L326.575 33L329.101 185.877L327.503 185.893Z" fill="#945561"/>
<path d="M338.135 260.584H207.661L231.093 187.946H361.566L338.135 260.584Z" fill="#E6E6E6"/>
<path d="M268.086 205.014H236.863L239.629 197.167H270.852L268.086 205.014Z" fill="#332938"/>
<path d="M334.475 205.014H303.252L306.018 197.167H337.242L334.475 205.014Z" fill="#332938"/>
<path d="M251.608 232.646H295.635L299.378 219.38L255.351 219.38L251.608 232.646Z" fill="#3D77FF"/>
<path d="M247.865 245.909H291.892L295.635 232.646H251.608L247.865 245.909Z" fill="#FFDA21"/>
<path d="M338.134 260.584H551.796L528.362 187.946L447.918 148.549L361.566 187.946L338.134 260.584Z" fill="white"/>
<path d="M415.267 260.584C415.267 260.584 436.251 227.333 449.313 187.337C464.763 229.998 491.697 260.584 491.697 260.584H415.267Z" fill="#332938"/>
<path d="M447.926 148.547L317.401 148.57L231.093 187.946L361.618 187.923L447.926 148.547Z" fill="#F4F4F4"/>
<path d="M359.983 187.947H358.221L276.368 260.584H278.131L359.983 187.947Z" fill="#332938"/>
<path d="M293.202 187.947H291.433L209.58 260.584H211.35L293.202 187.947Z" fill="#332938"/>
<path d="M234.622 187.947H232.853L151 260.584H152.769L234.622 187.947Z" fill="#332938"/>
<path d="M394.162 256.152L393.3 255.357C412.325 234.711 427.609 209.912 437.496 183.638L438.592 184.051C428.653 210.464 413.289 235.397 394.162 256.152Z" fill="#ECECEC"/>
<path d="M395.176 223.866L394.316 223.072C413.157 202.626 420.102 193.747 430.261 166.756L431.357 167.169C421.173 194.228 413.761 203.699 395.176 223.866Z" fill="#ECECEC"/>
<path d="M486.624 236.618C468.039 216.45 460.627 206.979 450.443 179.921L451.54 179.508C461.698 206.498 468.643 215.377 487.486 235.825L486.624 236.618Z" fill="#ECECEC"/>
<path d="M449.313 187.337L465.966 260.584H492.522C492.522 260.584 464.405 225.417 449.313 187.337Z" fill="#ECECEC"/>
<path d="M339.437 171.915L339.171 170.774C348.996 168.479 358.549 165.007 367.559 160.457L368.086 161.503C358.994 166.095 349.354 169.598 339.437 171.915Z" fill="#ECECEC"/>
<path d="M339.887 164.598L339.529 163.481C347.246 161.019 354.388 157.233 360.758 152.229L361.482 153.15C355.002 158.241 347.736 162.092 339.887 164.598Z" fill="#ECECEC"/>
<path d="M576.767 260.587H574.979L542.759 232.579L446.718 149.102L447.888 148.564L542.063 230.424L576.767 260.587Z" fill="#332938"/>
<path d="M328.964 260.584H344.112V239.501H328.964V260.584Z" fill="#918F94"/>
<path d="M330.759 258.77H342.318V241.318H330.759V258.77Z" fill="#787487"/>
<path d="M330.759 257.922V258.77H331.999L341.823 241.318H340.128L330.759 257.922Z" fill="#534E61"/>
<path d="M341.945 258.767H342.318V241.318H341.945V258.767Z" fill="#534E61"/>
<path d="M313.817 260.584H328.965V239.501H313.817V260.584Z" fill="#787487"/>
<path d="M315.611 258.77H327.17V241.318H315.611V258.77Z" fill="#534E61"/>
<path d="M315.611 258.767H315.989V241.318H315.611V258.767Z" fill="#918F94"/>
<path d="M315.988 258.77H317.685L327.17 241.947V241.318H325.813L315.988 258.77Z" fill="#918F94"/>
<path d="M315.611 258.767H317.306L327.13 241.318H325.434L315.611 258.767Z" fill="#787487"/>
<path d="M330.779 258.767H332.474L342.298 241.318H340.603L330.779 258.767Z" fill="#918F94"/>
<path d="M324.604 239.501H339.753V218.42H324.604V239.501Z" fill="#918F94"/>
<path d="M326.398 237.687H337.958V220.236H326.398V237.687Z" fill="#787487"/>
<path d="M326.398 236.839V237.687H327.638L337.463 220.236H335.766L326.398 236.839Z" fill="#534E61"/>
<path d="M337.585 237.684H337.958V220.236H337.585V237.684Z" fill="#534E61"/>
<path d="M309.456 239.501H324.604V218.42H309.456V239.501Z" fill="#787487"/>
<path d="M311.25 237.687H322.81V220.236H311.25V237.687Z" fill="#534E61"/>
<path d="M311.25 237.684H311.629V220.236H311.25V237.684Z" fill="#918F94"/>
<path d="M311.629 237.687H313.325L322.81 220.865V220.236H321.453L311.629 237.687Z" fill="#918F94"/>
<path d="M311.25 237.684H312.946L322.77 220.236H321.074L311.25 237.684Z" fill="#787487"/>
<path d="M326.418 237.684H328.114L337.938 220.236H336.243L326.418 237.684Z" fill="#918F94"/>
<path d="M309.144 260.584H324.291V239.501H309.144V260.584Z" fill="#918F94"/>
<path d="M310.938 258.77H322.498V241.318H310.938V258.77Z" fill="#787487"/>
<path d="M310.938 257.922V258.77H312.178L322.002 241.318H320.306L310.938 257.922Z" fill="#534E61"/>
<path d="M322.125 258.767H322.498V241.318H322.125V258.767Z" fill="#534E61"/>
<path d="M293.996 260.584H309.144V239.501H293.996V260.584Z" fill="#787487"/>
<path d="M295.79 258.77H307.349V241.318H295.79V258.77Z" fill="#534E61"/>
<path d="M295.79 258.767H296.168V241.318H295.79V258.767Z" fill="#918F94"/>
<path d="M296.168 258.77H297.864L307.349 241.947V241.318H305.993L296.168 258.77Z" fill="#918F94"/>
<path d="M295.79 258.767H297.485L307.31 241.318H305.614L295.79 258.767Z" fill="#787487"/>
<path d="M310.958 258.767H312.654L322.477 241.318H320.782L310.958 258.767Z" fill="#918F94"/>
<path d="M613.541 303.128C613.615 303.116 613.701 303.103 613.788 303.103L622.055 302.832L628.003 302.635L737.406 299.019L743.341 298.822L753.707 298.476C753.731 298.476 753.756 298.476 753.78 298.476C754.471 298.476 755.101 298.76 755.557 299.229C755.989 299.661 756.26 300.241 756.285 300.895C756.31 301.66 755.977 302.363 755.434 302.832C755.015 303.214 754.471 303.449 753.867 303.461L724.561 304.436L716.54 304.695L687.553 305.658L678.361 305.954L669.427 306.25L613.948 308.089C613.923 308.089 613.886 308.089 613.862 308.089C612.529 308.089 611.431 307.028 611.382 305.683C611.332 304.399 612.282 303.313 613.516 303.128C613.516 303.128 613.529 303.128 613.541 303.128Z" fill="#95C58C"/>
<path d="M738.837 234.026L736.369 234.075C736.258 233.113 736.123 232.212 735.974 231.361C735.728 229.88 734.962 227.869 734.197 226.117C733.124 223.649 732.544 220.996 732.581 218.306C732.692 210.89 731.495 198.044 722.981 186.26C721.932 184.89 719.982 182.718 716.885 181.102C716.873 181.102 716.848 181.089 716.836 181.077C714.614 179.93 712.122 179.387 709.63 179.362L698.499 179.213L660.925 178.72H660.333C650.251 178.72 640.453 182.163 632.754 188.42C629.187 191.319 625.794 194.503 622.685 197.884C617.885 203.103 613.676 208.841 610.148 214.986V222.464C610.357 224.673 610.567 226.894 610.765 229.128C605.508 228.56 599.39 228.029 592.561 227.709C573.289 226.795 557.654 227.943 548.043 228.93C548.083 228.831 548.115 228.733 548.139 228.634L548.115 228.437C551.228 228.079 554.026 227.733 555.025 227.609C572.87 225.389 576.829 224.228 579.296 223.39C582.949 222.143 588.198 219.959 594.117 215.912C594.528 215.64 594.931 215.356 595.343 215.06C601.201 209.359 607.668 203.449 614.775 197.476C621.981 191.417 629.027 185.976 635.752 181.126C624.486 180.362 612.319 179.979 599.35 180.201C588.852 180.374 578.901 180.929 569.572 181.744L569.564 181.719C570.015 181.46 570.467 181.213 570.91 180.966C575.507 178.424 580.578 176.919 585.828 176.549C611.419 174.784 638.825 173.809 667.835 174.031C682.557 174.142 696.846 174.55 710.679 175.204C713.479 175.339 716.576 177.116 718.242 178.301C720.266 179.744 722.956 182.114 725.276 185.322C733.79 197.106 735.16 210.89 735.049 218.306C735.024 220.033 735.258 221.761 735.716 223.414C735.962 224.34 736.283 225.24 736.665 226.117C737.431 227.869 738.196 229.88 738.443 231.361C738.59 232.2 738.726 233.088 738.837 234.026Z" fill="#95C58C"/>
<path d="M737.282 295.268L737.406 299.019L628.003 302.635L627.879 298.884V298.735C663.109 297.539 698.351 296.341 733.593 295.145C734.815 295.095 736.048 295.058 737.27 295.021L737.282 295.268Z" fill="#3E543A"/>
<path d="M736.394 234.224C737.591 243.701 736.419 250.919 735.777 255.201C734.827 261.568 733.852 269.417 732.828 279.671C721.55 279.781 710.271 279.893 698.992 280.004C699.276 272.514 699.622 266.307 699.918 261.643C700.572 251.178 701.288 243.528 699.93 234.804C709.05 234.631 719.303 234.408 731.076 234.175L736.369 234.075C736.381 234.125 736.382 234.175 736.394 234.224Z" fill="#95C58C"/>
<path d="M702.386 220.416L718.144 220.07C721.18 214.443 722.167 209.471 722.512 206.311C723.03 201.82 724.141 191.874 717.885 186.1C717.872 186.087 717.848 186.063 717.835 186.05C715.54 183.964 712.504 182.891 709.407 182.854L698.462 182.706C698.462 182.669 698.45 182.632 698.45 182.594L698.499 179.213L709.63 179.362C712.122 179.387 714.615 179.93 716.836 181.077C716.848 181.089 716.873 181.102 716.885 181.102C719.982 182.718 721.932 184.89 722.981 186.26C731.495 198.044 732.692 210.89 732.581 218.306C732.544 220.996 733.124 223.649 734.197 226.117C734.963 227.869 735.728 229.88 735.975 231.361C736.123 232.212 736.258 233.113 736.37 234.075L731.076 234.175C719.303 234.408 709.05 234.631 699.93 234.804C699.634 232.817 699.227 230.781 698.684 228.634C697.833 225.277 696.883 222.575 696.192 220.749C696.192 220.687 696.179 220.614 696.179 220.551L702.386 220.416Z" fill="#A7D19F"/>
<path d="M698.685 290.382C709.765 290.036 720.846 289.678 731.928 289.32C732.754 289.295 733.569 289.27 734.395 289.246L733.593 295.07V295.145C698.351 296.341 663.109 297.539 627.88 298.735C621.562 298.945 615.232 299.168 608.914 299.377C609.013 295.687 608.827 289.9 607.063 283.138C605.262 276.228 601.732 262.691 591.021 257.842C586.804 255.929 582.901 256.015 575.596 256.189C568.427 256.361 562.025 257.681 559.138 258.656C557.445 259.236 555.808 260.087 554.252 261.198C553.461 260.384 552.623 259.557 551.736 258.705C553.727 257.225 555.832 256.089 558.009 255.349C561.541 254.153 568.33 252.869 575.507 252.696C577.45 252.647 579.159 252.61 580.692 252.61C585.175 252.61 588.699 252.955 592.464 254.646C604.694 260.186 608.581 275.093 610.444 282.25C611.357 285.754 611.962 289.345 612.245 292.972H617.329C617.379 292.972 617.416 292.972 617.465 292.972C644.539 292.109 671.612 291.245 698.685 290.382Z" fill="#6B9663"/>
<path d="M698.992 280.004C710.272 279.893 721.55 279.781 732.828 279.671C732.531 282.645 732.235 285.84 731.927 289.246V289.32C720.846 289.678 709.765 290.036 698.684 290.382C698.771 286.692 698.882 283.224 698.992 280.004Z" fill="#7EAC75"/>
<path d="M724.561 304.436L724.573 304.695C721.229 317.096 712.073 325.994 701.288 325.994C690.873 325.994 681.976 317.701 678.361 305.967V305.954L687.554 305.658C690.527 311.667 695.809 315.653 701.819 315.653C708.148 315.653 713.665 311.235 716.54 304.695L724.561 304.436Z" fill="#2D2828"/>
<path d="M717.885 186.1C724.141 191.874 723.03 201.82 722.512 206.311C722.167 209.471 721.18 214.443 718.144 220.07L702.386 220.416C701.856 213.308 701.189 206.016 700.374 198.55C699.783 193.158 699.153 187.876 698.462 182.706L709.407 182.854C712.504 182.891 715.54 183.964 717.835 186.05C717.848 186.063 717.872 186.087 717.885 186.1Z" fill="#2F3335"/>
<path d="M687.553 305.658L716.54 304.695C713.664 311.235 708.148 315.653 701.818 315.653C695.809 315.653 690.527 311.667 687.553 305.658Z" fill="#191717"/>
<path d="M702.386 220.416L696.179 220.551C695.772 214.678 695.327 208.743 694.822 202.721C694.254 195.922 693.637 189.234 692.971 182.632L698.462 182.706C699.153 187.876 699.783 193.158 700.374 198.55C701.189 206.016 701.856 213.308 702.386 220.416Z" fill="#7EAC75"/>
<path d="M701.288 325.994H692.268C681.939 325.994 673.092 317.837 669.427 306.262V306.25L678.361 305.954V305.967C681.976 317.701 690.873 325.994 701.288 325.994Z" fill="#453E3D"/>
<path d="M699.93 234.804C701.288 243.528 700.572 251.178 699.918 261.643C699.622 266.307 699.276 272.514 698.992 280.004C677.078 280.226 655.15 280.448 633.235 280.658C626.806 280.719 621.056 276.758 618.711 270.774C617.576 267.837 616.268 264.777 614.775 261.643C614.072 260.161 613.343 258.718 612.615 257.311C612.455 253.449 612.245 249.549 611.999 245.601C611.653 240.011 611.233 234.52 610.765 229.128C619.649 230.103 626.053 231.213 629.114 231.719C641.984 233.829 653.854 234.717 668.785 234.964L678.632 234.791C678.632 235.594 679.286 236.248 680.076 236.248H683.728C684.568 237.456 686.406 238.308 688.553 238.308C690.676 238.308 692.514 237.469 693.354 236.272V236.248H695.069C695.846 236.248 696.488 235.631 696.525 234.853C697.647 234.841 698.783 234.816 699.93 234.804Z" fill="#95C58C"/>
<path d="M686.357 182.545L660.876 182.212C651.461 182.089 642.268 185.198 634.962 191.134C631.791 193.713 628.509 196.724 625.264 200.253C622.956 202.746 620.933 205.238 619.143 207.656C619.131 207.656 619.131 207.656 619.118 207.669C617.736 209.532 616.503 211.346 615.379 213.111C614.454 214.555 613.948 216.221 613.911 217.923C613.899 218.429 613.886 218.935 613.874 219.441C613.862 220.44 614.368 221.317 615.133 221.835C615.602 222.155 616.182 222.329 616.787 222.316L688.504 220.724L696.179 220.551C696.179 220.614 696.192 220.687 696.192 220.749C696.883 222.575 697.833 225.277 698.684 228.634C699.227 230.781 699.634 232.817 699.93 234.804C698.783 234.816 697.647 234.841 696.525 234.853C696.525 234.829 696.525 234.816 696.525 234.791C696.525 233.989 695.871 233.335 695.069 233.335H683.728H680.076C679.286 233.335 678.632 233.989 678.632 234.791L668.785 234.964C653.854 234.717 641.984 233.829 629.114 231.719C626.053 231.213 619.649 230.103 610.765 229.128C610.567 226.894 610.358 224.673 610.148 222.464V214.986C613.676 208.841 617.885 203.103 622.685 197.884C625.794 194.503 629.187 191.319 632.754 188.42C640.453 182.163 650.251 178.72 660.333 178.72H660.925L698.499 179.214L698.45 182.594C698.45 182.632 698.462 182.669 698.462 182.706L692.971 182.632L686.357 182.545Z" fill="#A7D19F"/>
<path d="M633.235 280.658C655.15 280.448 677.078 280.226 698.992 280.004C698.882 283.224 698.771 286.692 698.684 290.382C671.611 291.245 644.538 292.109 617.465 292.972C617.416 292.972 617.378 292.972 617.329 292.972C615.071 292.972 613.245 291.146 613.257 288.876C613.294 278.708 613.097 268.182 612.615 257.311C613.343 258.718 614.072 260.161 614.775 261.643C616.268 264.777 617.576 267.837 618.711 270.774C621.056 276.758 626.806 280.719 633.235 280.658Z" fill="#7EAC75"/>
<path d="M683.728 236.248H680.077C679.286 236.248 678.632 235.594 678.632 234.791C678.632 233.989 679.286 233.335 680.077 233.335H683.728H695.069C695.871 233.335 696.525 233.989 696.525 234.791C696.525 234.816 696.525 234.829 696.525 234.853C696.488 235.631 695.846 236.248 695.069 236.248H693.354H683.728Z" fill="#B8E4AF"/>
<path d="M696.179 220.551L688.504 220.724C688.418 214.011 688.171 207.015 687.727 199.784C687.369 193.849 686.899 188.099 686.357 182.545L692.97 182.632C693.637 189.234 694.254 195.922 694.822 202.721C695.327 208.743 695.772 214.678 696.179 220.551Z" fill="#7EAC75"/>
<path d="M693.353 236.248V236.272C692.514 237.469 690.675 238.308 688.553 238.308C686.406 238.308 684.567 237.456 683.728 236.248H693.353Z" fill="#B8E4AF"/>
<path d="M688.504 220.724L616.786 222.316C616.182 222.329 615.602 222.155 615.133 221.835L615.195 221.761C616.959 222.254 620.636 221.884 629.471 221.021C639.615 220.033 641.54 219.848 642.847 217.936C644.723 215.184 644.069 210.679 641.811 208.064C639.911 205.855 637.258 205.559 631.939 204.979C627.448 204.485 624.931 204.214 622.067 205.596C620.908 206.176 619.945 206.879 619.143 207.656C620.933 205.238 622.956 202.746 625.263 200.253C628.509 196.724 631.791 193.713 634.962 191.134C642.268 185.198 651.461 182.089 660.876 182.212L686.357 182.545C686.9 188.099 687.369 193.849 687.727 199.784C688.171 207.015 688.418 214.011 688.504 220.724Z" fill="#2F3335"/>
<path d="M641.811 208.064C644.069 210.679 644.723 215.184 642.848 217.936C641.54 219.848 639.615 220.033 629.471 221.021C620.636 221.884 616.959 222.254 615.195 221.761L615.133 221.835C614.368 221.317 613.862 220.44 613.874 219.441C613.886 218.935 613.899 218.429 613.911 217.923C613.948 216.221 614.454 214.555 615.38 213.111C616.503 211.346 617.736 209.532 619.119 207.669C619.131 207.656 619.131 207.656 619.144 207.656C619.945 206.879 620.908 206.176 622.067 205.596C624.931 204.214 627.448 204.485 631.939 204.979C637.258 205.559 639.911 205.855 641.811 208.064Z" fill="#7EAC75"/>
<path d="M627.879 298.884L628.003 302.635L622.055 302.832L621.932 299.08L627.879 298.884Z" fill="#7EAC75"/>
<path d="M627.88 298.735V298.884L621.932 299.08L622.055 302.832L613.788 303.103C613.702 303.103 613.615 303.116 613.541 303.128C613.529 303.128 613.516 303.128 613.516 303.128C611.999 303.19 610.481 303.239 608.964 303.289C608.939 301.981 608.926 300.685 608.914 299.377C615.232 299.167 621.562 298.945 627.88 298.735Z" fill="#3E543A"/>
<path d="M635.752 181.126C629.027 185.976 621.981 191.418 614.775 197.476C607.668 203.449 601.201 209.359 595.343 215.06C570.548 214.752 545.769 214.443 520.998 214.135L520.893 214.011C528.852 207.793 537.729 201.376 547.526 195.008C555.098 190.073 562.476 185.667 569.564 181.719L569.572 181.744C578.901 180.929 588.851 180.374 599.35 180.201C612.319 179.979 624.486 180.362 635.752 181.126Z" fill="#2F3335"/>
<path d="M617.329 292.972H612.245C611.962 289.345 611.357 285.754 610.444 282.25C608.581 275.093 604.694 260.186 592.464 254.646C588.699 252.955 585.175 252.61 580.692 252.61C579.159 252.61 577.45 252.647 575.507 252.696C568.33 252.869 561.541 254.153 558.009 255.349C555.832 256.089 553.727 257.225 551.736 258.705C549.534 256.62 547.019 254.436 544.132 252.289C540.947 249.92 537.875 247.97 535.085 246.403C536.294 245.675 537.48 244.836 538.617 243.885C542.834 241.849 548.656 239.48 555.856 237.889C557.235 237.58 562.75 236.395 571.588 236.038C576.289 235.841 582.264 235.865 589.271 236.569C596.601 237.296 603.164 241.405 607.075 247.637C608.939 250.611 610.802 253.832 612.615 257.311C613.097 268.182 613.294 278.708 613.257 288.876C613.245 291.146 615.072 292.972 617.329 292.972Z" fill="#A7D19F"/>
<path d="M611.998 245.601C612.245 249.549 612.455 253.449 612.615 257.311C610.802 253.832 608.938 250.611 607.075 247.637C603.163 241.405 596.6 237.296 589.271 236.569C582.264 235.865 576.289 235.841 571.588 236.038C562.75 236.395 557.235 237.58 555.856 237.889C548.655 239.48 542.834 241.849 538.616 243.885C539.02 243.552 539.415 243.194 539.81 242.824C544.599 238.284 546.881 232.842 548.043 228.93C557.654 227.943 573.289 226.795 592.561 227.709C599.39 228.029 605.508 228.56 610.765 229.128C611.233 234.52 611.653 240.011 611.998 245.601Z" fill="#95C58C"/>
<path d="M571.168 268.33H560.065C554.074 268.33 548.51 270.441 543.809 274.093C546.696 268.454 550.236 263.999 554.251 261.198C555.808 260.087 557.444 259.236 559.138 258.656C562.024 257.681 568.427 256.361 575.595 256.189C582.901 256.015 586.803 255.929 591.021 257.842C601.732 262.691 605.261 276.228 607.063 283.138C608.827 289.9 609.012 295.687 608.913 299.377C608.926 300.685 608.938 301.981 608.963 303.289C608.987 306.2 609.025 309.113 609.062 312.025C609.087 314.579 607.038 316.677 604.483 316.701C603.003 316.714 601.534 316.726 600.052 316.751C601.004 313.173 601.509 309.36 601.509 305.399C601.509 284.927 587.924 268.33 571.168 268.33Z" fill="#3E543A"/>
<path d="M571.83 330.362C569.33 330.362 566.935 329.831 564.726 328.856C557.017 325.475 551.445 316.739 551.131 306.374C551.099 306.053 551.099 305.732 551.099 305.399C551.099 291.603 560.372 280.435 571.83 280.435C583.288 280.435 592.561 291.603 592.561 305.399C592.561 305.732 592.561 306.053 592.537 306.374C592.117 319.712 583.014 330.362 571.83 330.362ZM571.169 268.331C554.421 268.331 540.834 284.927 540.834 305.399C540.834 325.87 554.421 342.466 571.169 342.466C573.305 342.466 575.386 342.196 577.402 341.677H577.426C584.014 339.986 589.827 335.692 594.085 329.696C596.738 325.969 598.794 321.576 600.052 316.751C601.004 313.173 601.51 309.36 601.51 305.399C601.51 284.927 587.924 268.331 571.169 268.331Z" fill="#453E3D"/>
<path d="M436.332 233.298C435.792 233.31 435.243 233.323 434.703 233.335C435.493 232.435 436.397 231.571 437.396 230.794C440.589 228.3 444.404 226.968 448.5 225.549C450.112 224.982 453.16 224.007 461.458 222.464C469.094 221.045 474.843 220.33 475.028 220.305C482.503 219.367 498.896 217.294 520.071 214.653C520.337 214.443 520.627 214.221 520.893 214.011L520.998 214.135C545.769 214.443 570.548 214.752 595.343 215.06C594.932 215.356 594.528 215.64 594.117 215.912L594.109 215.887C576.2 217.108 557.017 219.071 536.73 222.057C517.402 224.895 499.315 228.325 482.535 232.089C468.811 232.533 453.273 232.94 436.332 233.298Z" fill="#95C58C"/>
<path d="M594.109 215.887L594.117 215.912C588.199 219.959 582.949 222.143 579.297 223.39C576.829 224.228 572.87 225.389 555.026 227.609C554.026 227.733 551.228 228.079 548.115 228.437C545.559 228.745 542.785 229.053 540.624 229.251C531.263 230.127 510.725 231.164 482.536 232.089C499.315 228.325 517.402 224.895 536.73 222.057C557.017 219.071 576.2 217.108 594.109 215.887Z" fill="#7EAC75"/>
<path d="M556.678 292.318C559.38 287.778 563.452 284.495 568.169 283.372V300.315L556.678 292.318ZM575.482 283.372C580.199 284.495 584.271 287.778 586.989 292.318L575.482 300.315V283.372ZM571.83 280.435C560.371 280.435 551.099 291.603 551.099 305.399C551.099 305.732 551.099 306.053 551.131 306.374L553.187 306.337C553.179 306.028 553.179 305.707 553.179 305.399C553.179 302.091 553.768 298.957 554.84 296.132L566.338 304.127L567.822 304.399C568.209 302.153 569.846 300.462 571.83 300.462C573.805 300.462 575.458 302.153 575.845 304.399L577.313 304.127L588.827 296.132C589.884 298.957 590.488 302.091 590.488 305.399C590.488 305.707 590.488 306.028 590.48 306.337L592.536 306.374C592.561 306.053 592.561 305.732 592.561 305.399C592.561 291.603 583.288 280.435 571.83 280.435Z" fill="#95C58C"/>
<path d="M573.66 327.758V311.754L585.836 320.219C582.788 324.377 578.498 327.178 573.66 327.758ZM589.505 312.592L577.313 304.127L575.845 304.399C575.902 304.72 575.926 305.053 575.926 305.399C575.926 308.126 574.088 310.334 571.83 310.334C571.402 310.334 570.991 310.26 570.612 310.112L570.007 311.754V327.758C568.491 327.585 567.032 327.178 565.653 326.586L564.726 328.856C566.935 329.831 569.33 330.362 571.83 330.362C583.014 330.362 592.117 319.712 592.537 306.374L590.48 306.337C590.392 308.52 590.061 310.618 589.505 312.592Z" fill="#95C58C"/>
<path d="M590.488 305.399C590.488 305.707 590.488 306.028 590.48 306.337C590.392 308.52 590.061 310.618 589.505 312.592L577.313 304.127L588.827 296.132C589.884 298.957 590.488 302.091 590.488 305.399Z" fill="#2F3335"/>
<path d="M586.989 292.318L575.482 300.315V283.372C580.199 284.495 584.271 287.778 586.989 292.318Z" fill="#2F3335"/>
<path d="M573.66 311.754L585.836 320.219C582.788 324.377 578.498 327.178 573.66 327.758V311.754Z" fill="#2F3335"/>
<path d="M575.845 304.399C575.901 304.72 575.926 305.053 575.926 305.399C575.926 308.126 574.087 310.334 571.829 310.334C571.402 310.334 570.991 310.26 570.612 310.112C568.943 309.483 567.733 307.62 567.733 305.399C567.733 305.053 567.757 304.72 567.822 304.399C568.209 302.153 569.846 300.462 571.829 300.462C573.805 300.462 575.458 302.153 575.845 304.399Z" fill="#2F3335"/>
<path d="M560.065 268.331H571.168C554.421 268.331 540.834 284.927 540.834 305.399C540.834 325.87 554.421 342.466 571.168 342.466H562.952H560.065C551.929 342.466 544.551 338.555 539.108 332.188C534.246 326.524 530.924 318.886 530.005 310.335C529.819 308.718 529.73 307.077 529.73 305.399C529.73 304.177 529.779 302.968 529.876 301.783L536.109 302.265C536.479 298.563 537.036 294.984 537.778 291.566C539.181 285.038 541.229 279.103 543.801 274.106L543.809 274.093C548.51 270.441 554.074 268.331 560.065 268.331Z" fill="#2D2828"/>
<path d="M570.612 310.112L570.007 311.754L557.831 320.219C559.928 323.081 562.605 325.29 565.653 326.586L564.726 328.856C557.017 325.475 551.445 316.739 551.131 306.374L553.187 306.337C553.259 308.52 553.606 310.618 554.162 312.592L566.338 304.127L567.822 304.399C567.757 304.72 567.733 305.053 567.733 305.399C567.733 307.62 568.943 309.483 570.612 310.112Z" fill="#95C58C"/>
<path d="M570.007 311.754V327.758C568.491 327.585 567.032 327.178 565.653 326.586C562.605 325.29 559.928 323.081 557.831 320.219L570.007 311.754Z" fill="#2F3335"/>
<path d="M568.169 283.372V300.315L556.678 292.318C559.379 287.778 563.451 284.495 568.169 283.372Z" fill="#2F3335"/>
<path d="M566.338 304.127L554.163 312.592C553.606 310.618 553.26 308.52 553.187 306.337C553.179 306.028 553.179 305.707 553.179 305.399C553.179 302.091 553.768 298.957 554.84 296.132L566.338 304.127Z" fill="#2F3335"/>
<path d="M551.736 258.705C552.623 259.557 553.461 260.384 554.251 261.198C550.236 263.999 546.696 268.454 543.809 274.093L543.801 274.106C541.229 279.103 539.181 285.038 537.778 291.566H534.198C537.31 276.561 543.624 264.74 551.736 258.705Z" fill="#6B9663"/>
<path d="M528.9 242.824C525.884 244.601 522.119 246.107 512.862 247.353C507.185 248.118 499.412 248.785 490.034 248.464L486.752 236.248C503.815 235.766 520.893 235.285 537.963 234.804C536.181 237.086 533.27 240.258 528.9 242.824ZM538.616 243.885C539.019 243.552 539.415 243.194 539.81 242.824C544.599 238.284 546.881 232.842 548.043 228.93C548.083 228.831 548.115 228.733 548.139 228.634L548.115 228.437C545.559 228.745 542.785 229.054 540.624 229.251C531.263 230.127 510.725 231.164 482.535 232.089C482.148 232.163 481.777 232.249 481.406 232.336L482.898 238.135L484.567 244.576L486.333 251.401C495.066 251.45 503.024 251.462 510.193 251.462C516.321 251.462 526.473 251.598 535.085 246.403C536.294 245.675 537.479 244.836 538.616 243.885Z" fill="#3E543A"/>
<path d="M509.491 287.395C506.153 287.395 503.089 285.495 501.621 282.496L495.534 270.12H510.298C512.934 270.12 515.329 271.674 516.402 274.081L522.377 287.395H509.491ZM535.085 246.403C526.473 251.598 516.321 251.462 510.193 251.462C503.024 251.462 495.066 251.45 486.333 251.401C478.173 251.351 469.352 251.265 459.909 251.129C462.99 251.166 465.852 253.029 467.505 255.621L488.381 288.321C489.502 290.085 491.332 291.233 493.364 291.504H493.405L495.534 291.566H534.198C537.31 276.561 543.624 264.74 551.736 258.705C549.534 256.62 547.019 254.436 544.132 252.289C540.947 249.92 537.875 247.97 535.085 246.403Z" fill="#95C58C"/>
<path d="M486.753 236.248C503.815 235.766 520.893 235.285 537.964 234.804C536.181 237.086 533.271 240.258 528.9 242.824C525.884 244.601 522.119 246.107 512.862 247.353C507.185 248.118 499.412 248.785 490.034 248.464L486.753 236.248Z" fill="#AFD7EF"/>
<path d="M534.198 291.566H537.778C537.036 294.984 536.48 298.563 536.109 302.265L529.876 301.783L529.73 301.77L447.943 295.527H447.903L428.333 294.034C427.414 293.516 426.067 292.639 424.745 291.257C424.164 290.64 423.656 290.011 423.229 289.345L493.364 291.504H493.405C493.695 291.541 493.993 291.566 494.292 291.566H495.534H534.198Z" fill="#6B9663"/>
<path d="M469.626 305.929L462.385 305.399L458.877 303.005L447.943 295.552C447.943 295.539 447.943 295.539 447.943 295.527L529.731 301.77L529.876 301.783C529.779 302.968 529.731 304.177 529.731 305.399C529.731 307.077 529.819 308.718 530.005 310.334L514.636 309.211L505.444 308.545L469.626 305.929Z" fill="#3E543A"/>
<path d="M504.258 279.14C503.815 276.326 505.186 273.773 507.323 273.427C509.459 273.094 511.556 275.105 511.999 277.918C512.443 280.744 511.072 283.299 508.935 283.632C506.806 283.977 504.71 281.966 504.258 279.14ZM510.298 270.12H495.534L501.622 282.496C503.089 285.495 506.153 287.395 509.492 287.395H522.377L516.402 274.081C515.329 271.674 512.935 270.12 510.298 270.12Z" fill="#6B9663"/>
<path d="M505.444 308.545L514.636 309.211C510.628 322.847 499.952 332.595 487.422 332.595C473.045 332.595 461.119 319.786 458.877 303.005L462.385 305.399L469.626 305.929C472.513 314.789 479.657 321.057 488.035 321.057C495.574 321.057 502.113 315.998 505.444 308.545Z" fill="#2D2828"/>
<path d="M511.999 277.918C512.443 280.744 511.072 283.299 508.935 283.632C506.806 283.977 504.71 281.966 504.258 279.14C503.815 276.326 505.185 273.773 507.322 273.427C509.459 273.094 511.556 275.105 511.999 277.918Z" fill="#AFD7EF"/>
<path d="M469.626 305.929L505.443 308.545C502.113 315.998 495.574 321.057 488.035 321.057C479.657 321.057 472.512 314.789 469.626 305.929Z" fill="#191717"/>
<path d="M425.252 274.834C424.398 274.784 423.696 274.155 423.575 273.303C423.438 272.328 423.325 271.279 423.261 270.132C423.188 268.614 423.188 266.96 423.349 265.184C423.39 264.764 423.438 264.357 423.486 263.95C423.607 262.988 423.769 262.087 423.946 261.235C424.115 260.396 424.881 259.803 425.728 259.816C438.033 260.063 450.322 260.298 462.618 260.544C463.32 260.557 463.949 260.976 464.231 261.606C464.747 262.79 465.279 263.987 465.795 265.171C466.69 267.195 467.577 269.206 468.464 271.218C468.972 272.378 469.488 273.538 469.996 274.697C470.529 275.919 469.585 277.289 468.255 277.215C453.918 276.425 439.589 275.623 425.252 274.834ZM428.333 250.438C427.115 251.067 425.389 252.153 423.817 253.93C419.745 258.533 419.834 264.246 420.116 273.365C420.326 280.263 420.535 285.322 423.228 289.345L493.364 291.504C491.332 291.233 489.502 290.085 488.381 288.321L467.505 255.621C465.852 253.029 462.989 251.166 459.909 251.129C450.757 250.993 441.008 250.796 430.703 250.5C429.913 250.487 429.123 250.463 428.333 250.438Z" fill="#6B9663"/>
<path d="M487.422 332.595H476.835C460.853 332.595 447.903 316.776 447.903 297.255C447.903 296.687 447.919 296.119 447.944 295.552L458.878 303.005C461.119 319.786 473.045 332.595 487.422 332.595Z" fill="#453E3D"/>
<path d="M484.567 244.576L486.333 251.401C478.173 251.351 469.352 251.265 459.909 251.129C450.757 250.993 441.009 250.796 430.704 250.5C430.841 248.834 431.115 246.822 431.655 244.576H484.567Z" fill="#3E543A"/>
<path d="M482.898 238.135L484.568 244.576H431.655C431.889 243.552 432.187 242.491 432.558 241.381C432.905 240.32 433.284 239.332 433.695 238.407L482.898 238.135Z" fill="#2F3335"/>
<path d="M481.406 232.336L482.898 238.135L433.695 238.407C434.542 236.383 435.477 234.668 436.332 233.298C453.273 232.94 468.811 232.533 482.535 232.089C482.148 232.163 481.777 232.249 481.406 232.336Z" fill="#3E543A"/>
<path d="M469.996 274.697C470.529 275.919 469.585 277.289 468.255 277.215C453.918 276.425 439.589 275.623 425.252 274.834C424.398 274.784 423.696 274.155 423.575 273.303C423.438 272.328 423.325 271.279 423.261 270.132L423.487 270.12L468.448 271.218H468.464C468.972 272.378 469.488 273.538 469.996 274.697Z" fill="#474E53"/>
<path d="M465.795 265.171C466.69 267.195 467.577 269.206 468.464 271.218H468.448L423.487 270.12L423.261 270.132C423.188 268.614 423.188 266.961 423.349 265.184C423.39 264.764 423.438 264.357 423.487 263.95L465.795 265.171Z" fill="#AFD7EF"/>
<path d="M464.231 261.606C464.747 262.79 465.279 263.987 465.796 265.171L423.487 263.95C423.608 262.988 423.769 262.087 423.946 261.236C424.116 260.396 424.882 259.803 425.728 259.816C438.033 260.063 450.322 260.298 462.619 260.544C463.32 260.557 463.949 260.976 464.231 261.606Z" fill="#474E53"/>
<path d="M431.655 244.576C431.115 246.822 430.841 248.834 430.704 250.5C429.913 250.487 429.123 250.463 428.333 250.438C428.631 246.687 429.728 239.012 434.703 233.335C435.243 233.323 435.792 233.31 436.332 233.298C435.477 234.668 434.542 236.383 433.695 238.407C433.284 239.332 432.905 240.32 432.558 241.381C432.187 242.491 431.889 243.552 431.655 244.576Z" fill="#AFD7EF"/>
<path d="M186.055 327.298H166.11C163.632 327.298 161.604 325.271 161.604 322.792V296.464C161.604 293.985 163.632 291.957 166.11 291.957H186.055C188.534 291.957 190.562 293.985 190.562 296.464V322.792C190.562 325.271 188.534 327.298 186.055 327.298Z" fill="#414141"/>
<path d="M51.5225 327.298H31.5776C29.0992 327.298 27.071 325.271 27.071 322.792V296.464C27.071 293.985 29.0992 291.957 31.5776 291.957H51.5225C54.0012 291.957 56.0294 293.985 56.0294 296.464V322.792C56.0294 325.271 54.0012 327.298 51.5225 327.298Z" fill="#414141"/>
<path d="M107.933 183.355C108.129 183.351 108.186 183.344 108.383 183.352L154.782 184.432C154.782 184.432 158.507 184.726 159.977 187.471C161.447 190.215 171.346 206.092 173.796 221.285H187.322C187.322 221.285 200.301 228.194 190.896 294.513C190.491 297.37 188.045 299.494 185.16 299.494H167.82C164.207 299.494 160.641 300.319 157.393 301.903L151.839 304.611C148.423 306.274 144.673 307.14 140.873 307.14H108.158H107.867H75.4426C71.6424 307.14 67.8925 306.274 64.4767 304.611L58.9215 301.903C55.6741 300.319 52.1087 299.494 48.4954 299.494H31.1558C28.2701 299.494 25.8245 297.37 25.4193 294.513C16.0142 228.194 28.9939 221.285 28.9939 221.285H42.519C44.9693 206.092 54.8682 190.215 56.3383 187.471C57.8084 184.726 61.5329 184.432 61.5329 184.432L107.933 183.355Z" fill="#3D483B"/>
<path d="M36.5403 231.867H23.9329C22.163 239.557 21.066 252.653 23.0886 274.795H36.5403V231.867Z" fill="#ED5253"/>
<path opacity="0.7" d="M36.5403 231.867H23.9329C22.163 239.557 21.066 252.653 23.0886 274.795H36.5403V231.867Z" fill="#3D483B"/>
<path d="M65.1754 291.136C64.6271 289.678 63.232 288.713 61.6739 288.713H24.7186C24.9613 290.593 25.2224 292.527 25.504 294.51C25.9092 297.367 28.3545 299.494 31.2402 299.494H48.5801C52.193 299.494 55.7588 300.316 59.0065 301.9L64.5616 304.608C66.62 305.611 68.8004 306.321 71.0397 306.729L65.1754 291.136Z" fill="#2D2E2D"/>
<path d="M36.5406 270.285H33.7964C33.2912 270.285 32.8816 269.878 32.8816 269.373V260.093C32.8816 259.589 33.2912 259.178 33.7964 259.178H36.5406V270.285Z" fill="white"/>
<path d="M36.5406 253.821H33.7964C33.2912 253.821 32.8816 253.41 32.8816 252.905V237.092C32.8816 236.588 33.2912 236.18 33.7964 236.18H36.5406V253.821Z" fill="#F9EF7D"/>
<path d="M179.775 221.282H36.5405V282.734H179.775V221.282ZM179.516 221.541V282.475H36.7993V221.541H105.931H108.158H179.516Z" fill="#393D38"/>
<path d="M179.775 231.867H192.382C194.152 239.557 195.249 252.653 193.227 274.795H179.775V231.867Z" fill="#ED5253"/>
<path opacity="0.7" d="M179.775 231.867H192.382C194.152 239.557 195.249 252.653 193.227 274.795H179.775V231.867Z" fill="#3D483B"/>
<path d="M150.945 285.283C149.011 285.283 147.282 286.489 146.614 288.302L143.78 296.006C142.663 299.046 139.771 301.061 136.535 301.061H108.158H107.274H79.78C76.5446 301.061 73.6525 299.046 72.5353 296.006L69.7013 288.302C69.0335 286.489 67.3047 285.283 65.3704 285.283H24.2069C24.3425 286.407 24.4842 287.548 24.6344 288.713H61.5896C63.1475 288.713 64.5425 289.678 65.0908 291.136L70.9552 306.729C72.4315 306.999 73.9327 307.137 75.4427 307.137H107.274H108.158H140.873C142.383 307.137 143.884 306.999 145.36 306.729L151.225 291.136C151.773 289.678 153.168 288.713 154.726 288.713H191.681C191.831 287.548 191.973 286.407 192.109 285.283H150.945Z" fill="#363C36"/>
<path d="M151.14 291.136C151.689 289.678 153.083 288.713 154.642 288.713H191.597C191.354 290.593 191.093 292.527 190.811 294.51C190.406 297.367 187.961 299.494 185.075 299.494H167.735C164.122 299.494 160.557 300.316 157.309 301.9L151.754 304.608C149.696 305.611 147.515 306.321 145.276 306.729L151.14 291.136Z" fill="#2D2E2D"/>
<path d="M179.775 270.285H182.519C183.024 270.285 183.434 269.878 183.434 269.373V260.093C183.434 259.589 183.024 259.178 182.519 259.178H179.775V270.285Z" fill="white"/>
<path d="M179.775 253.821H182.519C183.024 253.821 183.434 253.41 183.434 252.905V237.092C183.434 236.588 183.024 236.18 182.519 236.18H179.775V253.821Z" fill="#F9EF7D"/>
<path d="M179.775 259.178H36.4834V253.821H179.775V259.178Z" fill="#363C36"/>
<path d="M115.512 237.618H100.746C97.9489 237.618 95.6816 235.35 95.6816 232.554V229.711C95.6816 228.919 96.3253 228.273 97.1192 228.273H119.139C119.932 228.273 120.576 228.919 120.576 229.711V232.554C120.576 235.35 118.309 237.618 115.512 237.618Z" fill="#363B36"/>
<path d="M119.139 228.273H97.1192C96.3253 228.273 95.6816 228.919 95.6816 229.711V232.554C95.6816 232.686 95.6884 232.818 95.6981 232.947H120.559C120.569 232.818 120.576 232.686 120.576 232.554V229.711C120.576 228.919 119.932 228.273 119.139 228.273Z" fill="#363B36"/>
<path d="M115.602 232.947V230.914C115.602 230.186 115.014 229.597 114.287 229.597H101.971C101.245 229.597 100.656 230.186 100.656 230.914V232.947H115.602Z" fill="#221F1F"/>
<path d="M165.564 212.95L157.623 192.52C157.077 191.115 155.828 190.106 154.34 189.863C144.589 188.269 111.849 187.558 108.158 187.482V187.468C108.158 187.468 108.04 187.471 107.817 187.475C104.145 187.552 71.7242 188.27 61.9761 189.863C60.4878 190.106 59.2386 191.115 58.6923 192.52L50.752 212.95C50.752 212.95 48.8899 217.656 53.6922 217.753C58.2622 217.847 103.447 217.762 107.817 217.753V217.797C107.817 217.797 157.821 217.853 162.623 217.753C167.426 217.656 165.564 212.95 165.564 212.95Z" fill="#2F3335"/>
<path d="M93.7181 217.776C93.7222 217.776 93.7243 217.776 93.7281 217.776C93.7248 217.776 93.7216 217.776 93.7181 217.776ZM93.8645 217.776C96.0229 217.773 98.0393 217.77 99.8377 217.767C98.0396 217.77 96.0235 217.773 93.8645 217.776ZM73.124 188.803L73.1249 188.802C86.5004 187.943 105.069 187.532 107.795 187.475H107.795C108.017 187.471 108.136 187.468 108.136 187.468V187.469C108.092 187.47 107.984 187.472 107.817 187.475C105.09 187.532 86.5013 187.943 73.124 188.803Z" fill="#981B29"/>
<path d="M130.284 217.811C124.336 217.809 118.717 217.806 114.583 217.803C118.714 217.806 124.334 217.809 130.284 217.811ZM146.939 217.809C146.946 217.809 146.955 217.809 146.962 217.809C146.954 217.809 146.947 217.809 146.939 217.809ZM146.991 217.809C147.031 217.809 147.071 217.809 147.11 217.809C147.071 217.809 147.031 217.809 146.991 217.809Z" fill="#981B29"/>
</g>
<g clip-path="url(#clip1_155_9579)">
<path d="M91.677 208.951H130.81V170H91.677V208.951Z" fill="#787487"/>
<path d="M114.774 177.141H107.718V170H114.774V177.141Z" fill="#898793"/>
<path d="M111.219 247.709H150.353V208.76H111.219V247.709Z" fill="#898793"/>
<path d="M134.312 215.901H127.261V208.76H134.312V215.901Z" fill="#787487"/>
<path d="M70.9438 247.713H110.077V208.763H70.9438V247.713Z" fill="#898793"/>
<path d="M94.0362 215.904H86.9851V208.763H94.0362V215.904Z" fill="#787487"/>
</g>
<defs>
<clipPath id="clip0_155_9579">
<rect width="728" height="347" rx="16" fill="white"/>
</clipPath>
<clipPath id="clip1_155_9579">
<rect width="125.034" height="51.1685" fill="white" transform="translate(77.7754 170)"/>
</clipPath>
</defs>
</svg>
