<svg width="623" height="391" viewBox="0 0 623 391" fill="none" xmlns="http://www.w3.org/2000/svg">
<g clip-path="url(#clip0_144_15419)">
<rect width="623" height="391" rx="24" fill="#FBFBFB"/>
<path d="M113.492 288.756C113.492 299.773 104.562 308.702 93.5454 308.702C82.5291 308.702 73.5986 299.773 73.5986 288.756C73.5986 277.74 82.5291 268.81 93.5454 268.81C104.562 268.81 113.492 277.74 113.492 288.756Z" fill="#BA968D"/>
<path d="M104.167 288.756C104.167 294.621 99.4114 299.377 93.5451 299.377C87.6788 299.377 82.9229 294.621 82.9229 288.756C82.9229 282.89 87.6788 278.134 93.5451 278.134C99.4114 278.134 104.167 282.89 104.167 288.756Z" fill="#DBB1A7"/>
<path d="M329.113 288.756C329.113 307.619 313.822 322.914 294.955 322.914C276.091 322.914 260.8 307.619 260.8 288.756C260.8 269.892 276.091 254.599 294.955 254.599C313.822 254.599 329.113 269.892 329.113 288.756Z" fill="#504359"/>
<path d="M314.901 288.756C314.901 299.773 305.972 308.702 294.955 308.702C283.941 308.702 275.008 299.773 275.008 288.756C275.008 277.74 283.941 268.81 294.955 268.81C305.972 268.81 314.901 277.74 314.901 288.756Z" fill="#BA968D"/>
<path d="M305.577 288.756C305.577 294.621 300.824 299.377 294.955 299.377C289.089 299.377 284.333 294.621 284.333 288.756C284.333 282.89 289.089 278.134 294.955 278.134C300.824 278.134 305.577 282.89 305.577 288.756Z" fill="#DBB1A7"/>
<path d="M250.43 288.756C250.43 307.619 235.139 322.914 216.274 322.914C197.41 322.914 182.117 307.619 182.117 288.756C182.117 269.892 197.41 254.599 216.274 254.599C235.139 254.599 250.43 269.892 250.43 288.756Z" fill="#504359"/>
<path d="M236.222 288.756C236.222 299.773 227.291 308.702 216.275 308.702C205.258 308.702 196.328 299.773 196.328 288.756C196.328 277.74 205.258 268.81 216.275 268.81C227.291 268.81 236.222 277.74 236.222 288.756Z" fill="#BA968D"/>
<path d="M226.896 288.756C226.896 294.621 222.141 299.377 216.274 299.377C210.408 299.377 205.652 294.621 205.652 288.756C205.652 282.89 210.408 278.134 216.274 278.134C222.141 278.134 226.896 282.89 226.896 288.756Z" fill="#DBB1A7"/>
<path d="M328.369 148.153C328.231 147.18 326.331 136.713 309.565 137.375C302.711 137.649 298.652 142.022 294.238 142.597C288.687 143.315 286.991 139.473 288.352 132.743L292.377 111.236L296.135 91.1559C297.74 90.5473 299.272 90.0371 300.737 89.6114C302.496 89.0983 304.152 88.7101 305.717 88.4339C328.309 84.4359 331.137 103.574 331.137 103.574C331.137 103.574 324.97 109.897 323.271 116.898C323.157 117.359 323.063 117.824 322.993 118.294C322.912 118.833 322.859 119.379 322.845 119.92L322.848 119.921C322.802 121.386 323.016 122.846 323.583 124.249C325.171 128.194 326.261 132.866 326.991 137.033C327.109 137.695 327.216 138.346 327.316 138.975C328.071 143.803 328.335 147.599 328.369 148.153Z" fill="#FFDA21"/>
<path d="M322.845 119.92C320.084 116.712 315.575 112.815 308.59 110.064C300.811 107 295.532 108.927 292.378 111.236L296.135 91.1559C297.741 90.5472 299.272 90.0371 300.737 89.6114C302.497 89.0982 304.153 88.7101 305.718 88.4339C328.309 84.4359 331.138 103.574 331.138 103.574C331.138 103.574 323.083 111.835 322.845 119.92Z" fill="#3D77FF"/>
<path d="M305.718 88.4339L298.056 101.975L300.737 89.6114C302.497 89.0983 304.153 88.7101 305.718 88.4339Z" fill="#3161CF"/>
<path d="M292.065 99.8116L287.909 136.529C287.909 136.529 288.898 131.447 292.022 130.07C295.836 128.387 296.249 124.096 296.828 121.921C299.875 110.43 292.065 99.8116 292.065 99.8116Z" fill="#FFAA21"/>
<path d="M296.835 123.011C297.023 120.325 295.94 114.283 282.235 114.827C275.377 115.1 271.318 119.474 266.904 120.048C261.353 120.767 259.657 116.924 261.021 110.195L264.819 89.9016L268.801 68.608C271.278 67.6715 273.577 66.9609 275.719 66.4461C277.928 65.9122 279.969 65.5844 281.846 65.4376C301.273 63.8837 303.807 81.0224 303.807 81.0224L301.246 96.444L296.835 123.011Z" fill="#FFDA21"/>
<path d="M301.246 96.4441C299.698 94.5436 297.71 92.7521 295.173 91.1978C283.468 84.0371 269.8 88.0284 264.819 89.9017L268.801 68.6081C271.278 67.6716 273.577 66.961 275.719 66.4462C277.928 65.9122 279.969 65.5844 281.846 65.4376C290.477 64.7482 295.773 67.7447 298.994 71.2905C299.229 71.5516 299.45 71.8114 299.664 72.0752C300.298 72.8548 300.837 73.6502 301.297 74.4288C301.488 74.7466 301.659 75.062 301.823 75.3737C303.425 78.4422 303.807 81.0225 303.807 81.0225L301.246 96.4441Z" fill="#3D77FF"/>
<path d="M281.846 65.4376L274.65 85.3811L275.719 66.4461C277.928 65.9122 279.969 65.5844 281.846 65.4376Z" fill="#3161CF"/>
<path d="M266.971 106.999C263.475 108.975 260.619 112.995 260.619 112.995L262.875 90.7041L264.571 73.9398C264.571 73.9398 268.439 78.2622 271.224 84.4567C272.857 88.0857 274.12 92.3629 274.006 96.7893C273.872 102.176 271.432 104.478 266.971 106.999Z" fill="#FFAA21"/>
<path d="M271.224 84.4567C266.816 90.6374 262.875 90.7041 262.875 90.7041L264.571 73.9398C264.571 73.9398 268.439 78.2622 271.224 84.4567Z" fill="#3161CF"/>
<path d="M274.006 96.7893C274.006 96.7893 275.541 82.7425 250.855 87.1257C230.65 90.7131 219.531 100.245 219.531 100.245L218.705 50.0291L218.156 16.6468C272.907 15.2022 276.852 46.3035 276.852 46.3035L275.585 68.7964L274.006 96.7893Z" fill="#FFDA21"/>
<path d="M275.585 68.7964C272.924 64.7451 273.446 55.9734 252.159 51.0573C234.502 46.9839 224.147 48.3213 218.705 50.029L218.156 16.6468C272.907 15.2022 276.852 46.3035 276.852 46.3035L275.585 68.7964Z" fill="#3D77FF"/>
<path d="M220.011 222.174L216.604 16.0201L218.76 16L222.167 222.152L220.011 222.174Z" fill="#945561"/>
<path d="M234.348 322.894H58.4063L90.004 224.942H265.945L234.348 322.894Z" fill="#E6E6E6"/>
<path d="M139.889 247.958H97.7846L101.515 237.377H143.619L139.889 247.958Z" fill="#332938"/>
<path d="M229.413 247.958H187.309L191.04 237.377H233.144L229.413 247.958Z" fill="#332938"/>
<path d="M117.669 285.219H177.039L182.086 267.33L122.716 267.331L117.669 285.219Z" fill="#3D77FF"/>
<path d="M112.621 303.105H171.991L177.038 285.219H117.668L112.621 303.105Z" fill="#FFDA21"/>
<path d="M234.348 322.894H522.468L490.867 224.942L382.39 171.816L265.945 224.942L234.348 322.894Z" fill="white"/>
<path d="M338.361 322.894C338.361 322.894 366.656 278.056 384.27 224.122C405.105 281.648 441.425 322.894 441.425 322.894H338.361Z" fill="#332938"/>
<path d="M382.4 171.814L206.389 171.844L90.0038 224.942L266.016 224.912L382.4 171.814Z" fill="#F4F4F4"/>
<path d="M263.81 224.943H261.434L151.057 322.894H153.435L263.81 224.943Z" fill="#332938"/>
<path d="M173.757 224.943H171.372L60.9946 322.894H63.3804L173.757 224.943Z" fill="#332938"/>
<path d="M94.7627 224.944H92.3769L-18 322.894H-15.6142L94.7627 224.944Z" fill="#332938"/>
<path d="M309.901 316.917L308.738 315.845C334.392 288.005 355.002 254.564 368.336 219.132L369.814 219.69C356.41 255.308 335.693 288.93 309.901 316.917Z" fill="#ECECEC"/>
<path d="M311.268 273.38L310.108 272.31C335.515 244.738 344.88 232.764 358.579 196.367L360.057 196.924C346.325 233.413 336.329 246.185 311.268 273.38Z" fill="#ECECEC"/>
<path d="M434.584 290.576C409.522 263.38 399.527 250.608 385.795 214.12L387.273 213.563C400.972 249.96 410.337 261.933 435.747 289.506L434.584 290.576Z" fill="#ECECEC"/>
<path d="M384.27 224.122L406.727 322.894H442.538C442.538 322.894 404.622 275.471 384.27 224.122Z" fill="#ECECEC"/>
<path d="M236.104 203.325L235.746 201.787C248.995 198.691 261.876 194.01 274.027 187.874L274.737 189.284C262.476 195.476 249.478 200.2 236.104 203.325Z" fill="#ECECEC"/>
<path d="M236.711 193.458L236.228 191.952C246.635 188.631 256.265 183.526 264.856 176.778L265.831 178.02C257.093 184.885 247.296 190.079 236.711 193.458Z" fill="#ECECEC"/>
<path d="M556.14 322.897H553.73L510.281 285.129L380.771 172.562L382.349 171.836L509.342 282.223L556.14 322.897Z" fill="#332938"/>
<path d="M221.982 322.894H242.409V294.464H221.982V322.894Z" fill="#918F94"/>
<path d="M224.402 320.447H239.989V296.914H224.402V320.447Z" fill="#787487"/>
<path d="M224.402 319.304V320.447H226.074L239.322 296.914H237.036L224.402 319.304Z" fill="#534E61"/>
<path d="M239.486 320.443H239.989V296.914H239.486V320.443Z" fill="#534E61"/>
<path d="M201.556 322.894H221.983V294.464H201.556V322.894Z" fill="#787487"/>
<path d="M203.975 320.447H219.563V296.914H203.975V320.447Z" fill="#534E61"/>
<path d="M203.975 320.443H204.485V296.914H203.975V320.443Z" fill="#918F94"/>
<path d="M204.484 320.447H206.772L219.562 297.762V296.914H217.732L204.484 320.447Z" fill="#918F94"/>
<path d="M203.975 320.443H206.261L219.509 296.914H217.222L203.975 320.443Z" fill="#787487"/>
<path d="M224.429 320.443H226.715L239.962 296.914H237.676L224.429 320.443Z" fill="#918F94"/>
<path d="M216.103 294.464H236.53V266.035H216.103V294.464Z" fill="#918F94"/>
<path d="M218.522 292.017H234.11V268.485H218.522V292.017Z" fill="#787487"/>
<path d="M218.522 290.874V292.017H220.194L233.443 268.485H231.153L218.522 290.874Z" fill="#534E61"/>
<path d="M233.607 292.014H234.11V268.485H233.607V292.014Z" fill="#534E61"/>
<path d="M195.676 294.464H216.103V266.035H195.676V294.464Z" fill="#787487"/>
<path d="M198.095 292.017H213.683V268.485H198.095V292.017Z" fill="#534E61"/>
<path d="M198.095 292.014H198.605V268.485H198.095V292.014Z" fill="#918F94"/>
<path d="M198.606 292.017H200.892L213.684 269.333V268.485H211.853L198.606 292.017Z" fill="#918F94"/>
<path d="M198.095 292.014H200.382L213.629 268.485H211.343L198.095 292.014Z" fill="#787487"/>
<path d="M218.549 292.014H220.835L234.083 268.485H231.797L218.549 292.014Z" fill="#918F94"/>
<path d="M195.255 322.894H215.681V294.464H195.255V322.894Z" fill="#918F94"/>
<path d="M197.674 320.447H213.262V296.914H197.674V320.447Z" fill="#787487"/>
<path d="M197.674 319.304V320.447H199.346L212.594 296.914H210.307L197.674 319.304Z" fill="#534E61"/>
<path d="M212.76 320.443H213.262V296.914H212.76V320.443Z" fill="#534E61"/>
<path d="M174.828 322.894H195.255V294.464H174.828V322.894Z" fill="#787487"/>
<path d="M177.247 320.447H192.835V296.914H177.247V320.447Z" fill="#534E61"/>
<path d="M177.247 320.443H177.757V296.914H177.247V320.443Z" fill="#918F94"/>
<path d="M177.757 320.447H180.044L192.835 297.762V296.914H191.005L177.757 320.447Z" fill="#918F94"/>
<path d="M177.247 320.443H179.534L192.781 296.914H190.494L177.247 320.443Z" fill="#787487"/>
<path d="M197.701 320.443H199.987L213.235 296.914H210.948L197.701 320.443Z" fill="#918F94"/>
<path d="M483.987 365.128C484.087 365.111 484.203 365.094 484.319 365.094L495.468 364.728L503.488 364.462L651.016 359.586L659.02 359.32L672.998 358.855C673.031 358.855 673.064 358.855 673.097 358.855C674.029 358.855 674.878 359.237 675.494 359.869C676.076 360.452 676.442 361.234 676.475 362.116C676.509 363.147 676.059 364.096 675.327 364.728C674.762 365.244 674.029 365.56 673.214 365.577L633.695 366.891L622.879 367.24L583.792 368.538L571.396 368.938L559.348 369.338L484.536 371.817C484.502 371.817 484.452 371.817 484.419 371.817C482.622 371.817 481.141 370.386 481.075 368.572C481.008 366.841 482.289 365.377 483.953 365.128C483.953 365.128 483.97 365.128 483.987 365.128Z" fill="#95C58C"/>
<path d="M652.946 271.945L649.619 272.011C649.469 270.714 649.286 269.498 649.086 268.351C648.754 266.353 647.722 263.642 646.69 261.279C645.243 257.95 644.461 254.373 644.511 250.746C644.66 240.745 643.046 223.423 631.565 207.533C630.15 205.685 627.521 202.756 623.345 200.577C623.328 200.577 623.295 200.56 623.278 200.543C620.283 198.996 616.922 198.264 613.561 198.23L598.551 198.03L547.883 197.365H547.085C533.49 197.365 520.278 202.008 509.895 210.445C505.085 214.355 500.51 218.647 496.317 223.207C489.844 230.245 484.169 237.982 479.411 246.269V256.353C479.694 259.331 479.976 262.327 480.243 265.339C473.154 264.573 464.905 263.858 455.695 263.425C429.708 262.193 408.624 263.742 395.663 265.073C395.717 264.939 395.761 264.806 395.794 264.673L395.761 264.407C399.958 263.924 403.731 263.458 405.079 263.291C429.142 260.297 434.481 258.732 437.808 257.601C442.734 255.92 449.813 252.975 457.794 247.517C458.348 247.151 458.892 246.768 459.446 246.369C467.347 238.682 476.066 230.711 485.65 222.658C495.368 214.487 504.869 207.15 513.939 200.61C498.746 199.579 482.339 199.062 464.851 199.362C450.693 199.595 437.276 200.344 424.695 201.442L424.684 201.409C425.293 201.06 425.902 200.727 426.5 200.393C432.698 196.966 439.537 194.936 446.616 194.437C481.125 192.058 518.081 190.743 557.202 191.042C577.053 191.192 596.322 191.741 614.975 192.623C618.752 192.806 622.928 195.202 625.175 196.799C627.904 198.746 631.531 201.942 634.66 206.267C646.141 222.158 647.988 240.745 647.838 250.746C647.805 253.075 648.121 255.405 648.737 257.634C649.07 258.882 649.503 260.097 650.018 261.279C651.05 263.642 652.082 266.353 652.415 268.351C652.614 269.482 652.797 270.68 652.946 271.945Z" fill="#95C58C"/>
<path d="M650.85 354.528L651.016 359.586L503.488 364.462L503.322 359.404V359.204C550.829 357.59 598.352 355.975 645.875 354.362C647.523 354.294 649.186 354.245 650.834 354.195L650.85 354.528Z" fill="#3E543A"/>
<path d="M649.652 272.211C651.266 284.99 649.685 294.724 648.82 300.498C647.539 309.085 646.224 319.668 644.843 333.496C629.635 333.645 614.426 333.795 599.217 333.945C599.599 323.844 600.066 315.474 600.465 309.185C601.347 295.073 602.312 284.758 600.481 272.993C612.779 272.76 626.606 272.46 642.481 272.145L649.619 272.011C649.635 272.078 649.635 272.145 649.652 272.211Z" fill="#95C58C"/>
<path d="M603.793 253.591L625.042 253.125C629.136 245.537 630.467 238.832 630.932 234.572C631.632 228.515 633.129 215.103 624.693 207.316C624.676 207.299 624.643 207.266 624.626 207.249C621.531 204.437 617.437 202.99 613.261 202.94L598.501 202.74C598.501 202.69 598.485 202.64 598.485 202.59L598.551 198.03L613.561 198.23C616.922 198.264 620.283 198.996 623.278 200.543C623.295 200.559 623.329 200.577 623.345 200.577C627.521 202.756 630.151 205.685 631.565 207.533C643.046 223.423 644.66 240.745 644.511 250.746C644.461 254.373 645.243 257.95 646.69 261.279C647.722 263.642 648.754 266.353 649.087 268.351C649.287 269.498 649.469 270.714 649.619 272.011L642.481 272.145C626.606 272.46 612.779 272.76 600.481 272.993C600.082 270.313 599.533 267.568 598.801 264.673C597.653 260.147 596.372 256.503 595.44 254.04C595.44 253.957 595.423 253.858 595.423 253.774L603.793 253.591Z" fill="#A7D19F"/>
<path d="M598.802 347.939C613.744 347.472 628.686 346.99 643.629 346.508C644.744 346.474 645.842 346.441 646.957 346.408L645.876 354.262V354.362C598.353 355.975 550.829 357.59 503.322 359.204C494.803 359.486 486.267 359.787 477.747 360.069C477.881 355.094 477.631 347.29 475.251 338.171C472.822 328.853 468.063 310.598 453.619 304.059C447.932 301.48 442.669 301.596 432.818 301.83C423.151 302.063 414.518 303.843 410.625 305.157C408.342 305.939 406.135 307.087 404.036 308.586C402.97 307.488 401.84 306.372 400.643 305.224C403.329 303.227 406.167 301.696 409.103 300.698C413.866 299.085 423.021 297.354 432.698 297.121C435.319 297.055 437.624 297.005 439.69 297.005C445.735 297.005 450.487 297.47 455.565 299.75C472.057 307.221 477.298 327.322 479.811 336.973C481.041 341.699 481.857 346.541 482.24 351.433H489.095C489.162 351.433 489.212 351.433 489.278 351.433C525.787 350.268 562.294 349.103 598.802 347.939Z" fill="#6B9663"/>
<path d="M599.217 333.945C614.427 333.795 629.635 333.645 644.844 333.496C644.444 337.506 644.045 341.815 643.629 346.408V346.508C628.686 346.99 613.744 347.472 598.802 347.939C598.918 342.963 599.068 338.288 599.217 333.945Z" fill="#7EAC75"/>
<path d="M633.695 366.891L633.712 367.24C629.202 383.964 616.856 395.961 602.313 395.961C588.268 395.961 576.271 384.779 571.396 368.955V368.938L583.792 368.538C587.802 376.642 594.924 382.017 603.028 382.017C611.564 382.017 619.002 376.06 622.88 367.24L633.695 366.891Z" fill="#2D2828"/>
<path d="M624.693 207.316C633.129 215.103 631.631 228.515 630.932 234.572C630.467 238.832 629.136 245.537 625.042 253.125L603.793 253.591C603.078 244.006 602.179 234.172 601.08 224.105C600.282 216.834 599.433 209.712 598.501 202.74L613.261 202.94C617.437 202.99 621.531 204.437 624.626 207.249C624.643 207.266 624.676 207.299 624.693 207.316Z" fill="#2F3335"/>
<path d="M583.792 368.538L622.879 367.24C619.002 376.06 611.564 382.017 603.028 382.017C594.924 382.017 587.802 376.642 583.792 368.538Z" fill="#191717"/>
<path d="M603.793 253.591L595.423 253.774C594.874 245.854 594.275 237.85 593.593 229.73C592.827 220.561 591.996 211.543 591.096 202.64L598.501 202.74C599.433 209.712 600.282 216.834 601.08 224.105C602.179 234.172 603.078 244.006 603.793 253.591Z" fill="#7EAC75"/>
<path d="M602.312 395.961H590.148C576.221 395.961 564.29 384.962 559.348 369.354V369.338L571.396 368.938V368.955C576.271 384.779 588.268 395.961 602.312 395.961Z" fill="#453E3D"/>
<path d="M600.481 272.993C602.313 284.758 601.347 295.073 600.465 309.185C600.066 315.474 599.6 323.844 599.217 333.945C569.665 334.244 540.096 334.544 510.544 334.827C501.875 334.909 494.121 329.568 490.959 321.498C489.428 317.538 487.664 313.411 485.651 309.185C484.702 307.187 483.72 305.241 482.739 303.344C482.522 298.135 482.24 292.877 481.907 287.552C481.441 280.015 480.875 272.61 480.243 265.339C492.223 266.654 500.859 268.151 504.987 268.833C522.342 271.678 538.349 272.876 558.483 273.209L571.761 272.976C571.761 274.058 572.643 274.94 573.709 274.94H578.633C579.765 276.57 582.244 277.718 585.14 277.718C588.002 277.718 590.481 276.587 591.613 274.973V274.94H593.926C594.974 274.94 595.84 274.108 595.89 273.059C597.403 273.043 598.934 273.009 600.481 272.993Z" fill="#95C58C"/>
<path d="M582.178 202.523L547.817 202.074C535.121 201.908 522.724 206.101 512.873 214.104C508.597 217.583 504.171 221.643 499.795 226.401C496.683 229.763 493.954 233.124 491.542 236.385C491.524 236.385 491.524 236.385 491.508 236.403C489.644 238.914 487.981 241.361 486.466 243.74C485.218 245.687 484.536 247.934 484.486 250.229C484.47 250.912 484.452 251.594 484.436 252.277C484.42 253.624 485.101 254.806 486.133 255.505C486.766 255.937 487.548 256.17 488.363 256.153L585.074 254.007L595.423 253.774C595.423 253.858 595.44 253.957 595.44 254.04C596.372 256.503 597.653 260.147 598.801 264.673C599.533 267.568 600.082 270.313 600.481 272.993C598.934 273.009 597.403 273.043 595.889 273.059C595.889 273.026 595.889 273.009 595.889 272.976C595.889 271.894 595.008 271.013 593.926 271.013H578.633H573.709C572.643 271.013 571.761 271.894 571.761 272.976L558.483 273.209C538.348 272.876 522.342 271.678 504.987 268.833C500.859 268.151 492.223 266.654 480.243 265.339C479.977 262.327 479.694 259.331 479.411 256.353V246.269C484.17 237.982 489.844 230.245 496.317 223.207C500.51 218.647 505.086 214.355 509.895 210.445C520.278 202.008 533.49 197.365 547.085 197.365H547.883L598.551 198.03L598.485 202.59C598.485 202.64 598.501 202.69 598.501 202.74L591.096 202.64L582.178 202.523Z" fill="#A7D19F"/>
<path d="M510.544 334.827C540.096 334.544 569.665 334.244 599.217 333.945C599.068 338.288 598.918 342.963 598.801 347.939C562.294 349.103 525.786 350.268 489.278 351.432C489.212 351.432 489.161 351.432 489.095 351.432C486.051 351.432 483.588 348.97 483.604 345.909C483.654 332.197 483.388 318.003 482.739 303.344C483.72 305.241 484.702 307.187 485.65 309.185C487.664 313.411 489.428 317.538 490.959 321.498C494.121 329.568 501.875 334.909 510.544 334.827Z" fill="#7EAC75"/>
<path d="M578.634 274.94H573.709C572.643 274.94 571.762 274.058 571.762 272.976C571.762 271.895 572.643 271.013 573.709 271.013H578.634H593.926C595.008 271.013 595.89 271.895 595.89 272.976C595.89 273.009 595.89 273.026 595.89 273.059C595.84 274.108 594.974 274.94 593.926 274.94H591.613H578.634Z" fill="#B8E4AF"/>
<path d="M595.423 253.774L585.073 254.007C584.957 244.955 584.624 235.52 584.025 225.77C583.542 217.766 582.909 210.012 582.178 202.523L591.096 202.64C591.995 211.543 592.827 220.561 593.593 229.73C594.274 237.85 594.873 245.854 595.423 253.774Z" fill="#7EAC75"/>
<path d="M591.613 274.94V274.973C590.481 276.587 588.002 277.718 585.14 277.718C582.244 277.718 579.765 276.57 578.633 274.94H591.613Z" fill="#B8E4AF"/>
<path d="M585.074 254.007L488.363 256.153C487.548 256.17 486.766 255.937 486.133 255.505L486.217 255.405C488.596 256.07 493.554 255.571 505.468 254.407C519.147 253.075 521.743 252.826 523.506 250.247C526.035 246.535 525.154 240.462 522.109 236.934C519.546 233.956 515.969 233.557 508.797 232.774C502.74 232.109 499.346 231.743 495.484 233.607C493.921 234.389 492.622 235.337 491.542 236.385C493.954 233.124 496.683 229.763 499.795 226.401C504.171 221.643 508.597 217.583 512.873 214.104C522.724 206.101 535.121 201.908 547.817 202.074L582.178 202.523C582.91 210.012 583.543 217.766 584.025 225.769C584.625 235.52 584.957 244.955 585.074 254.007Z" fill="#2F3335"/>
<path d="M522.109 236.934C525.154 240.462 526.036 246.536 523.506 250.247C521.743 252.826 519.147 253.075 505.468 254.407C493.554 255.571 488.596 256.07 486.217 255.405L486.133 255.505C485.102 254.806 484.42 253.624 484.436 252.277C484.452 251.594 484.47 250.912 484.486 250.229C484.536 247.934 485.218 245.687 486.466 243.74C487.981 241.361 489.644 238.914 491.508 236.403C491.524 236.385 491.524 236.385 491.542 236.385C492.623 235.337 493.921 234.389 495.485 233.607C499.346 231.743 502.74 232.109 508.797 232.774C515.969 233.557 519.546 233.956 522.109 236.934Z" fill="#7EAC75"/>
<path d="M503.322 359.404L503.488 364.462L495.468 364.728L495.302 359.669L503.322 359.404Z" fill="#7EAC75"/>
<path d="M503.322 359.204V359.404L495.302 359.669L495.468 364.728L484.32 365.094C484.204 365.094 484.087 365.111 483.987 365.128C483.971 365.128 483.953 365.128 483.953 365.128C481.907 365.21 479.861 365.278 477.814 365.344C477.781 363.58 477.764 361.833 477.747 360.069C486.267 359.786 494.803 359.486 503.322 359.204Z" fill="#3E543A"/>
<path d="M513.939 200.61C504.869 207.15 495.368 214.487 485.65 222.658C476.067 230.711 467.347 238.682 459.447 246.369C426.011 245.954 392.597 245.537 359.194 245.121L359.052 244.955C369.784 236.569 381.756 227.916 394.967 219.329C405.177 212.674 415.127 206.733 424.684 201.409L424.695 201.442C437.276 200.344 450.694 199.595 464.851 199.362C482.34 199.062 498.746 199.579 513.939 200.61Z" fill="#2F3335"/>
<path d="M489.095 351.432H482.24C481.857 346.54 481.041 341.699 479.811 336.973C477.298 327.322 472.057 307.221 455.565 299.75C450.487 297.47 445.735 297.004 439.69 297.004C437.624 297.004 435.319 297.055 432.698 297.121C423.021 297.354 413.866 299.085 409.103 300.698C406.167 301.696 403.329 303.227 400.643 305.224C397.675 302.412 394.283 299.467 390.39 296.572C386.095 293.377 381.952 290.748 378.19 288.634C379.821 287.652 381.419 286.521 382.952 285.239C388.639 282.494 396.49 279.299 406.2 277.153C408.059 276.736 415.497 275.139 427.414 274.657C433.753 274.391 441.81 274.424 451.259 275.373C461.143 276.354 469.993 281.895 475.268 290.298C477.781 294.309 480.293 298.652 482.739 303.344C483.388 318.003 483.654 332.197 483.604 345.909C483.588 348.97 486.051 351.432 489.095 351.432Z" fill="#A7D19F"/>
<path d="M481.907 287.552C482.239 292.877 482.522 298.135 482.739 303.344C480.293 298.652 477.78 294.309 475.267 290.298C469.993 281.895 461.143 276.354 451.259 275.373C441.81 274.424 433.753 274.391 427.414 274.657C415.496 275.139 408.059 276.736 406.199 277.153C396.49 279.299 388.639 282.494 382.952 285.239C383.496 284.79 384.029 284.308 384.561 283.809C391.02 277.686 394.097 270.347 395.663 265.073C408.624 263.742 429.708 262.193 455.695 263.425C464.905 263.858 473.155 264.573 480.243 265.339C480.875 272.61 481.441 280.015 481.907 287.552Z" fill="#95C58C"/>
<path d="M426.848 318.203H411.875C403.796 318.203 396.294 321.049 389.955 325.973C393.847 318.37 398.621 312.362 404.036 308.586C406.134 307.087 408.341 305.939 410.625 305.157C414.518 303.843 423.151 302.063 432.818 301.83C442.669 301.596 447.932 301.48 453.618 304.059C468.063 310.598 472.822 328.853 475.251 338.171C477.63 347.29 477.88 355.094 477.746 360.069C477.764 361.833 477.78 363.58 477.814 365.344C477.846 369.27 477.897 373.198 477.947 377.124C477.98 380.569 475.217 383.398 471.773 383.431C469.776 383.448 467.796 383.464 465.797 383.498C467.081 378.672 467.763 373.53 467.763 368.189C467.763 340.584 449.443 318.203 426.848 318.203Z" fill="#3E543A"/>
<path d="M427.74 401.851C424.369 401.851 421.14 401.136 418.16 399.821C407.766 395.262 400.252 383.481 399.828 369.504C399.784 369.071 399.784 368.639 399.784 368.189C399.784 349.586 412.289 334.526 427.74 334.526C443.191 334.526 455.696 349.586 455.696 368.189C455.696 368.639 455.696 369.071 455.663 369.504C455.098 387.491 442.821 401.851 427.74 401.851ZM426.848 318.203C404.264 318.203 385.943 340.584 385.943 368.189C385.943 395.795 404.264 418.175 426.848 418.175C429.73 418.175 432.535 417.809 435.254 417.11H435.286C444.17 414.83 452.009 409.04 457.751 400.953C461.328 395.928 464.101 390.004 465.797 383.498C467.081 378.673 467.763 373.53 467.763 368.189C467.763 340.584 449.443 318.203 426.848 318.203Z" fill="#453E3D"/>
<path d="M245.023 270.963C244.295 270.979 243.555 270.996 242.827 271.013C243.892 269.798 245.11 268.634 246.458 267.585C250.764 264.223 255.907 262.427 261.431 260.513C263.606 259.748 267.716 258.433 278.905 256.353C289.202 254.439 296.955 253.475 297.205 253.441C307.284 252.177 329.39 249.381 357.943 245.82C358.302 245.537 358.694 245.237 359.053 244.955L359.194 245.121C392.597 245.537 426.011 245.954 459.447 246.369C458.892 246.768 458.349 247.151 457.794 247.517L457.783 247.484C433.633 249.131 407.766 251.778 380.408 255.804C354.344 259.632 329.955 264.257 307.328 269.332C288.821 269.931 267.868 270.48 245.023 270.963Z" fill="#95C58C"/>
<path d="M457.783 247.484L457.794 247.517C449.813 252.975 442.734 255.92 437.809 257.601C434.481 258.732 429.143 260.297 405.08 263.291C403.731 263.458 399.958 263.924 395.761 264.407C392.314 264.822 388.574 265.239 385.66 265.505C373.036 266.686 345.341 268.084 307.328 269.332C329.955 264.257 354.345 259.631 380.408 255.804C407.766 251.778 433.633 249.131 457.783 247.484Z" fill="#7EAC75"/>
<path d="M407.309 350.551C410.951 344.428 416.442 340.001 422.803 338.487V361.334L407.309 350.551ZM432.665 338.487C439.026 340.001 444.517 344.428 448.182 350.551L432.665 361.334V338.487ZM427.74 334.526C412.289 334.526 399.784 349.586 399.784 368.189C399.784 368.638 399.784 369.071 399.828 369.504L402.6 369.454C402.59 369.038 402.59 368.605 402.59 368.189C402.59 363.729 403.383 359.503 404.83 355.693L420.335 366.475L422.336 366.841C422.858 363.813 425.065 361.533 427.74 361.533C430.404 361.533 432.633 363.813 433.155 366.841L435.134 366.475L450.661 355.693C452.085 359.503 452.901 363.729 452.901 368.189C452.901 368.605 452.901 369.038 452.89 369.454L455.663 369.504C455.695 369.071 455.695 368.638 455.695 368.189C455.695 349.586 443.191 334.526 427.74 334.526Z" fill="#95C58C"/>
<path d="M430.208 398.34V376.759L446.627 388.174C442.517 393.781 436.732 397.559 430.208 398.34ZM451.575 377.89L435.134 366.475L433.155 366.841C433.231 367.274 433.264 367.723 433.264 368.189C433.264 371.867 430.785 374.845 427.74 374.845C427.164 374.845 426.609 374.745 426.098 374.545L425.283 376.759V398.34C423.238 398.108 421.27 397.559 419.411 396.759L418.16 399.821C421.14 401.136 424.369 401.851 427.74 401.851C442.821 401.851 455.097 387.491 455.663 369.504L452.89 369.454C452.771 372.399 452.325 375.228 451.575 377.89Z" fill="#95C58C"/>
<path d="M452.901 368.189C452.901 368.605 452.901 369.038 452.89 369.454C452.77 372.399 452.325 375.228 451.574 377.89L435.134 366.475L450.661 355.693C452.085 359.503 452.901 363.729 452.901 368.189Z" fill="#2F3335"/>
<path d="M448.182 350.551L432.665 361.334V338.487C439.026 340.001 444.517 344.428 448.182 350.551Z" fill="#2F3335"/>
<path d="M430.208 376.759L446.627 388.174C442.516 393.781 436.732 397.559 430.208 398.34V376.759Z" fill="#2F3335"/>
<path d="M433.154 366.841C433.231 367.274 433.263 367.723 433.263 368.189C433.263 371.867 430.784 374.845 427.739 374.845C427.163 374.845 426.609 374.745 426.098 374.545C423.847 373.697 422.216 371.184 422.216 368.189C422.216 367.723 422.248 367.274 422.335 366.841C422.857 363.813 425.065 361.533 427.739 361.533C430.403 361.533 432.632 363.813 433.154 366.841Z" fill="#2F3335"/>
<path d="M411.875 318.203H426.848C404.264 318.203 385.942 340.584 385.942 368.189C385.942 395.795 404.264 418.175 426.848 418.175H415.768H411.875C400.904 418.175 390.955 412.9 383.615 404.314C377.059 396.677 372.579 386.376 371.339 374.845C371.089 372.665 370.969 370.452 370.969 368.189C370.969 366.542 371.035 364.911 371.165 363.314L379.57 363.963C380.071 358.971 380.821 354.145 381.821 349.536C383.713 340.733 386.475 332.73 389.944 325.991L389.954 325.973C396.294 321.049 403.796 318.203 411.875 318.203Z" fill="#2D2828"/>
<path d="M426.098 374.545L425.282 376.759L408.863 388.174C411.69 392.034 415.3 395.012 419.41 396.759L418.16 399.821C407.765 395.262 400.252 383.481 399.827 369.504L402.6 369.454C402.698 372.399 403.166 375.228 403.916 377.89L420.335 366.475L422.335 366.841C422.248 367.274 422.216 367.723 422.216 368.189C422.216 371.184 423.847 373.697 426.098 374.545Z" fill="#95C58C"/>
<path d="M425.282 376.759V398.34C423.238 398.108 421.27 397.559 419.411 396.759C415.3 395.012 411.69 392.034 408.863 388.174L425.282 376.759Z" fill="#2F3335"/>
<path d="M422.803 338.487V361.334L407.308 350.551C410.951 344.428 416.442 340.001 422.803 338.487Z" fill="#2F3335"/>
<path d="M420.335 366.475L403.916 377.89C403.166 375.228 402.698 372.399 402.6 369.454C402.59 369.038 402.59 368.605 402.59 368.189C402.59 363.729 403.383 359.503 404.829 355.693L420.335 366.475Z" fill="#2F3335"/>
<path d="M400.643 305.224C401.839 306.372 402.97 307.488 404.036 308.586C398.621 312.362 393.847 318.37 389.955 325.973L389.944 325.991C386.475 332.73 383.713 340.733 381.821 349.536H376.994C381.191 329.302 389.705 313.361 400.643 305.224Z" fill="#6B9663"/>
<path d="M369.85 283.809C365.783 286.205 360.705 288.235 348.223 289.915C340.568 290.947 330.086 291.846 317.44 291.413L313.014 274.94C336.023 274.291 359.052 273.642 382.071 272.993C379.668 276.071 375.743 280.348 369.85 283.809ZM382.952 285.24C383.496 284.79 384.029 284.308 384.561 283.809C391.02 277.686 394.097 270.347 395.663 265.073C395.718 264.939 395.761 264.806 395.794 264.674L395.761 264.407C392.314 264.822 388.574 265.239 385.66 265.505C373.036 266.686 345.341 268.085 307.328 269.332C306.806 269.432 306.305 269.548 305.805 269.666L307.817 277.486L310.068 286.171L312.449 295.374C324.225 295.44 334.957 295.456 344.623 295.456C352.887 295.456 366.577 295.64 378.19 288.634C379.821 287.652 381.419 286.522 382.952 285.24Z" fill="#3E543A"/>
<path d="M343.677 343.911C339.176 343.911 335.044 341.35 333.065 337.306L324.856 320.616H344.765C348.32 320.616 351.55 322.713 352.996 325.957L361.053 343.911H343.677ZM378.19 288.634C366.577 295.64 352.887 295.456 344.623 295.456C334.957 295.456 324.225 295.44 312.449 295.373C301.445 295.307 289.55 295.191 276.817 295.007C280.971 295.057 284.831 297.57 287.06 301.065L315.211 345.16C316.722 347.539 319.19 349.087 321.931 349.452H321.985L324.856 349.536H376.994C381.191 329.302 389.705 313.361 400.643 305.224C397.675 302.412 394.282 299.467 390.39 296.572C386.095 293.377 381.952 290.748 378.19 288.634Z" fill="#95C58C"/>
<path d="M313.015 274.94C336.023 274.291 359.053 273.642 382.072 272.993C379.669 276.071 375.743 280.348 369.85 283.809C365.783 286.205 360.706 288.235 348.223 289.915C340.568 290.947 330.086 291.846 317.44 291.413L313.015 274.94Z" fill="#AFD7EF"/>
<path d="M376.994 349.536H381.822C380.821 354.145 380.071 358.971 379.571 363.963L371.166 363.314L370.97 363.296L260.681 354.877H260.626L234.237 352.863C232.997 352.165 231.181 350.983 229.398 349.12C228.615 348.288 227.93 347.44 227.354 346.541L321.931 349.452H321.985C322.376 349.502 322.779 349.536 323.181 349.536H324.856H376.994Z" fill="#6B9663"/>
<path d="M289.92 368.905L280.155 368.189L275.425 364.961L260.681 354.911C260.681 354.893 260.681 354.893 260.681 354.877L370.97 363.296L371.166 363.314C371.035 364.911 370.97 366.542 370.97 368.189C370.97 370.452 371.09 372.665 371.34 374.845L350.615 373.33L338.219 372.432L289.92 368.905Z" fill="#3E543A"/>
<path d="M336.621 332.779C336.023 328.985 337.871 325.542 340.753 325.075C343.634 324.626 346.461 327.338 347.059 331.132C347.657 334.943 345.809 338.388 342.927 338.837C340.057 339.302 337.23 336.59 336.621 332.779ZM344.765 320.616H324.856L333.065 337.306C335.044 341.35 339.176 343.911 343.678 343.911H361.053L352.996 325.957C351.55 322.713 348.321 320.616 344.765 320.616Z" fill="#6B9663"/>
<path d="M338.219 372.432L350.615 373.33C345.211 391.717 330.814 404.863 313.917 404.863C294.53 404.863 278.448 387.591 275.425 364.961L280.155 368.189L289.919 368.905C293.812 380.852 303.446 389.305 314.743 389.305C324.91 389.305 333.728 382.483 338.219 372.432Z" fill="#2D2828"/>
<path d="M347.059 331.132C347.657 334.943 345.809 338.388 342.927 338.837C340.057 339.302 337.23 336.59 336.621 332.779C336.023 328.985 337.871 325.542 340.753 325.075C343.634 324.626 346.461 327.338 347.059 331.132Z" fill="#AFD7EF"/>
<path d="M289.919 368.905L338.219 372.432C333.728 382.483 324.91 389.305 314.743 389.305C303.446 389.305 293.812 380.852 289.919 368.905Z" fill="#191717"/>
<path d="M230.083 326.973C228.93 326.905 227.984 326.057 227.821 324.909C227.636 323.594 227.484 322.18 227.397 320.632C227.299 318.586 227.299 316.356 227.516 313.96C227.571 313.394 227.636 312.845 227.701 312.296C227.864 310.998 228.082 309.784 228.321 308.636C228.549 307.504 229.582 306.705 230.724 306.722C247.317 307.055 263.888 307.371 280.47 307.704C281.416 307.72 282.264 308.286 282.645 309.135C283.34 310.732 284.058 312.346 284.754 313.943C285.961 316.672 287.157 319.384 288.353 322.097C289.038 323.661 289.734 325.225 290.419 326.789C291.137 328.436 289.865 330.284 288.07 330.184C268.738 329.119 249.416 328.037 230.083 326.973ZM234.236 294.075C232.594 294.924 230.267 296.388 228.147 298.784C222.656 304.991 222.776 312.696 223.156 324.993C223.439 334.294 223.722 341.116 227.353 346.54L321.93 349.452C319.19 349.087 316.722 347.539 315.21 345.16L287.059 301.065C284.83 297.57 280.97 295.057 276.816 295.007C264.475 294.824 251.329 294.558 237.433 294.159C236.367 294.141 235.302 294.109 234.236 294.075Z" fill="#6B9663"/>
<path d="M313.917 404.863H299.641C278.089 404.863 260.627 383.531 260.627 357.207C260.627 356.442 260.648 355.676 260.681 354.911L275.426 364.961C278.448 387.591 294.53 404.863 313.917 404.863Z" fill="#453E3D"/>
<path d="M310.068 286.171L312.449 295.374C301.445 295.307 289.55 295.191 276.817 295.007C264.476 294.824 251.33 294.558 237.433 294.159C237.618 291.913 237.988 289.2 238.716 286.171H310.068Z" fill="#3E543A"/>
<path d="M307.817 277.486L310.068 286.171H238.717C239.032 284.79 239.434 283.359 239.935 281.862C240.402 280.431 240.913 279.099 241.468 277.852L307.817 277.486Z" fill="#2F3335"/>
<path d="M305.805 269.666L307.817 277.486L241.467 277.852C242.609 275.123 243.87 272.81 245.023 270.963C267.868 270.48 288.821 269.931 307.328 269.332C306.806 269.432 306.305 269.548 305.805 269.666Z" fill="#3E543A"/>
<path d="M290.419 326.789C291.137 328.436 289.865 330.284 288.071 330.184C268.738 329.119 249.416 328.037 230.083 326.973C228.93 326.905 227.984 326.057 227.821 324.909C227.636 323.594 227.484 322.18 227.397 320.632L227.701 320.616L288.331 322.097H288.353C289.038 323.661 289.734 325.225 290.419 326.789Z" fill="#474E53"/>
<path d="M284.754 313.943C285.961 316.672 287.157 319.384 288.353 322.097H288.332L227.701 320.616L227.397 320.632C227.299 318.586 227.299 316.356 227.517 313.961C227.571 313.394 227.636 312.845 227.701 312.296L284.754 313.943Z" fill="#AFD7EF"/>
<path d="M282.645 309.135C283.341 310.732 284.058 312.346 284.754 313.943L227.702 312.296C227.865 310.999 228.082 309.784 228.321 308.636C228.55 307.504 229.583 306.705 230.724 306.722C247.317 307.055 263.888 307.371 280.47 307.704C281.416 307.72 282.264 308.286 282.645 309.135Z" fill="#474E53"/>
<path d="M238.716 286.171C237.988 289.2 237.618 291.913 237.433 294.159C236.368 294.142 235.302 294.109 234.236 294.075C234.639 289.017 236.118 278.668 242.826 271.013C243.555 270.996 244.294 270.979 245.023 270.963C243.87 272.81 242.609 275.123 241.467 277.852C240.913 279.099 240.402 280.431 239.934 281.862C239.434 283.36 239.032 284.79 238.716 286.171Z" fill="#AFD7EF"/>
<path d="M171.226 400.114H144.33C140.988 400.114 138.253 397.38 138.253 394.037V358.535C138.253 355.192 140.988 352.458 144.33 352.458H171.226C174.568 352.458 177.303 355.192 177.303 358.535V394.037C177.303 397.38 174.568 400.114 171.226 400.114Z" fill="#453E3D"/>
<path d="M65.8788 206.009C66.1439 206.003 66.2211 205.994 66.4857 206.005L129.055 207.462C129.055 207.462 134.077 207.858 136.06 211.559C138.042 215.26 151.391 236.67 154.695 257.157H172.934C172.934 257.157 190.436 266.474 177.754 355.904C177.207 359.757 173.91 362.621 170.018 362.621H146.636C141.764 362.621 136.956 363.733 132.576 365.869L125.085 369.521C120.479 371.764 115.422 372.931 110.298 372.931H66.1823H65.7902H22.0665C16.9421 372.931 11.8853 371.764 7.27913 369.521L-0.211895 365.869C-4.59099 363.733 -9.39894 362.621 -14.2714 362.621H-37.6536C-41.5449 362.621 -44.8427 359.757 -45.3891 355.904C-58.0718 266.474 -40.5689 257.157 -40.5689 257.157H-22.3305C-19.0263 236.67 -5.67775 215.26 -3.69531 211.559C-1.71287 207.858 3.3095 207.462 3.3095 207.462L65.8788 206.009Z" fill="#3D483B"/>
<path d="M8.22139 351.35C7.48198 349.384 5.60081 348.082 3.49969 348.082H-46.3339C-46.0067 350.618 -45.6546 353.225 -45.2749 355.9C-44.7285 359.753 -41.431 362.621 -37.5397 362.621H-14.1571C-9.28509 362.621 -4.47676 363.729 -0.0972672 365.865L7.39376 369.517C10.1694 370.87 13.1097 371.827 16.1294 372.377L8.22139 351.35Z" fill="#2D2E2D"/>
<path d="M162.757 257.154H-30.3923V340.02H162.757V257.154ZM162.408 257.502V339.672H-30.0434V257.502H63.18H66.1823H162.408Z" fill="#393D38"/>
<path d="M162.757 271.427H179.757C182.145 281.796 183.624 299.457 180.896 329.314H162.757V271.427Z" fill="#ED5253"/>
<path opacity="0.7" d="M162.757 271.427H179.757C182.145 281.796 183.624 299.457 180.896 329.314H162.757V271.427Z" fill="#3D483B"/>
<path d="M123.881 343.458C121.273 343.458 118.941 345.084 118.04 347.529L114.219 357.917C112.712 362.016 108.813 364.734 104.449 364.734H66.1824H64.9908H27.9155C23.5526 364.734 19.6526 362.016 18.1461 357.917L14.3244 347.529C13.424 345.084 11.0926 343.458 8.48431 343.458H-47.024C-46.8413 344.973 -46.6502 346.512 -46.4476 348.082H3.38598C5.48671 348.082 7.36787 349.384 8.10728 351.35L16.0153 372.377C18.006 372.741 20.0304 372.927 22.0667 372.927H64.9908H66.1824H110.298C112.334 372.927 114.359 372.741 116.35 372.377L124.258 351.35C124.997 349.384 126.878 348.082 128.979 348.082H178.813C179.015 346.512 179.206 344.973 179.389 343.458H123.881Z" fill="#363C36"/>
<path d="M124.144 351.35C124.883 349.384 126.764 348.082 128.865 348.082H178.698C178.372 350.618 178.02 353.225 177.64 355.9C177.093 359.753 173.796 362.621 169.905 362.621H146.522C141.65 362.621 136.842 363.729 132.463 365.865L124.972 369.517C122.196 370.87 119.255 371.827 116.236 372.377L124.144 351.35Z" fill="#2D2E2D"/>
<path d="M162.757 323.234H166.457C167.138 323.234 167.691 322.684 167.691 322.003V309.49C167.691 308.809 167.138 308.255 166.457 308.255H162.757V323.234Z" fill="white"/>
<path d="M162.757 301.031H166.457C167.138 301.031 167.691 300.477 167.691 299.797V278.473C167.691 277.793 167.138 277.243 166.457 277.243H162.757V301.031Z" fill="#F9EF7D"/>
<path d="M162.757 308.255H-30.4694V301.031H162.757V308.255Z" fill="#363C36"/>
<path d="M76.1 279.181H56.1873C52.4159 279.181 49.3586 276.123 49.3586 272.353V268.519C49.3586 267.451 50.2266 266.581 51.2971 266.581H80.9898C82.0604 266.581 82.9283 267.451 82.9283 268.519V272.353C82.9283 276.123 79.871 279.181 76.1 279.181Z" fill="#363B36"/>
<path d="M80.9898 266.581H51.2971C50.2266 266.581 49.3586 267.451 49.3586 268.519V272.353C49.3586 272.531 49.3677 272.709 49.3807 272.883H82.9058C82.9192 272.709 82.9283 272.531 82.9283 272.353V268.519C82.9283 267.451 82.0604 266.581 80.9898 266.581Z" fill="#363B36"/>
<path d="M76.2214 272.883V270.141C76.2214 269.16 75.4274 268.365 74.4482 268.365H57.8394C56.8602 268.365 56.0662 269.16 56.0662 270.141V272.883H76.2214Z" fill="#221F1F"/>
<path d="M143.593 245.918L132.886 218.368C132.149 216.473 130.465 215.113 128.458 214.785C115.309 212.636 71.1601 211.677 66.1825 211.575V211.556C66.1825 211.556 66.023 211.559 65.7232 211.565C60.7712 211.669 17.0522 212.637 3.90705 214.785C1.90008 215.113 0.215544 216.473 -0.521096 218.368L-11.2285 245.918C-11.2285 245.918 -13.7395 252.263 -7.26361 252.394C-1.10107 252.521 59.83 252.406 65.7232 252.394V252.453C65.7232 252.453 133.153 252.529 139.628 252.394C146.104 252.263 143.593 245.918 143.593 245.918Z" fill="#2F3335"/>
<path d="M46.7109 252.426C46.7164 252.426 46.7192 252.426 46.7243 252.426C46.72 252.426 46.7156 252.426 46.7109 252.426ZM46.9083 252.426C49.8188 252.422 52.5379 252.418 54.9631 252.414C52.5383 252.418 49.8196 252.422 46.9083 252.426ZM18.9401 213.356L18.9413 213.354C36.9779 212.195 62.0173 211.642 65.693 211.565H65.6934C65.9933 211.559 66.1527 211.556 66.1527 211.556V211.557C66.0938 211.558 65.9478 211.561 65.7231 211.565C62.0454 211.642 36.9791 212.196 18.9401 213.356Z" fill="#981B29"/>
<path d="M96.0192 252.473C87.9992 252.469 80.4219 252.465 74.8469 252.461C80.418 252.465 87.996 252.469 96.0192 252.473ZM118.478 252.469C118.488 252.469 118.499 252.469 118.509 252.469C118.499 252.469 118.489 252.469 118.478 252.469ZM118.549 252.469C118.602 252.469 118.656 252.469 118.709 252.469C118.656 252.469 118.602 252.469 118.549 252.469Z" fill="#981B29"/>
</g>
<g clip-path="url(#clip1_144_15419)">
<path d="M43.9583 240.525H96.7289V188H43.9583V240.525Z" fill="#787487"/>
<path d="M75.1039 197.629H65.5896V188H75.1039V197.629Z" fill="#898793"/>
<path d="M70.3109 292.789H123.082V240.267H70.3109V292.789Z" fill="#898793"/>
<path d="M101.451 249.896H91.9423V240.267H101.451V249.896Z" fill="#787487"/>
<path d="M16 292.795H68.7705V240.271H16V292.795Z" fill="#898793"/>
<path d="M47.1396 249.9H37.6313V240.271H47.1396V249.9Z" fill="#787487"/>
</g>
<defs>
<clipPath id="clip0_144_15419">
<rect width="623" height="391" rx="24" fill="white"/>
</clipPath>
<clipPath id="clip1_144_15419">
<rect width="107" height="69" fill="white" transform="translate(16 188)"/>
</clipPath>
</defs>
</svg>
