<svg width="66" height="66" viewBox="0 0 66 66" fill="none" xmlns="http://www.w3.org/2000/svg">
<path d="M1.73878 33C0.778481 33 -0.004776 33.7792 0.0457764 34.7382C0.4403 42.2219 3.37324 49.3687 8.3886 54.9836C13.791 61.0318 21.2314 64.8789 29.2896 65.7907C37.3479 66.7026 45.4598 64.6152 52.077 59.9271C58.6943 55.2389 63.3536 48.2783 65.1656 40.3737C66.9777 32.469 65.8157 24.1739 61.9013 17.0715C57.9869 9.96907 51.5942 4.55671 43.9435 1.86737C36.2927 -0.82196 27.9195 -0.599937 20.422 2.49108C13.4617 5.36063 7.70853 10.5162 4.09354 17.0809C3.63032 17.9221 3.99596 18.9646 4.86037 19.3829C5.72478 19.8012 6.76019 19.4365 7.22863 18.5982C10.4677 12.8017 15.5774 8.24989 21.7475 5.70613C28.4549 2.94086 35.9457 2.74223 42.7902 5.14816C49.6348 7.55408 55.3537 12.3961 58.8556 18.7501C62.3575 25.104 63.3971 32.525 61.776 39.5966C60.1549 46.6683 55.9866 52.8954 50.0667 57.0895C44.1467 61.2836 36.8897 63.151 29.6806 62.3352C22.4716 61.5195 15.8153 58.0778 10.9822 52.667C6.53622 47.6896 3.91945 41.3665 3.52874 34.738C3.47223 33.7793 2.69909 33 1.73878 33Z" fill="#95C58C"/>
</svg>
