<svg width="32" height="32" viewBox="0 0 32 32" fill="none" xmlns="http://www.w3.org/2000/svg">
<path fill-rule="evenodd" clip-rule="evenodd" d="M20.2426 6.37701C22.3254 4.29421 25.7023 4.29421 27.7851 6.37701C29.8679 8.4598 29.8679 11.8367 27.7851 13.9195L16 25.7046C13.1362 28.5684 8.49295 28.5684 5.62911 25.7046C2.76526 22.8407 2.76526 18.1975 5.62911 15.3337L15.5286 5.4342C16.0493 4.9135 16.8935 4.9135 17.4142 5.4342C17.9349 5.9549 17.9349 6.79912 17.4142 7.31982L7.51472 17.2193C5.69228 19.0418 5.69228 21.9965 7.51472 23.819C9.33717 25.6414 12.2919 25.6414 14.1144 23.819L25.8995 12.0339C26.9409 10.9925 26.9409 9.30402 25.8995 8.26263C24.8581 7.22123 23.1697 7.22123 22.1283 8.26263L10.3432 20.0477C10.0828 20.3081 10.0828 20.7302 10.3432 20.9905C10.6035 21.2509 11.0256 21.2509 11.286 20.9905L21.1855 11.0911C21.7062 10.5704 22.5504 10.5704 23.0711 11.0911C23.5918 11.6118 23.5918 12.456 23.0711 12.9767L13.1716 22.8762C11.8698 24.1779 9.75928 24.1779 8.45753 22.8762C7.15579 21.5744 7.15579 19.4639 8.45753 18.1621L20.2426 6.37701Z" fill="#2F3335"/>
</svg>
