<svg width="32" height="32" viewBox="0 0 32 32" fill="none" xmlns="http://www.w3.org/2000/svg">
<path fill-rule="evenodd" clip-rule="evenodd" d="M15.4037 1.47377C15.7791 1.28609 16.2209 1.28609 16.5963 1.47377L29.9296 8.14044C30.3813 8.36629 30.6667 8.82798 30.6667 9.33301V22.6663C30.6667 23.1714 30.3813 23.6331 29.9296 23.8589L16.5963 30.5256C16.2209 30.7133 15.7791 30.7133 15.4037 30.5256L2.07039 23.8589C1.61868 23.6331 1.33334 23.1714 1.33334 22.6663V9.33301C1.33334 8.82798 1.61868 8.36629 2.07039 8.14044L15.4037 1.47377ZM4.00001 10.1571V21.8423L16 27.8423L28 21.8423V10.1571L16 4.15705L4.00001 10.1571Z" fill="#2F3335"/>
<path fill-rule="evenodd" clip-rule="evenodd" d="M1.47409 8.73734C1.80341 8.0787 2.60431 7.81174 3.26295 8.14106L16.5963 14.8077C17.2549 15.137 17.5219 15.9379 17.1926 16.5966C16.8632 17.2552 16.0624 17.5222 15.4037 17.1929L2.07038 10.5262C1.41174 10.1969 1.14478 9.39598 1.47409 8.73734Z" fill="#2F3335"/>
<path fill-rule="evenodd" clip-rule="evenodd" d="M16 14.667C16.7364 14.667 17.3333 15.2639 17.3333 16.0003V29.3337C17.3333 30.07 16.7364 30.667 16 30.667C15.2636 30.667 14.6667 30.07 14.6667 29.3337V16.0003C14.6667 15.2639 15.2636 14.667 16 14.667Z" fill="#2F3335"/>
<path fill-rule="evenodd" clip-rule="evenodd" d="M30.5259 8.73734C30.8552 9.39598 30.5883 10.1969 29.9296 10.5262L16.5963 17.1929C15.9377 17.5222 15.1368 17.2552 14.8074 16.5966C14.4781 15.9379 14.7451 15.137 15.4037 14.8077L28.7371 8.14106C29.3957 7.81174 30.1966 8.0787 30.5259 8.73734Z" fill="#2F3335"/>
<path fill-rule="evenodd" clip-rule="evenodd" d="M23.8592 5.40336C24.1885 6.06199 23.9216 6.86289 23.2629 7.19221L9.92961 13.8589C9.27097 14.1882 8.47007 13.9212 8.14075 13.2626C7.81143 12.604 8.0784 11.8031 8.73704 11.4737L22.0704 4.80707C22.729 4.47775 23.5299 4.74472 23.8592 5.40336Z" fill="#2F3335"/>
</svg>
