<svg width="32" height="32" viewBox="0 0 32 32" fill="none" xmlns="http://www.w3.org/2000/svg">
<g clip-path="url(#clip0_27_6899)">
<path d="M31.4101 17L29.8701 15.46L28.1801 10.37C28.0477 9.97089 27.7928 9.62369 27.4517 9.37774C27.1106 9.13179 26.7006 8.99962 26.2801 9H20.0001V7C20.0001 6.20435 19.6841 5.44129 19.1214 4.87868C18.5588 4.31607 17.7958 4 17.0001 4H3.00012C2.20447 4 1.44141 4.31607 0.878802 4.87868C0.316193 5.44129 0.00012207 6.20435 0.00012207 7V22C0.00012207 22.7956 0.316193 23.5587 0.878802 24.1213C1.44141 24.6839 2.20447 25 3.00012 25H4.14012C4.38352 25.9426 4.96235 26.7642 5.76813 27.3106C6.57391 27.857 7.55131 28.0908 8.51712 27.9681C9.48294 27.8454 10.3709 27.3747 11.0144 26.6442C11.658 25.9137 12.0131 24.9736 12.0131 24C12.0131 23.0264 11.658 22.0863 11.0144 21.3558C10.3709 20.6253 9.48294 20.1545 8.51712 20.0319C7.55131 19.9092 6.57391 20.143 5.76813 20.6894C4.96235 21.2358 4.38352 22.0573 4.14012 23H3.00012C2.73491 23 2.48055 22.8946 2.29302 22.7071C2.10548 22.5196 2.00012 22.2652 2.00012 22V7C2.00012 6.73478 2.10548 6.48043 2.29302 6.29289C2.48055 6.10536 2.73491 6 3.00012 6H17.0001C17.2653 6 17.5197 6.10536 17.7072 6.29289C17.8948 6.48043 18.0001 6.73478 18.0001 7V23H15.0001C14.7349 23 14.4806 23.1053 14.293 23.2929C14.1055 23.4804 14.0001 23.7348 14.0001 24C14.0001 24.2652 14.1055 24.5196 14.293 24.7071C14.4806 24.8946 14.7349 25 15.0001 25H21.1401C21.3704 25.8474 21.8731 26.5954 22.5707 27.1287C23.2683 27.662 24.122 27.951 25.0001 27.951C25.8782 27.951 26.7319 27.662 27.4295 27.1287C28.1271 26.5954 28.6298 25.8474 28.8601 25H30.0001C30.5306 25 31.0393 24.7893 31.4143 24.4142C31.7894 24.0391 32.0001 23.5304 32.0001 23V18.41C31.9979 17.8804 31.7857 17.3733 31.4101 17ZM8.00012 22C8.39569 22 8.78236 22.1173 9.11126 22.3371C9.44016 22.5568 9.69651 22.8692 9.84788 23.2346C9.99926 23.6001 10.0389 24.0022 9.96169 24.3902C9.88452 24.7781 9.69404 25.1345 9.41434 25.4142C9.13463 25.6939 8.77826 25.8844 8.3903 25.9616C8.00234 26.0387 7.60021 25.9991 7.23476 25.8478C6.8693 25.6964 6.55695 25.44 6.33718 25.1111C6.11742 24.7822 6.00012 24.3956 6.00012 24C6.00012 23.4696 6.21084 22.9609 6.58591 22.5858C6.96098 22.2107 7.46969 22 8.00012 22ZM27.6101 15H24.0001V11H26.2801L27.6101 15ZM25.0001 26C24.6046 26 24.2179 25.8827 23.889 25.6629C23.5601 25.4432 23.3037 25.1308 23.1524 24.7654C23.001 24.3999 22.9614 23.9978 23.0386 23.6098C23.1157 23.2218 23.3062 22.8655 23.5859 22.5858C23.8656 22.3061 24.222 22.1156 24.6099 22.0384C24.9979 21.9613 25.4 22.0009 25.7655 22.1522C26.1309 22.3036 26.4433 22.56 26.6631 22.8889C26.8828 23.2178 27.0001 23.6044 27.0001 24C27.0001 24.5304 26.7894 25.0391 26.4143 25.4142C26.0393 25.7893 25.5306 26 25.0001 26ZM30.0001 23H28.8601C28.6298 22.1526 28.1271 21.4046 27.4295 20.8713C26.7319 20.3379 25.8782 20.049 25.0001 20.049C24.122 20.049 23.2683 20.3379 22.5707 20.8713C21.8731 21.4046 21.3704 22.1526 21.1401 23H20.0001V11H22.0001V16C22.0001 16.2652 22.1055 16.5196 22.293 16.7071C22.4806 16.8946 22.7349 17 23.0001 17H28.5901L30.0001 18.41V23Z" fill="#2F3335" stroke="#2F3335" stroke-width="0.4"/>
</g>
<defs>
<clipPath id="clip0_27_6899">
<rect width="32" height="32" fill="white"/>
</clipPath>
</defs>
</svg>
