<svg width="32" height="32" viewBox="0 0 32 32" fill="none" xmlns="http://www.w3.org/2000/svg">
<path fill-rule="evenodd" clip-rule="evenodd" d="M11.5117 5.71271C11.2275 5.64813 10.9447 5.82619 10.8801 6.11042C10.8155 6.39466 10.9936 6.67743 11.2778 6.74201C11.3029 6.7477 11.3272 6.75145 11.3508 6.75353C11.6577 6.78055 11.9458 6.91306 12.1661 7.12851C13.3663 8.30236 14.3813 9.65324 15.1753 11.1351C15.5231 11.7842 15.2788 12.5923 14.6297 12.94C13.9807 13.2878 13.1725 13.0436 12.8248 12.3945C12.2216 11.2688 11.4663 10.2332 10.5813 9.31653C8.92272 8.88087 7.89687 7.20446 8.27972 5.51956C8.67063 3.79917 10.3822 2.72142 12.1026 3.11233C13.1056 3.34025 13.8886 4.01679 14.2908 4.87942C15.7176 5.60263 17.2428 6.11853 18.8201 6.4096L19.1692 6.47401L18.9273 7.78521L19.1692 6.47401C20.3653 6.69472 21.512 7.12826 22.555 7.75401L23.5319 8.34016C24.0166 8.63099 24.4701 8.96936 24.8859 9.34979C25.4291 9.84688 25.4666 10.6903 24.9695 11.2336C24.4724 11.7768 23.629 11.8143 23.0857 11.3172C22.8014 11.057 22.4913 10.8257 22.1599 10.6268L21.183 10.0407C20.4136 9.57904 19.5677 9.25922 18.6853 9.09641L18.3362 9.03199C16.3173 8.65944 14.3721 7.96917 12.5726 6.98853C12.2361 6.80515 11.9948 6.48583 11.9102 6.11205C11.866 5.9166 11.7146 5.75881 11.5117 5.71271Z" fill="#2F3335"/>
<path fill-rule="evenodd" clip-rule="evenodd" d="M24.0704 11.8592C21.4411 10.5446 19.1441 11.1787 18.8847 11.258C18.8779 11.2601 18.8675 11.2636 18.8315 11.2763C18.575 11.367 17.3879 11.7913 16.0447 12.3445C14.6669 12.912 13.2524 13.5642 12.4662 14.1011C10.7289 15.2876 8.71125 17.3809 8.5263 17.5747L8.51855 17.5828L8.51466 17.587C8.45879 17.6471 7.97161 18.1804 7.50588 18.9379C7.02251 19.7241 6.66667 20.5847 6.66667 21.3334C6.66667 22.2913 6.8766 22.878 7.11233 23.2658C7.35443 23.6642 7.68449 23.9542 8.09331 24.2378C8.93195 24.8196 10.1866 25.3333 11.0736 25.3333C11.4093 25.3333 12.0324 25.3717 12.7587 25.4165C12.8289 25.4208 12.9001 25.4252 12.9721 25.4296C13.8203 25.4816 14.852 25.5433 15.9347 25.5843C18.155 25.6684 20.4037 25.6555 21.7108 25.3651C23.1407 25.0473 23.7911 24.759 24.2187 24.4739C24.5699 24.2398 24.8028 23.9999 25.204 23.5866C25.3503 23.4359 25.5189 23.2621 25.7239 23.0572C26.2663 22.5147 26.7198 21.6851 27.0364 20.9558C27.331 20.2772 27.5656 19.5644 27.7499 18.8284C27.9806 17.9069 28.1631 16.7555 28.0181 15.8859C27.884 15.0812 27.6381 14.4971 27.1313 13.9307C26.5872 13.3226 25.6773 12.6627 24.0704 11.8592ZM18.1047 8.70801C18.6602 8.5381 21.7533 7.71926 25.263 9.47411C26.9893 10.3373 28.2461 11.1775 29.1187 12.1526C30.0286 13.1696 30.4493 14.2522 30.6485 15.4475C30.888 16.8844 30.5855 18.4827 30.3367 19.4762C30.1216 20.335 29.8426 21.1884 29.4825 22.0177C29.1229 22.8459 28.509 24.0433 27.6095 24.9428C27.4909 25.0613 27.3721 25.1844 27.2511 25.3096C26.7941 25.7827 26.3074 26.2864 25.6979 26.6927C24.8755 27.241 23.8593 27.6194 22.2892 27.9683C20.5962 28.3445 18.0116 28.3316 15.8337 28.2491C14.7173 28.2068 13.6586 28.1434 12.8088 28.0913L12.6813 28.0834C11.87 28.0336 11.3224 28 11.0736 28C9.44106 28 7.6568 27.1805 6.57335 26.4289C6.02114 26.0458 5.3512 25.5025 4.83356 24.6509C4.30955 23.7887 4 22.7087 4 21.3334C4 19.849 4.65904 18.4768 5.23424 17.5412C5.82708 16.577 6.44214 15.8999 6.56098 15.772C6.57609 15.7557 6.58717 15.7441 6.59739 15.7334C6.76766 15.555 8.96275 13.2645 10.9623 11.8989C12.0062 11.1861 13.6613 10.4422 15.0291 9.87881C16.4315 9.30121 17.6659 8.85996 17.9426 8.7621C17.9794 8.7491 18.0377 8.72849 18.1047 8.70801Z" fill="#2F3335"/>
<path fill-rule="evenodd" clip-rule="evenodd" d="M4.34629 10.9705C4.06205 10.9059 3.77928 11.084 3.71469 11.3682C3.65011 11.6525 3.82817 11.9352 4.11241 11.9998C4.13745 12.0055 4.16178 12.0093 4.18537 12.0113C4.49231 12.0384 4.78042 12.1709 5.00071 12.3863C6.3156 13.6724 7.40827 15.1709 8.23145 16.8213L8.63173 17.6238L10.0548 20.016C10.276 20.3878 10.5457 20.7285 10.8568 21.0292L11.3494 21.5054C11.9653 22.1006 12.7474 22.4947 13.5922 22.6355C14.5983 22.8032 15.6229 22.4677 16.3349 21.7372L16.6423 21.4218C17.0379 21.0159 17.2921 20.4933 17.3671 19.9315L17.386 19.7904C17.5015 18.9251 17.2425 18.0515 16.674 17.389L16.4037 17.0741C16.0008 16.6045 15.525 16.2029 14.9945 15.8846L14.0176 15.2985C13.2482 14.8369 12.4023 14.517 11.5199 14.3542L11.1708 14.2898C9.15188 13.9172 7.20671 13.227 5.40724 12.2463C5.07073 12.063 4.8294 11.7436 4.74481 11.3699C4.70058 11.1744 4.54919 11.0166 4.34629 10.9705ZM1.11431 10.7774C1.50522 9.05698 3.21677 7.97923 4.93715 8.37014C5.94023 8.59806 6.72316 9.27461 7.12538 10.1372C8.55222 10.8604 10.0774 11.3763 11.6547 11.6674L12.0038 11.7318L11.7619 13.043L12.0038 11.7318C13.1999 11.9525 14.3466 12.3861 15.3896 13.0118L16.3665 13.598C17.1423 14.0635 17.8382 14.6508 18.4274 15.3375L18.6977 15.6524C19.761 16.8915 20.2453 18.5251 20.0292 20.1434L20.0103 20.2845C19.8593 21.4149 19.3479 22.4664 18.5519 23.2831L18.2445 23.5985C16.923 24.9543 15.0213 25.5772 13.1538 25.2659C11.776 25.0363 10.5005 24.3935 9.49615 23.4228L10.4228 22.4641L9.49615 23.4228L9.00347 22.9466C8.52232 22.4815 8.10519 21.9545 7.76306 21.3794L6.31471 18.9448C6.29789 18.9165 6.28213 18.8877 6.26745 18.8582L5.84514 18.0115C5.21414 16.7464 4.3943 15.5878 3.41591 14.5743C1.75732 14.1387 0.731464 12.4623 1.11431 10.7774Z" fill="#2F3335"/>
</svg>
