<svg width="32" height="32" viewBox="0 0 32 32" fill="none" xmlns="http://www.w3.org/2000/svg">
<path fill-rule="evenodd" clip-rule="evenodd" d="M10.5416 4.66667C10.2425 4.66667 9.99998 4.90917 9.99998 5.20833V8.28771C9.99998 9.02409 9.40303 9.62104 8.66665 9.62104C7.93027 9.62104 7.33331 9.02409 7.33331 8.28771V5.20833C7.33331 3.43644 8.76969 2 10.5416 2H26.7916C28.5636 2 30 3.43644 30 5.20833V21.4583C30 23.2303 28.5636 24.6667 26.7916 24.6667H23.6775C22.9411 24.6667 22.3442 24.0697 22.3442 23.3333C22.3442 22.597 22.9411 22 23.6775 22H26.7916C27.0908 22 27.3333 21.7575 27.3333 21.4583V5.20833C27.3333 4.90917 27.0908 4.66667 26.7916 4.66667H10.5416Z" fill="#2F3335"/>
<path fill-rule="evenodd" clip-rule="evenodd" d="M5.20833 9.99967C4.90918 9.99967 4.66667 10.2422 4.66667 10.5413V26.7913C4.66667 27.0905 4.90918 27.333 5.20833 27.333H21.4583C21.7575 27.333 22 27.0905 22 26.7913V10.5413C22 10.2422 21.7575 9.99967 21.4583 9.99967H5.20833ZM2 10.5413C2 8.76943 3.43642 7.33301 5.20833 7.33301H21.4583C23.2302 7.33301 24.6667 8.76943 24.6667 10.5413V26.7913C24.6667 28.5633 23.2302 29.9997 21.4583 29.9997H5.20833C3.43642 29.9997 2 28.5633 2 26.7913V10.5413Z" fill="#2F3335"/>
</svg>
