<svg width="32" height="32" viewBox="0 0 32 32" fill="none" xmlns="http://www.w3.org/2000/svg">
<path fill-rule="evenodd" clip-rule="evenodd" d="M4.66669 3.99967C4.66669 2.52692 5.86059 1.33301 7.33335 1.33301H26C27.4728 1.33301 28.6667 2.52692 28.6667 3.99967V27.9997C28.6667 29.4724 27.4728 30.6663 26 30.6663H7.33335C5.86059 30.6663 4.66669 29.4724 4.66669 27.9997V3.99967ZM26 3.99967L7.33335 3.99967V27.9997H26V3.99967Z" fill="#2F3335"/>
<path fill-rule="evenodd" clip-rule="evenodd" d="M10 20.0003C10 19.2639 10.597 18.667 11.3333 18.667L20.6667 18.667C21.403 18.667 22 19.2639 22 20.0003C22 20.7367 21.403 21.3337 20.6667 21.3337L11.3333 21.3337C10.597 21.3337 10 20.7367 10 20.0003Z" fill="#2F3335"/>
<path fill-rule="evenodd" clip-rule="evenodd" d="M10 24.0003C10 23.2639 10.597 22.667 11.3333 22.667H16C16.7364 22.667 17.3333 23.2639 17.3333 24.0003C17.3333 24.7367 16.7364 25.3337 16 25.3337H11.3333C10.597 25.3337 10 24.7367 10 24.0003Z" fill="#2F3335"/>
<path fill-rule="evenodd" clip-rule="evenodd" d="M10 8.00033C10 7.26395 10.597 6.66699 11.3333 6.66699H20.6667C21.403 6.66699 22 7.26395 22 8.00033V14.667C22 15.4034 21.403 16.0003 20.6667 16.0003H11.3333C10.597 16.0003 10 15.4034 10 14.667V8.00033ZM12.6667 9.33366V13.3337H19.3333V9.33366H12.6667Z" fill="#2F3335"/>
</svg>
