<svg width="32" height="32" viewBox="0 0 32 32" fill="none" xmlns="http://www.w3.org/2000/svg">
<path fill-rule="evenodd" clip-rule="evenodd" d="M16.0055 6.66699C16.7419 6.66699 17.3389 7.26395 17.3389 8.00033V23.9333C17.3389 24.6697 16.7419 25.2667 16.0055 25.2667C15.2692 25.2667 14.6722 24.6697 14.6722 23.9333V8.00033C14.6722 7.26395 15.2692 6.66699 16.0055 6.66699Z" fill="#2F3335"/>
<path fill-rule="evenodd" clip-rule="evenodd" d="M7.05718 15.0575C7.57788 14.5368 8.4221 14.5368 8.9428 15.0575L16 22.1147L23.0572 15.0575C23.5779 14.5368 24.4221 14.5368 24.9428 15.0575C25.4635 15.5782 25.4635 16.4224 24.9428 16.9431L16.9428 24.9431C16.4221 25.4638 15.5779 25.4638 15.0572 24.9431L7.05718 16.9431C6.53648 16.4224 6.53648 15.5782 7.05718 15.0575Z" fill="#2F3335"/>
</svg>
