<svg width="32" height="32" viewBox="0 0 32 32" fill="none" xmlns="http://www.w3.org/2000/svg">
<path d="M16 0.5C7.16323 0.5 0 7.43937 0 16C0 24.5606 7.16323 31.5 16 31.5C24.8368 31.5 32 24.5606 32 16C32 7.43937 24.8368 0.5 16 0.5ZM26.3226 13.9688V14.4019C26.3226 14.7687 26.1084 15.1044 25.7697 15.2681L24.7768 15.7494C24.6191 15.8258 24.4433 15.8605 24.2674 15.8498C24.0914 15.8392 23.9215 15.7836 23.7748 15.6888L22.6 14.93C22.4733 14.8482 22.3289 14.7955 22.178 14.7759C22.0271 14.7563 21.8735 14.7703 21.729 14.8169L21.5581 14.8719C20.9323 15.0737 20.6768 15.7963 21.0426 16.3281L21.8968 17.5694C22.0819 17.8387 22.3942 18.0006 22.7284 18.0006H23.2581C23.8103 18.0006 24.2581 18.4344 24.2581 18.9694V19.6781C24.2581 19.8875 24.1877 20.0919 24.0581 20.2594L22.849 21.8206C22.7574 21.9394 22.6948 22.0769 22.6665 22.2225L22.389 23.6494C22.349 23.855 22.2413 24.0425 22.0819 24.1844C21.4705 24.7268 20.929 25.3387 20.469 26.0069L19.6284 27.2288C19.4649 27.4663 19.2434 27.6612 18.9835 27.7959C18.7236 27.9307 18.4335 28.0012 18.1387 28.0012C17.4606 28.0012 16.8406 27.63 16.5374 27.0425C16.184 26.3577 16 25.6025 16 24.8369V22.9688C16 22.4338 15.5523 22 15 22H13.3303C12.3955 22 11.4994 21.64 10.8381 21C10.1773 20.3595 9.80599 19.4911 9.80581 18.5856V17.7069C9.80581 16.6325 10.3284 15.6206 11.2155 14.9756L12.9948 13.6825C13.605 13.2393 14.347 12.9996 15.1097 12.9994H15.1671C15.7142 12.9994 16.2542 13.1225 16.7432 13.36L17.6929 13.82C17.9303 13.935 18.2045 13.9538 18.4561 13.8725L21.5084 12.8869C21.9168 12.755 22.1923 12.385 22.1923 11.9681C22.1923 11.4331 21.7445 10.9994 21.1923 10.9994H20.5413C20.2761 10.9994 20.0219 10.8975 19.8342 10.7156L19.3877 10.2831C19.2949 10.1931 19.1847 10.1218 19.0633 10.0731C18.942 10.0244 18.812 9.99935 18.6806 9.99938H12.871C12.3187 9.99938 11.871 9.56563 11.871 9.03063V8.75562C11.871 8.31125 12.1832 7.92375 12.6284 7.81563L13.5606 7.59C13.8019 7.53125 14.0123 7.38812 14.1503 7.1875L14.6716 6.43062C14.8568 6.16125 15.169 5.99937 15.5032 5.99937H17.0652C17.6174 5.99937 18.0652 5.56562 18.0652 5.03062V3.67438C23.1761 4.47688 27.2813 8.18875 28.5116 13H27.3226C26.7703 13 26.3226 13.4338 26.3226 13.9688Z" fill="#2F3335"/>
</svg>
