<svg width="32" height="32" viewBox="0 0 32 32" fill="none" xmlns="http://www.w3.org/2000/svg">
<path fill-rule="evenodd" clip-rule="evenodd" d="M10 6.66667C6.6863 6.66667 4.00001 9.35296 4.00001 12.6667C4.00001 15.8212 5.8854 19.0008 8.53078 21.6724C10.9927 24.1586 13.9158 26.0028 16 26.8014C18.0842 26.0028 21.0073 24.1586 23.4692 21.6724C26.1146 19.0008 28 15.8212 28 12.6667C28 9.35296 25.3137 6.66667 22 6.66667C19.9718 6.66667 18.1783 7.67171 17.0902 9.21691C16.8404 9.57156 16.4338 9.78256 16 9.78256C15.5662 9.78256 15.1596 9.57156 14.9099 9.21691C13.8217 7.67171 12.0282 6.66667 10 6.66667ZM1.33334 12.6667C1.33334 7.8802 5.21354 4 10 4C12.3294 4 14.4438 4.91976 16 6.41293C17.5562 4.91976 19.6706 4 22 4C26.7865 4 30.6667 7.8802 30.6667 12.6667C30.6667 16.8455 28.2187 20.6658 25.3641 23.5487C22.4965 26.4446 18.9895 28.629 16.4205 29.4827C16.1475 29.5734 15.8525 29.5734 15.5795 29.4827C13.0105 28.629 9.5035 26.4446 6.63591 23.5487C3.78129 20.6658 1.33334 16.8455 1.33334 12.6667Z" fill="#2F3335"/>
</svg>
