<svg width="32" height="32" viewBox="0 0 32 32" fill="none" xmlns="http://www.w3.org/2000/svg">
<path fill-rule="evenodd" clip-rule="evenodd" d="M6.16153 12.3246C5.11529 12.9225 4.20794 13.678 3.60949 14.2765C3.08879 14.7972 2.24457 14.7972 1.72387 14.2765C1.20317 13.7558 1.20317 12.9115 1.72387 12.3908C2.45874 11.656 3.5514 10.7448 4.83849 10.0093C6.11459 9.28014 7.68104 8.66699 9.33334 8.66699C10.18 8.66699 11.2126 8.87125 12.2339 9.15226C13.2781 9.43955 14.4016 9.83297 15.4622 10.2659C16.5215 10.6982 17.5429 11.1801 18.3788 11.6514C18.7962 11.8867 19.1838 12.1286 19.5132 12.3695C19.8254 12.598 20.1577 12.8773 20.4 13.2003C20.9282 13.9046 20.9454 14.6758 20.7717 15.3041C21.2493 15.2127 21.7488 15.1179 22.2543 15.0232C23.5908 14.7726 24.976 14.5207 26.1141 14.331C27.1887 14.1519 28.1957 14.0003 28.6667 14.0003C29.2076 14.0003 29.8103 14.1355 30.2947 14.5594C30.8024 15.0036 31 15.607 31 16.167C31 17.1855 30.3785 18.1741 29.6095 18.9431C28.8868 19.6658 27.3119 21.0641 25.3825 22.2919C23.4903 23.496 21.0565 24.667 18.6667 24.667C16.4409 24.667 14.604 24.1071 13.0784 23.5986C12.9352 23.5508 12.7962 23.5042 12.661 23.4588C11.2832 22.9966 10.3006 22.667 9.33334 22.667H2.66668C1.9303 22.667 1.33334 22.07 1.33334 21.3337C1.33334 20.5973 1.9303 20.0003 2.66668 20.0003H9.33334C10.7665 20.0003 12.1849 20.481 13.4676 20.9157C13.621 20.9677 13.7724 21.019 13.9216 21.0687C15.396 21.5602 16.8925 22.0003 18.6667 22.0003C20.2769 22.0003 22.1763 21.1713 23.9508 20.0421C25.6882 18.9365 27.1132 17.6682 27.7239 17.0575C27.8373 16.9441 27.9326 16.8362 28.0117 16.736C27.6512 16.785 27.1595 16.8602 26.5525 16.9614C25.4407 17.1467 24.0759 17.3947 22.7457 17.6442C21.417 17.8933 20.1289 18.1426 19.1727 18.3297C18.6947 18.4232 18.2999 18.5011 18.0247 18.5556L17.5952 18.641C17.5952 18.641 17.5948 18.6411 17.3333 17.3337L17.5952 18.641C17.3677 18.6865 17.1318 18.6719 16.9117 18.5986L12.9117 17.2652C12.2131 17.0324 11.8356 16.2773 12.0684 15.5787C12.3013 14.8801 13.0564 14.5026 13.755 14.7354L17.0926 15.848C17.2989 15.6795 17.5299 15.4745 17.7356 15.2551C17.9538 15.0224 18.0893 14.8303 18.1584 14.6953C18.1027 14.6467 18.0301 14.5887 17.9387 14.5217C17.7199 14.3617 17.4278 14.1765 17.0692 13.9743C16.353 13.5706 15.4369 13.1358 14.4545 12.7348C13.4734 12.3343 12.4511 11.9778 11.5265 11.7234C10.5791 11.4627 9.82005 11.3337 9.33334 11.3337C8.31898 11.3337 7.21876 11.7205 6.16153 12.3246Z" fill="#2F3335"/>
</svg>
