<svg width="32" height="32" viewBox="0 0 32 32" fill="none" xmlns="http://www.w3.org/2000/svg">
<path fill-rule="evenodd" clip-rule="evenodd" d="M5.62908 5.62878C8.28176 2.97609 11.9503 1.33301 16 1.33301C20.0497 1.33301 23.7182 2.97609 26.3709 5.62878C29.0236 8.28146 30.6666 11.95 30.6666 15.9997C30.6666 20.0494 29.0236 23.7179 26.3709 26.3706C23.7182 29.0233 20.0497 30.6663 16 30.6663C11.9503 30.6663 8.28176 29.0233 5.62908 26.3706C2.9764 23.7179 1.33331 20.0494 1.33331 15.9997C1.33331 11.95 2.9764 8.28146 5.62908 5.62878ZM16 3.99967C12.6859 3.99967 9.68773 5.34136 7.5147 7.51439C5.34167 9.68743 3.99998 12.6856 3.99998 15.9997C3.99998 19.3138 5.34167 22.3119 7.5147 24.485C9.68773 26.658 12.6859 27.9997 16 27.9997C19.3141 27.9997 22.3122 26.658 24.4853 24.485C26.6583 22.3119 28 19.3138 28 15.9997C28 12.6856 26.6583 9.68743 24.4853 7.51439C22.3122 5.34136 19.3141 3.99967 16 3.99967Z" fill="#2F3335"/>
<path fill-rule="evenodd" clip-rule="evenodd" d="M16 7.33301C16.9205 7.33301 17.6666 8.0792 17.6666 8.99967C17.6666 9.92015 16.9205 10.6663 16 10.6663C15.0795 10.6663 14.3333 9.92015 14.3333 8.99967C14.3333 8.0792 15.0795 7.33301 16 7.33301Z" fill="#2F3335"/>
<path fill-rule="evenodd" clip-rule="evenodd" d="M16.3333 23.9997C17.0697 23.9997 17.6666 23.4027 17.6666 22.6663V13.333C17.6666 12.5966 17.0697 11.9997 16.3333 11.9997H15C14.2636 11.9997 13.6666 12.5966 13.6666 13.333C13.6666 14.0694 14.2636 14.6663 15 14.6663V22.6663C15 23.4027 15.5969 23.9997 16.3333 23.9997Z" fill="#2F3335"/>
<path fill-rule="evenodd" clip-rule="evenodd" d="M12.6666 22.6663C12.6666 23.4027 13.2636 23.9997 14 23.9997H18.6666C19.403 23.9997 20 23.4027 20 22.6663C20 21.93 19.403 21.333 18.6666 21.333H14C13.2636 21.333 12.6666 21.93 12.6666 22.6663Z" fill="#2F3335"/>
</svg>
