<svg width="32" height="32" viewBox="0 0 32 32" fill="none" xmlns="http://www.w3.org/2000/svg">
<path d="M28.8 3.2002C29.6487 3.2002 30.4626 3.53734 31.0627 4.13745C31.6629 4.73757 32 5.5515 32 6.4002V25.6002C32 26.4489 31.6629 27.2628 31.0627 27.8629C30.4626 28.4631 29.6487 28.8002 28.8 28.8002H3.2C2.35131 28.8002 1.53737 28.4631 0.937258 27.8629C0.337142 27.2628 0 26.4489 0 25.6002V6.4002C0 4.6402 1.44 3.2002 3.2 3.2002H28.8ZM21.808 17.7602L32 25.6002V22.4002L23.808 16.1602L32 9.6002V6.4002L16 19.2002L0 6.4002V9.6002L8.192 16.1602L0 22.4002V25.6002L10.192 17.7602L16 22.4002L21.808 17.7602Z" fill="#2F3335"/>
</svg>
