<svg width="32" height="32" viewBox="0 0 32 32" fill="none" xmlns="http://www.w3.org/2000/svg">
<path fill-rule="evenodd" clip-rule="evenodd" d="M14.2065 13.2877C14.9401 11.8012 17.0598 11.8012 17.7935 13.2877L19.6284 17.0057L23.7315 17.6019C25.3719 17.8403 26.0269 19.8562 24.8399 21.0133L21.8709 23.9074L22.5718 27.9939C22.852 29.6277 21.1371 30.8736 19.6699 30.1022L16 28.1729L12.3301 30.1022C10.8629 30.8736 9.14798 29.6277 9.4282 27.9939L10.1291 23.9074L7.16009 21.0133C5.97305 19.8563 6.62807 17.8403 8.26851 17.6019L12.3716 17.0057L14.2065 13.2877ZM16 15.6792L14.6078 18.5002C14.3164 19.0905 13.7533 19.4996 13.1019 19.5943L9.98875 20.0466L12.2414 22.2425C12.7128 22.7019 12.9279 23.3639 12.8166 24.0127L12.2848 27.1133L15.0693 25.6494C15.652 25.3431 16.348 25.3431 16.9307 25.6494L19.7152 27.1133L19.1834 24.0127C19.0721 23.3639 19.2872 22.7019 19.7586 22.2425L22.0112 20.0466L18.8981 19.5943C18.2467 19.4996 17.6836 19.0905 17.3922 18.5002L16 15.6792Z" fill="#2F3335"/>
<path fill-rule="evenodd" clip-rule="evenodd" d="M6.66666 2.66634C6.66666 1.92996 7.26361 1.33301 7.99999 1.33301H24C24.7364 1.33301 25.3333 1.92996 25.3333 2.66634V9.33301C25.3333 9.87128 25.0097 10.3568 24.5128 10.5638L16.5128 13.8971C16.1846 14.0339 15.8154 14.0339 15.4872 13.8971L7.48717 10.5638C6.99031 10.3568 6.66666 9.87128 6.66666 9.33301V2.66634ZM9.33332 3.99967V8.44412L16 11.2219L22.6667 8.44412V3.99967H9.33332Z" fill="#2F3335"/>
</svg>
