<svg width="32" height="32" viewBox="0 0 32 32" fill="none" xmlns="http://www.w3.org/2000/svg">
<path fill-rule="evenodd" clip-rule="evenodd" d="M28.7458 11.5416C29.2665 12.0623 29.2665 12.9065 28.7458 13.4272L16.0178 26.1551L14.1322 24.2695L25.9173 12.4844L19.3177 5.88471L7.53256 17.6698L5.64694 15.7842L18.3749 3.05628C18.8956 2.53559 19.7398 2.53559 20.2605 3.05628L28.7458 11.5416Z" fill="#2F3335"/>
<path fill-rule="evenodd" clip-rule="evenodd" d="M18.3749 28.5121C17.8542 29.0328 17.01 29.0328 16.4893 28.5121L3.28993 15.3128C2.76923 14.7921 2.76923 13.9479 3.28993 13.4272C3.81063 12.9065 4.65485 12.9065 5.17555 13.4272L18.3749 26.6265C18.8956 27.1472 18.8956 27.9914 18.3749 28.5121Z" fill="#2F3335"/>
<path fill-rule="evenodd" clip-rule="evenodd" d="M23.0889 13.4272C22.5682 13.9479 21.724 13.9479 21.2033 13.4272L18.3749 10.5988C17.8542 10.0781 17.8542 9.23384 18.3749 8.71314C18.8956 8.19244 19.7398 8.19244 20.2605 8.71314L23.0889 11.5416C23.6096 12.0623 23.6096 12.9065 23.0889 13.4272Z" fill="#2F3335"/>
<path fill-rule="evenodd" clip-rule="evenodd" d="M9.88968 26.6264C9.36898 27.1471 8.52476 27.1471 8.00406 26.6264L5.17563 23.798C4.65494 23.2773 4.65494 22.4331 5.17563 21.9124C5.69633 21.3917 6.54055 21.3917 7.06125 21.9124L9.88968 24.7408C10.4104 25.2615 10.4104 26.1057 9.88968 26.6264Z" fill="#2F3335"/>
<path fill-rule="evenodd" clip-rule="evenodd" d="M28.7453 3.05621C29.266 3.57691 29.266 4.42113 28.7453 4.94183L24.5031 9.18396C23.9824 9.70465 23.1382 9.70465 22.6175 9.18396C22.0968 8.66326 22.0968 7.81904 22.6175 7.29834L26.8597 3.05621C27.3804 2.53552 28.2246 2.53552 28.7453 3.05621Z" fill="#2F3335"/>
<path fill-rule="evenodd" clip-rule="evenodd" d="M11.7752 20.0269C12.2959 20.5476 12.2959 21.3918 11.7752 21.9125L9.4187 24.269C8.898 24.7897 8.05378 24.7897 7.53309 24.269C7.01239 23.7483 7.01239 22.9041 7.53309 22.3834L9.88959 20.0269C10.4103 19.5062 11.2545 19.5062 11.7752 20.0269Z" fill="#2F3335"/>
</svg>
