<svg width="32" height="32" viewBox="0 0 32 32" fill="none" xmlns="http://www.w3.org/2000/svg">
<path d="M32 29.36V30.4C32 30.8243 31.8314 31.2313 31.5314 31.5314C31.2313 31.8314 30.8243 32 30.4 32H27.2C19.9861 32 13.0677 29.1343 7.9667 24.0333C2.86571 18.9323 0 12.0139 0 4.8L0 1.6C0 1.17565 0.168571 0.768687 0.468629 0.468629C0.768687 0.168571 1.17565 0 1.6 0L8 0C8.42435 0 8.83131 0.168571 9.13137 0.468629C9.43143 0.768687 9.6 1.17565 9.6 1.6V8C9.6 8.896 9.104 10.096 8.48 10.72L5.056 14.144C7.488 19.904 12.096 24.512 17.856 26.944L21.248 23.552C21.888 22.912 23.088 22.416 23.968 22.416H30.4C30.8216 22.4202 31.2244 22.5906 31.521 22.8902C31.8176 23.1899 31.984 23.5944 31.984 24.016V29.376L32 29.36Z" fill="#2F3335"/>
</svg>
