<svg width="32" height="32" viewBox="0 0 32 32" fill="none" xmlns="http://www.w3.org/2000/svg">
<path fill-rule="evenodd" clip-rule="evenodd" d="M4.66666 12.6663C4.66666 6.40709 9.74074 1.33301 16 1.33301C22.2592 1.33301 27.3333 6.40709 27.3333 12.6663C27.3333 17.4722 24.5872 21.9426 22.0357 25.0894C20.7394 26.6881 19.4464 28.0023 18.478 28.9169C17.9929 29.3751 17.5871 29.735 17.3002 29.9823C17.1566 30.106 17.0427 30.2017 16.9632 30.2676C16.9234 30.3005 16.8923 30.326 16.8704 30.3439L16.8445 30.3648L16.8369 30.371L16.8345 30.3729L16.8336 30.3736C16.8332 30.3739 16.8329 30.3742 16 29.333C15.1671 30.3742 15.1668 30.3739 15.1664 30.3736L15.1631 30.371L15.1555 30.3648L15.1296 30.3439C15.1077 30.326 15.0765 30.3005 15.0368 30.2676C14.9573 30.2017 14.8433 30.106 14.6998 29.9823C14.4128 29.735 14.007 29.3751 13.522 28.9169C12.5535 28.0023 11.2605 26.6881 9.96431 25.0894C7.41282 21.9426 4.66666 17.4722 4.66666 12.6663ZM16 29.333L15.1671 30.3742C15.654 30.7637 16.346 30.7637 16.8329 30.3742L16 29.333ZM16 27.5743C16.1904 27.4034 16.4079 27.204 16.647 26.9782C17.5535 26.1221 18.7605 24.8946 19.9643 23.4099C22.4128 20.3901 24.6667 16.5272 24.6667 12.6663C24.6667 7.87985 20.7865 3.99967 16 3.99967C11.2135 3.99967 7.33332 7.87985 7.33332 12.6663C7.33332 16.5272 9.58716 20.3901 12.0357 23.4099C13.2394 24.8946 14.4464 26.1221 15.353 26.9782C15.592 27.204 15.8096 27.4034 16 27.5743Z" fill="#2F3335"/>
<path fill-rule="evenodd" clip-rule="evenodd" d="M10.6667 12.6663C10.6667 9.72083 13.0545 7.33301 16 7.33301C18.9455 7.33301 21.3333 9.72083 21.3333 12.6663C21.3333 15.6119 18.9455 17.9997 16 17.9997C13.0545 17.9997 10.6667 15.6119 10.6667 12.6663ZM16 9.99967C14.5272 9.99967 13.3333 11.1936 13.3333 12.6663C13.3333 14.1391 14.5272 15.333 16 15.333C17.4727 15.333 18.6667 14.1391 18.6667 12.6663C18.6667 11.1936 17.4727 9.99967 16 9.99967Z" fill="#2F3335"/>
</svg>
