<svg width="16" height="16" viewBox="0 0 16 16" fill="none" xmlns="http://www.w3.org/2000/svg">
<path fill-rule="evenodd" clip-rule="evenodd" d="M1.33301 1.99998C1.33301 1.63179 1.63148 1.33331 1.99967 1.33331H5.33301C5.7012 1.33331 5.99967 1.63179 5.99967 1.99998V5.33331C5.99967 5.7015 5.7012 5.99998 5.33301 5.99998H1.99967C1.63148 5.99998 1.33301 5.7015 1.33301 5.33331V1.99998ZM2.66634 2.66665V4.66665H4.66634V2.66665H2.66634ZM9.99967 1.99998C9.99967 1.63179 10.2982 1.33331 10.6663 1.33331H13.9997C14.3679 1.33331 14.6663 1.63179 14.6663 1.99998V5.33331C14.6663 5.7015 14.3679 5.99998 13.9997 5.99998H10.6663C10.2982 5.99998 9.99967 5.7015 9.99967 5.33331V1.99998ZM11.333 2.66665V4.66665H13.333V2.66665H11.333ZM7.99967 1.99998C8.36786 1.99998 8.66634 2.29846 8.66634 2.66665V3.33331C8.66634 3.7015 8.36786 3.99998 7.99967 3.99998C7.63148 3.99998 7.33301 3.7015 7.33301 3.33331V2.66665C7.33301 2.29846 7.63148 1.99998 7.99967 1.99998ZM7.99967 4.99998C8.36786 4.99998 8.66634 5.29846 8.66634 5.66665V7.33331H9.99967C10.3679 7.33331 10.6663 7.63179 10.6663 7.99998C10.6663 8.36817 10.3679 8.66665 9.99967 8.66665H8.66634V10.3333C8.66634 10.7015 8.36786 11 7.99967 11C7.63148 11 7.33301 10.7015 7.33301 10.3333V8.66665H2.66634C2.29815 8.66665 1.99967 8.36817 1.99967 7.99998C1.99967 7.63179 2.29815 7.33331 2.66634 7.33331H7.33301V5.66665C7.33301 5.29846 7.63148 4.99998 7.99967 4.99998ZM11.9997 7.99998C11.9997 7.63179 12.2982 7.33331 12.6663 7.33331H13.333C13.7012 7.33331 13.9997 7.63179 13.9997 7.99998C13.9997 8.36817 13.7012 8.66665 13.333 8.66665H12.6663C12.2982 8.66665 11.9997 8.36817 11.9997 7.99998ZM1.33301 10.6666C1.33301 10.2985 1.63148 9.99998 1.99967 9.99998H5.33301C5.7012 9.99998 5.99967 10.2985 5.99967 10.6666V14C5.99967 14.3682 5.7012 14.6666 5.33301 14.6666H1.99967C1.63148 14.6666 1.33301 14.3682 1.33301 14V10.6666ZM2.66634 11.3333V13.3333H4.66634V11.3333H2.66634ZM9.99967 10.6666C9.99967 10.2985 10.2982 9.99998 10.6663 9.99998H13.9997C14.3679 9.99998 14.6663 10.2985 14.6663 10.6666V14C14.6663 14.3682 14.3679 14.6666 13.9997 14.6666H10.6663C10.2982 14.6666 9.99967 14.3682 9.99967 14V10.6666ZM11.333 11.3333V13.3333H13.333V11.3333H11.333ZM7.99967 11.6666C8.36786 11.6666 8.66634 11.9651 8.66634 12.3333V13C8.66634 13.3682 8.36786 13.6666 7.99967 13.6666C7.63148 13.6666 7.33301 13.3682 7.33301 13V12.3333C7.33301 11.9651 7.63148 11.6666 7.99967 11.6666Z" fill="#878787"/>
</svg>
