<svg width="32" height="32" viewBox="0 0 32 32" fill="none" xmlns="http://www.w3.org/2000/svg">
<path fill-rule="evenodd" clip-rule="evenodd" d="M4.9992 9.16655L3.88238 8.43819C3.48012 9.05499 3.65404 9.8811 4.27084 10.2834C4.88665 10.685 5.71108 10.5123 6.11406 9.89789M4.9992 9.16655C3.88238 8.43819 3.88313 8.43704 3.88313 8.43704L3.884 8.43571L3.88609 8.43253L3.89168 8.42407L3.9085 8.39894C3.92222 8.37861 3.94094 8.35121 3.96463 8.31732C4.012 8.24955 4.07933 8.15566 4.16635 8.04026C4.34019 7.8097 4.59364 7.49183 4.92442 7.12397C5.58353 6.391 6.56349 5.44413 7.84752 4.59576C10.4423 2.88135 14.2897 1.57407 19.102 3.23989C23.8744 4.89188 26.2107 8.14223 27.3233 10.97C27.874 12.3698 28.1252 13.6618 28.2395 14.6051C28.2969 15.0782 28.3203 15.468 28.3292 15.7454C28.3337 15.8843 28.3345 15.9954 28.3341 16.0752C28.3339 16.1152 28.3334 16.1473 28.3329 16.1712L28.3321 16.2008L28.3318 16.2109L28.3316 16.2164C28.3316 16.2164 28.3315 16.2178 27.0128 16.1671L28.3315 16.2178C28.3032 16.9536 27.6838 17.5272 26.948 17.4989C26.2135 17.4706 25.6407 16.8535 25.6667 16.1194L25.6669 16.112C25.6671 16.1029 25.6674 16.086 25.6675 16.0617C25.6678 16.0131 25.6673 15.9351 25.664 15.8312C25.6573 15.6229 25.639 15.3122 25.5922 14.9259C25.4982 14.1505 25.291 13.0883 24.8418 11.9464C23.9544 9.69086 22.124 7.10788 18.2297 5.75985C14.3754 4.42565 11.3894 5.45171 9.31754 6.82065C8.26824 7.51394 7.45653 8.29625 6.90731 8.90703C6.63392 9.21105 6.42904 9.46871 6.29559 9.64569C6.22896 9.73407 6.18041 9.80197 6.1503 9.84504C6.13526 9.86656 6.12485 9.88185 6.11911 9.89035L6.11406 9.89789L6.11485 9.89668M25.6668 16.1171L25.6669 16.1153L26.9992 16.1665C25.6775 16.1157 25.6668 16.1171 25.6668 16.1171Z" fill="#2F3335"/>
<path fill-rule="evenodd" clip-rule="evenodd" d="M27.0009 3.83301C27.7373 3.83301 28.3342 4.42996 28.3342 5.16634V15.833C28.3342 16.5694 27.7373 17.1663 27.0009 17.1663C26.2645 17.1663 25.6676 16.5694 25.6676 15.833V5.16634C25.6676 4.42996 26.2645 3.83301 27.0009 3.83301Z" fill="#2F3335"/>
<path fill-rule="evenodd" clip-rule="evenodd" d="M27.0008 22.833L28.1176 23.5614C28.5198 22.9446 28.3459 22.1185 27.7291 21.7162C27.1133 21.3146 26.2889 21.4873 25.8859 22.1017M27.0008 22.833C28.1176 23.5614 28.1168 23.5625 28.1168 23.5625L28.116 23.5639L28.1139 23.567L28.1083 23.5755L28.0915 23.6006C28.0777 23.621 28.059 23.6484 28.0353 23.6823C27.988 23.75 27.9206 23.8439 27.8336 23.9593C27.6598 24.1899 27.4063 24.5077 27.0755 24.8756C26.4164 25.6086 25.4365 26.5554 24.1524 27.4038C21.5577 29.1182 17.7103 30.4255 12.8979 28.7597C8.12556 27.1077 5.78926 23.8573 4.67667 21.0295C4.12593 19.6297 3.87478 18.3378 3.76045 17.3945C3.7031 16.9214 3.67965 16.5316 3.67072 16.2542C3.66625 16.1153 3.66541 16.0042 3.66582 15.9243C3.66602 15.8844 3.66653 15.8523 3.66706 15.8284L3.66784 15.7987L3.66816 15.7887L3.66836 15.7832C3.66836 15.7832 3.66841 15.7818 4.98716 15.8325L3.66841 15.7818C3.69671 15.0459 4.31617 14.4724 5.052 14.5007C5.78646 14.5289 6.35926 15.1461 6.33326 15.8801L6.33307 15.8876C6.33287 15.8967 6.33257 15.9136 6.33245 15.9378C6.3322 15.9864 6.33266 16.0644 6.33601 16.1684C6.34271 16.3766 6.36092 16.6874 6.40774 17.0736C6.50174 17.8491 6.70892 18.9113 7.15818 20.0532C8.0456 22.3087 9.87596 24.8917 13.7702 26.2397C17.6246 27.5739 20.6105 26.5479 22.6824 25.1789C23.7317 24.4856 24.5434 23.7033 25.0927 23.0925C25.366 22.7885 25.5709 22.5309 25.7044 22.3539C25.771 22.2655 25.8195 22.1976 25.8497 22.1545C25.8647 22.133 25.8751 22.1177 25.8808 22.1092L25.8859 22.1017L25.8851 22.1029M6.33318 15.8825L6.33311 15.8843L5.00076 15.833C6.32247 15.8839 6.33318 15.8825 6.33318 15.8825Z" fill="#2F3335"/>
<path fill-rule="evenodd" clip-rule="evenodd" d="M4.99904 14.4999C5.73542 14.4999 6.33238 15.0969 6.33238 15.8332V26.4999C6.33238 27.2363 5.73542 27.8332 4.99904 27.8332C4.26266 27.8332 3.66571 27.2363 3.66571 26.4999V15.8332C3.66571 15.0969 4.26266 14.4999 4.99904 14.4999Z" fill="#2F3335"/>
</svg>
