<svg width="32" height="32" viewBox="0 0 32 32" fill="none" xmlns="http://www.w3.org/2000/svg">
<path fill-rule="evenodd" clip-rule="evenodd" d="M16 4.00033C16 3.26395 16.597 2.66699 17.3333 2.66699H28C28.7364 2.66699 29.3333 3.26395 29.3333 4.00033V14.667C29.3333 15.4034 28.7364 16.0003 28 16.0003C27.2636 16.0003 26.6667 15.4034 26.6667 14.667V5.33366H17.3333C16.597 5.33366 16 4.73671 16 4.00033Z" fill="#2F3335"/>
<path fill-rule="evenodd" clip-rule="evenodd" d="M5.99999 5.33366C5.6318 5.33366 5.33332 5.63214 5.33332 6.00032V26.0003C5.33332 26.3685 5.6318 26.667 5.99999 26.667H26C26.3682 26.667 26.6667 26.3685 26.6667 26.0003V19.6494C26.6667 18.9131 27.2636 18.3161 28 18.3161C28.7364 18.3161 29.3333 18.9131 29.3333 19.6494V26.0003C29.3333 27.8413 27.8409 29.3337 26 29.3337H5.99999C4.15904 29.3337 2.66666 27.8413 2.66666 26.0003V6.00032C2.66666 4.15938 4.15904 2.66699 5.99999 2.66699H12C12.7364 2.66699 13.3333 3.26395 13.3333 4.00033C13.3333 4.73671 12.7364 5.33366 12 5.33366H5.99999Z" fill="#2F3335"/>
<path fill-rule="evenodd" clip-rule="evenodd" d="M28.3428 3.65713C28.8635 4.17782 28.8635 5.02205 28.3428 5.54274L18.1428 15.7427C17.6221 16.2634 16.7779 16.2634 16.2572 15.7427C15.7365 15.222 15.7365 14.3778 16.2572 13.8571L26.4572 3.65713C26.9779 3.13643 27.8221 3.13643 28.3428 3.65713Z" fill="#2F3335"/>
</svg>
