<svg width="32" height="32" viewBox="0 0 32 32" fill="none" xmlns="http://www.w3.org/2000/svg">
<path fill-rule="evenodd" clip-rule="evenodd" d="M1.33334 15.9997C1.33334 7.8995 7.89983 1.33301 16 1.33301C24.1002 1.33301 30.6667 7.8995 30.6667 15.9997C30.6667 24.0999 24.1002 30.6663 16 30.6663C7.89983 30.6663 1.33334 24.0999 1.33334 15.9997ZM16 3.99967C9.37259 3.99967 4.00001 9.37226 4.00001 15.9997C4.00001 22.6271 9.37259 27.9997 16 27.9997C22.6274 27.9997 28 22.6271 28 15.9997C28 9.37226 22.6274 3.99967 16 3.99967Z" fill="#2F3335"/>
<path fill-rule="evenodd" clip-rule="evenodd" d="M16.0057 6.66624C16.7421 6.66632 17.339 7.26333 17.3389 7.99971L17.3382 15.4532L22.6005 20.7156C23.1212 21.2363 23.1212 22.0805 22.6005 22.6012C22.0798 23.1219 21.2356 23.1219 20.7149 22.6012L15.062 16.9483C14.8119 16.6982 14.6714 16.359 14.6714 16.0053L14.6722 7.99944C14.6723 7.26306 15.2693 6.66617 16.0057 6.66624Z" fill="#2F3335"/>
</svg>
