<svg width="32" height="32" viewBox="0 0 32 32" fill="none" xmlns="http://www.w3.org/2000/svg">
<path fill-rule="evenodd" clip-rule="evenodd" d="M11.6901 2.02543C11.9242 1.59845 12.3724 1.33301 12.8593 1.33301H19.1847C19.6757 1.33301 20.127 1.60286 20.3593 2.03541L22.1306 5.33301H29.3333C30.0697 5.33301 30.6666 5.92996 30.6666 6.66634C30.6666 7.40272 30.0697 7.99967 29.3333 7.99967H27.3333V29.333C27.3333 30.0694 26.7364 30.6663 26 30.6663H5.99998C5.2636 30.6663 4.66665 30.0694 4.66665 29.333V7.99967H2.66665C1.93027 7.99967 1.33331 7.40272 1.33331 6.66634C1.33331 5.92996 1.93027 5.33301 2.66665 5.33301H9.87701L11.6901 2.02543ZM12.918 5.33301H19.1036L18.3874 3.99967H13.6489L12.918 5.33301ZM7.33331 7.99967V27.9997H24.6666V7.99967H7.33331ZM13.3333 11.9997C14.0697 11.9997 14.6666 12.5966 14.6666 13.333V21.9997C14.6666 22.7361 14.0697 23.333 13.3333 23.333C12.5969 23.333 12 22.7361 12 21.9997V13.333C12 12.5966 12.5969 11.9997 13.3333 11.9997ZM18.6666 11.9997C19.403 11.9997 20 12.5966 20 13.333V21.9997C20 22.7361 19.403 23.333 18.6666 23.333C17.9303 23.333 17.3333 22.7361 17.3333 21.9997V13.333C17.3333 12.5966 17.9303 11.9997 18.6666 11.9997Z" fill="#2F3335"/>
</svg>
