<svg width="32" height="32" viewBox="0 0 32 32" fill="none" xmlns="http://www.w3.org/2000/svg">
<g clip-path="url(#clip0_32_14376)">
<path d="M31.9999 6.0854C30.82 6.60754 29.5587 6.96016 28.2296 7.12291C29.5858 6.30918 30.6301 5.02077 31.1184 3.48824C29.8503 4.24094 28.4466 4.79021 26.948 5.0818C25.7477 3.80017 24.0389 3 22.1538 3C18.5259 3 15.5897 5.943 15.5897 9.57088C15.5897 10.0862 15.6439 10.588 15.7592 11.0695C10.3004 10.7983 5.45869 8.18076 2.22411 4.20025C1.66128 5.16995 1.33578 6.30239 1.33578 7.50265C1.33578 9.7811 2.49535 11.7951 4.25844 12.975C3.18024 12.9479 2.16308 12.6495 1.28154 12.1545C1.28154 12.1816 1.28154 12.2087 1.28154 12.2359C1.28154 15.423 3.54642 18.0744 6.55045 18.6779C6.00118 18.8271 5.41801 18.9085 4.82127 18.9085C4.40084 18.9085 3.98719 18.8678 3.58711 18.7864C4.42118 21.3971 6.84882 23.2958 9.724 23.3501C7.47946 25.1132 4.64496 26.1642 1.56634 26.1642C1.03742 26.1642 0.515272 26.1303 -9.15527e-05 26.0693C2.90222 27.9544 6.3538 29.0394 10.0563 29.0394C22.1402 29.0394 28.745 19.0237 28.745 10.3371C28.745 10.0523 28.7382 9.76754 28.7246 9.48951C30.0063 8.5605 31.1184 7.40093 31.9999 6.0854Z" fill="#2F3335"/>
</g>
<defs>
<clipPath id="clip0_32_14376">
<rect width="32" height="32" fill="white"/>
</clipPath>
</defs>
</svg>
