<svg width="32" height="32" viewBox="0 0 32 32" fill="none" xmlns="http://www.w3.org/2000/svg">
<path fill-rule="evenodd" clip-rule="evenodd" d="M16.1679 0.0358667C14.2897 0.171778 12.706 0.737386 11.0529 1.86261C10.2899 2.38196 8.5787 4.1084 7.97801 4.96472C7.35858 5.84788 6.7381 6.88059 6.58225 7.2878C6.47002 7.58099 6.47017 7.61914 6.58464 7.79381L6.70841 7.98272H9.77087L9.94876 7.73909C10.0467 7.60512 10.3267 7.21066 10.571 6.86267C11.7649 5.16255 13.5511 3.83373 15.2135 3.4089C16.0744 3.18896 17.4629 3.13296 18.1322 3.29121C19.3104 3.56985 20.4996 4.44386 20.7483 5.21413C20.9762 5.91984 21.0583 6.84483 20.9571 7.56802C20.8039 8.66385 20.4745 9.43036 19.6519 10.6065L19.2586 11.1687L11.3388 11.2062C6.98293 11.2268 4.4778 11.83 4.45936 11.8506C4.29473 12.0344 5.78482 11.2505 5.78482 12.3368C5.78482 13.5191 11.7842 10.7747 7.17187 12.6835L5.78482 13.7505L9.82926 14.4297C16.0132 14.4297 16.1066 14.4319 15.961 14.5729C15.8797 14.6517 15.1048 15.214 14.2389 15.8222C13.3731 16.4306 12.4733 17.0745 12.2393 17.2532L11.814 17.5782H7.68183L6.58464 18.7385L6.58225 19.4587C6.40211 19.6388 9.279 17.8229 9.279 19.0053C9.279 20.1749 7.47193 19.3185 7.68183 19.4587C7.72718 19.489 4.74186 20.7999 6.23643 20.8006C7.73108 20.8012 8.9539 20.8194 8.9539 20.841C8.9539 20.8627 8.83104 21.1241 8.68088 21.422C7.91459 22.9423 7.62103 24.8519 7.90035 26.499C8.20898 28.3186 8.9036 29.4833 10.3142 30.5463C11.8469 31.7012 13.4303 32.1214 15.6797 31.9704C17.7919 31.8286 19.4105 31.2494 21.1179 30.0242C21.8246 29.5171 23.4727 27.8255 24.0223 27.0432C24.6409 26.1628 25.2626 25.1286 25.4189 24.7201C25.5311 24.4269 25.531 24.3887 25.4165 24.2141L25.2928 24.0252H22.2303L22.0524 24.2688C21.9545 24.4028 21.6745 24.797 21.4301 25.1447C20.8588 25.9575 19.7959 27.0269 19.0537 27.5355C17.8506 28.3598 16.7615 28.7243 15.2884 28.7959C13.8097 28.8677 12.8461 28.5422 11.8744 27.6426C11.288 27.0997 11.1912 26.8791 11.0396 25.7409C10.8315 24.1776 11.4493 22.3735 12.6178 21.1318L12.9285 20.8017H20.7186L25.0967 19.272L26.4838 19.5869C26.6267 19.4054 27.204 20.1363 27.204 19.0053C27.204 17.799 26.9576 19.1856 26.7771 19.0053L26.4838 18.1517L22.882 17.5758L17.3125 17.5735L17.5367 17.4071C18.3388 16.8122 19.0068 16.229 19.848 15.3893L20.8093 14.4297H24.6304L25.7647 12.6835L26.4838 12.3368C26.6639 12.1567 27.204 13.5191 27.204 12.3368C27.204 11.1671 27.1925 12.477 26.9826 12.3368C26.9373 12.3065 27.2594 11.208 25.7647 11.2073C24.2702 11.2067 23.0473 11.1885 23.0473 11.1668C23.0473 11.1452 23.1611 10.9006 23.3002 10.6234C23.9017 9.42459 24.1899 8.22238 24.1938 6.89573C24.1979 5.46541 23.8366 3.9937 23.2629 3.1035C22.8634 2.48361 21.9909 1.62527 21.3174 1.18965C19.8185 0.21998 18.306 -0.11886 16.1679 0.0358667Z" fill="#2F3335"/>
<path d="M3.18054 19.1882C3.18054 18.3 3.9005 17.5801 4.78862 17.5801H27.2114C28.0995 17.5801 28.8195 18.3 28.8195 19.1882C28.8195 20.0763 28.0995 20.7962 27.2114 20.7962H4.78861C3.9005 20.7962 3.18054 20.0763 3.18054 19.1882Z" fill="#2F3335"/>
<path d="M3.18054 12.8117C3.18054 11.9236 3.9005 11.2036 4.78862 11.2036H27.2114C28.0995 11.2036 28.8195 11.9236 28.8195 12.8117C28.8195 13.6998 28.0995 14.4198 27.2114 14.4198H4.78861C3.9005 14.4198 3.18054 13.6998 3.18054 12.8117Z" fill="#2F3335"/>
</svg>
