<svg width="32" height="32" viewBox="0 0 32 32" fill="none" xmlns="http://www.w3.org/2000/svg">
<path fill-rule="evenodd" clip-rule="evenodd" d="M9.33335 17.3327C8.22878 17.3327 7.33335 18.2281 7.33335 19.3327C7.33335 20.4373 8.22878 21.3327 9.33335 21.3327C10.4379 21.3327 11.3334 20.4373 11.3334 19.3327C11.3334 18.2281 10.4379 17.3327 9.33335 17.3327ZM4.66669 19.3327C4.66669 16.7554 6.75602 14.666 9.33335 14.666C11.9107 14.666 14 16.7554 14 19.3327C14 21.91 11.9107 23.9993 9.33335 23.9993C6.75602 23.9993 4.66669 21.91 4.66669 19.3327Z" fill="#2F3335"/>
<path fill-rule="evenodd" clip-rule="evenodd" d="M22.6667 17.3327C21.5621 17.3327 20.6667 18.2281 20.6667 19.3327C20.6667 20.4373 21.5621 21.3327 22.6667 21.3327C23.7712 21.3327 24.6667 20.4373 24.6667 19.3327C24.6667 18.2281 23.7712 17.3327 22.6667 17.3327ZM18 19.3327C18 16.7554 20.0893 14.666 22.6667 14.666C25.244 14.666 27.3333 16.7554 27.3333 19.3327C27.3333 21.91 25.244 23.9993 22.6667 23.9993C20.0893 23.9993 18 21.91 18 19.3327Z" fill="#2F3335"/>
<path fill-rule="evenodd" clip-rule="evenodd" d="M16 3.99967C14.8954 3.99967 14 4.8951 14 5.99967C14 7.10424 14.8954 7.99967 16 7.99967C17.1046 7.99967 18 7.10424 18 5.99967C18 4.8951 17.1046 3.99967 16 3.99967ZM11.3333 5.99967C11.3333 3.42235 13.4227 1.33301 16 1.33301C18.5773 1.33301 20.6667 3.42235 20.6667 5.99967C20.6667 8.577 18.5773 10.6663 16 10.6663C13.4227 10.6663 11.3333 8.577 11.3333 5.99967Z" fill="#2F3335"/>
<path fill-rule="evenodd" clip-rule="evenodd" d="M9.33334 23.9997C6.38783 23.9997 4.00001 26.3875 4.00001 29.333C4.00001 30.0694 3.40306 30.6663 2.66668 30.6663C1.9303 30.6663 1.33334 30.0694 1.33334 29.333C1.33334 24.9147 4.91507 21.333 9.33334 21.333C13.7516 21.333 17.3333 24.9147 17.3333 29.333C17.3333 30.0694 16.7364 30.6663 16 30.6663C15.2636 30.6663 14.6667 30.0694 14.6667 29.333C14.6667 26.3875 12.2789 23.9997 9.33334 23.9997Z" fill="#2F3335"/>
<path fill-rule="evenodd" clip-rule="evenodd" d="M22.6667 23.9997C19.7212 23.9997 17.3334 26.3875 17.3334 29.333C17.3334 30.0694 16.7364 30.6663 16 30.6663C15.2636 30.6663 14.6667 30.0694 14.6667 29.333C14.6667 24.9147 18.2484 21.333 22.6667 21.333C27.085 21.333 30.6667 24.9147 30.6667 29.333C30.6667 30.0694 30.0697 30.6663 29.3334 30.6663C28.597 30.6663 28 30.0694 28 29.333C28 26.3875 25.6122 23.9997 22.6667 23.9997Z" fill="#2F3335"/>
<path fill-rule="evenodd" clip-rule="evenodd" d="M16 10.6667C13.0545 10.6667 10.6667 13.0545 10.6667 16C10.6667 16.7364 10.0697 17.3333 9.33333 17.3333C8.59695 17.3333 8 16.7364 8 16C8 11.5817 11.5817 8 16 8C20.4183 8 24 11.5817 24 16C24 16.7364 23.403 17.3333 22.6667 17.3333C21.9303 17.3333 21.3333 16.7364 21.3333 16C21.3333 13.0545 18.9455 10.6667 16 10.6667Z" fill="#2F3335"/>
</svg>
