<svg width="32" height="32" viewBox="0 0 32 32" fill="none" xmlns="http://www.w3.org/2000/svg">
<path fill-rule="evenodd" clip-rule="evenodd" d="M10.5716 8.23899C10.9298 7.98972 11.3872 7.93146 11.7964 8.08301L29.7964 14.7497C30.3195 14.9434 30.6667 15.4422 30.6667 16V29.3333C30.6667 30.0697 30.0697 30.6667 29.3333 30.6667H11.3333C10.597 30.6667 10 30.0697 10 29.3333V9.33334C10 8.89699 10.2135 8.48826 10.5716 8.23899ZM12.6667 11.249V28H28V16.928L12.6667 11.249Z" fill="#2F3335"/>
<path fill-rule="evenodd" clip-rule="evenodd" d="M12.3901 8.52045C12.8391 9.10412 12.7299 9.94125 12.1463 10.3902L3.99998 16.6566V28.0001H11.3333C12.0697 28.0001 12.6666 28.597 12.6666 29.3334C12.6666 30.0698 12.0697 30.6667 11.3333 30.6667H2.66665C1.93027 30.6667 1.33331 30.0698 1.33331 29.3334V16.0001C1.33331 15.5861 1.52559 15.1956 1.8537 14.9432L10.5204 8.27657C11.104 7.82759 11.9412 7.93678 12.3901 8.52045Z" fill="#2F3335"/>
<path fill-rule="evenodd" clip-rule="evenodd" d="M16.5537 18.2517C16.9014 18.0011 17.3484 17.9329 17.755 18.0684L23.755 20.0684C24.2994 20.2499 24.6667 20.7594 24.6667 21.3333V29.3333C24.6667 30.0697 24.0697 30.6667 23.3333 30.6667C22.597 30.6667 22 30.0697 22 29.3333V22.2944L18.6667 21.1832V29.3333C18.6667 30.0697 18.0697 30.6667 17.3333 30.6667C16.597 30.6667 16 30.0697 16 29.3333V19.3333C16 18.9048 16.206 18.5023 16.5537 18.2517Z" fill="#2F3335"/>
</svg>
